%TF.GenerationSoftware,KiCad,Pcbnew,9.0.3-9.0.3-0~ubuntu24.04.1*%
%TF.CreationDate,2025-09-06T02:21:12+02:00*%
%TF.ProjectId,board_nfz330_nfz400,626f6172-645f-46e6-967a-3333305f6e66,rev?*%
%TF.SameCoordinates,Original*%
%TF.FileFunction,Copper,L2,Bot*%
%TF.FilePolarity,Positive*%
%FSLAX46Y46*%
G04 Gerber Fmt 4.6, Leading zero omitted, Abs format (unit mm)*
G04 Created by KiCad (PCBNEW 9.0.3-9.0.3-0~ubuntu24.04.1) date 2025-09-06 02:21:12*
%MOMM*%
%LPD*%
G01*
G04 APERTURE LIST*
G04 Aperture macros list*
%AMRoundRect*
0 Rectangle with rounded corners*
0 $1 Rounding radius*
0 $2 $3 $4 $5 $6 $7 $8 $9 X,Y pos of 4 corners*
0 Add a 4 corners polygon primitive as box body*
4,1,4,$2,$3,$4,$5,$6,$7,$8,$9,$2,$3,0*
0 Add four circle primitives for the rounded corners*
1,1,$1+$1,$2,$3*
1,1,$1+$1,$4,$5*
1,1,$1+$1,$6,$7*
1,1,$1+$1,$8,$9*
0 Add four rect primitives between the rounded corners*
20,1,$1+$1,$2,$3,$4,$5,0*
20,1,$1+$1,$4,$5,$6,$7,0*
20,1,$1+$1,$6,$7,$8,$9,0*
20,1,$1+$1,$8,$9,$2,$3,0*%
%AMFreePoly0*
4,1,37,0.603843,0.796157,0.639018,0.796157,0.711114,0.766294,0.766294,0.711114,0.796157,0.639018,0.796157,0.603843,0.800000,0.600000,0.800000,-0.600000,0.796157,-0.603843,0.796157,-0.639018,0.766294,-0.711114,0.711114,-0.766294,0.639018,-0.796157,0.603843,-0.796157,0.600000,-0.800000,0.000000,-0.800000,0.000000,-0.796148,-0.078414,-0.796148,-0.232228,-0.765552,-0.377117,-0.705537,
-0.507515,-0.618408,-0.618408,-0.507515,-0.705537,-0.377117,-0.765552,-0.232228,-0.796148,-0.078414,-0.796148,0.078414,-0.765552,0.232228,-0.705537,0.377117,-0.618408,0.507515,-0.507515,0.618408,-0.377117,0.705537,-0.232228,0.765552,-0.078414,0.796148,0.000000,0.796148,0.000000,0.800000,0.600000,0.800000,0.603843,0.796157,0.603843,0.796157,$1*%
%AMFreePoly1*
4,1,37,0.000000,0.796148,0.078414,0.796148,0.232228,0.765552,0.377117,0.705537,0.507515,0.618408,0.618408,0.507515,0.705537,0.377117,0.765552,0.232228,0.796148,0.078414,0.796148,-0.078414,0.765552,-0.232228,0.705537,-0.377117,0.618408,-0.507515,0.507515,-0.618408,0.377117,-0.705537,0.232228,-0.765552,0.078414,-0.796148,0.000000,-0.796148,0.000000,-0.800000,-0.600000,-0.800000,
-0.603843,-0.796157,-0.639018,-0.796157,-0.711114,-0.766294,-0.766294,-0.711114,-0.796157,-0.639018,-0.796157,-0.603843,-0.800000,-0.600000,-0.800000,0.600000,-0.796157,0.603843,-0.796157,0.639018,-0.766294,0.711114,-0.711114,0.766294,-0.639018,0.796157,-0.603843,0.796157,-0.600000,0.800000,0.000000,0.800000,0.000000,0.796148,0.000000,0.796148,$1*%
G04 Aperture macros list end*
%TA.AperFunction,ComponentPad*%
%ADD10RoundRect,0.200000X0.600000X0.600000X-0.600000X0.600000X-0.600000X-0.600000X0.600000X-0.600000X0*%
%TD*%
%TA.AperFunction,ComponentPad*%
%ADD11C,1.600000*%
%TD*%
%TA.AperFunction,ComponentPad*%
%ADD12FreePoly0,180.000000*%
%TD*%
%TA.AperFunction,ComponentPad*%
%ADD13FreePoly1,180.000000*%
%TD*%
%TA.AperFunction,ComponentPad*%
%ADD14R,1.700000X1.700000*%
%TD*%
%TA.AperFunction,ComponentPad*%
%ADD15C,1.700000*%
%TD*%
%TA.AperFunction,ViaPad*%
%ADD16C,0.600000*%
%TD*%
%TA.AperFunction,Conductor*%
%ADD17C,0.500000*%
%TD*%
%TA.AperFunction,Conductor*%
%ADD18C,0.200000*%
%TD*%
%TA.AperFunction,Conductor*%
%ADD19C,0.400000*%
%TD*%
G04 APERTURE END LIST*
D10*
%TO.P,J3,1,GPIO0*%
%TO.N,/PICO{slash}GP0*%
X79479000Y-122169000D03*
D11*
%TO.P,J3,2,GPIO1*%
%TO.N,/PICO{slash}GP1*%
X79479000Y-119629000D03*
D12*
%TO.P,J3,3,GND*%
%TO.N,GND*%
X79479000Y-117089000D03*
D11*
%TO.P,J3,4,GPIO2*%
%TO.N,/PICO{slash}GP2*%
X79479000Y-114549000D03*
%TO.P,J3,5,GPIO3*%
%TO.N,/PICO{slash}GP3*%
X79479000Y-112009000D03*
%TO.P,J3,6,GPIO4*%
%TO.N,/PICO{slash}GP4*%
X79479000Y-109469000D03*
%TO.P,J3,7,GPIO5*%
%TO.N,/PICO{slash}GP5*%
X79479000Y-106929000D03*
D12*
%TO.P,J3,8,GND*%
%TO.N,GND*%
X79479000Y-104389000D03*
D11*
%TO.P,J3,9,GPIO6*%
%TO.N,/PICO{slash}GP6*%
X79479000Y-101849000D03*
%TO.P,J3,10,GPIO7*%
%TO.N,/PICO{slash}GP7*%
X79479000Y-99309000D03*
%TO.P,J3,11,GPIO8*%
%TO.N,/PICO{slash}GP8*%
X79479000Y-96769000D03*
%TO.P,J3,12,GPIO9*%
%TO.N,/PICO{slash}GP9*%
X79479000Y-94229000D03*
D12*
%TO.P,J3,13,GND*%
%TO.N,GND*%
X79479000Y-91689000D03*
D11*
%TO.P,J3,14,GPIO10*%
%TO.N,/PICO{slash}GP10*%
X79479000Y-89149000D03*
%TO.P,J3,15,GPIO11*%
%TO.N,/PICO{slash}GP11*%
X79479000Y-86609000D03*
%TO.P,J3,16,GPIO12*%
%TO.N,/PICO{slash}GP12*%
X79479000Y-84069000D03*
%TO.P,J3,17,GPIO13*%
%TO.N,/PICO{slash}GP13*%
X79479000Y-81529000D03*
D12*
%TO.P,J3,18,GND*%
%TO.N,GND*%
X79479000Y-78989000D03*
D11*
%TO.P,J3,19,GPIO14*%
%TO.N,/PICO{slash}GP14*%
X79479000Y-76449000D03*
%TO.P,J3,20,GPIO15*%
%TO.N,/PICO{slash}GP15*%
X79479000Y-73909000D03*
%TO.P,J3,21,GPIO16*%
%TO.N,unconnected-(J3-GPIO16-Pad21)*%
X61699000Y-73909000D03*
%TO.P,J3,22,GPIO17*%
%TO.N,/PICO{slash}NOP_EN*%
X61699000Y-76449000D03*
D13*
%TO.P,J3,23,GND*%
%TO.N,GND*%
X61699000Y-78989000D03*
D11*
%TO.P,J3,24,GPIO18*%
%TO.N,/PICO{slash}BUS_EN*%
X61699000Y-81529000D03*
%TO.P,J3,25,GPIO19*%
%TO.N,/PICO{slash}ALE*%
X61699000Y-84069000D03*
%TO.P,J3,26,GPIO20*%
%TO.N,/PICO{slash}PSEN*%
X61699000Y-86609000D03*
%TO.P,J3,27,GPIO21*%
%TO.N,/PICO{slash}WR*%
X61699000Y-89149000D03*
D13*
%TO.P,J3,28,GND*%
%TO.N,GND*%
X61699000Y-91689000D03*
D11*
%TO.P,J3,29,GPIO22*%
%TO.N,/PICO{slash}RD*%
X61699000Y-94229000D03*
%TO.P,J3,30,RUN*%
%TO.N,unconnected-(J3-RUN-Pad30)*%
X61699000Y-96769000D03*
%TO.P,J3,31,GPIO26/ADC0*%
%TO.N,unconnected-(J3-GPIO26{slash}ADC0-Pad31)*%
X61699000Y-99309000D03*
%TO.P,J3,32,GPIO27/ADC1*%
%TO.N,unconnected-(J3-GPIO27{slash}ADC1-Pad32)*%
X61699000Y-101849000D03*
D13*
%TO.P,J3,33,AGND*%
%TO.N,GND*%
X61699000Y-104389000D03*
D11*
%TO.P,J3,34,GPIO28/ADC2*%
%TO.N,unconnected-(J3-GPIO28{slash}ADC2-Pad34)*%
X61699000Y-106929000D03*
%TO.P,J3,35,ADC_VREF*%
%TO.N,unconnected-(J3-ADC_VREF-Pad35)*%
X61699000Y-109469000D03*
%TO.P,J3,36,3V3*%
%TO.N,+3V3*%
X61699000Y-112009000D03*
%TO.P,J3,37,3V3_EN*%
%TO.N,unconnected-(J3-3V3_EN-Pad37)*%
X61699000Y-114549000D03*
D13*
%TO.P,J3,38,GND*%
%TO.N,GND*%
X61699000Y-117089000D03*
D11*
%TO.P,J3,39,VSYS*%
%TO.N,Net-(D1-K)*%
X61699000Y-119629000D03*
%TO.P,J3,40,VBUS*%
%TO.N,unconnected-(J3-VBUS-Pad40)*%
X61699000Y-122169000D03*
%TD*%
D14*
%TO.P,J1,B1,ALE*%
%TO.N,/BUS{slash}ALE*%
X83289000Y-100579000D03*
D15*
%TO.P,J1,B2,~{PSEN}*%
%TO.N,/BUS{slash}PSEN*%
X83289000Y-103119000D03*
%TO.P,J1,B3,A15*%
%TO.N,/BUS{slash}GP7*%
X83289000Y-105659000D03*
%TO.P,J1,B4,A14*%
%TO.N,/BUS{slash}GP6*%
X83289000Y-108199000D03*
%TO.P,J1,B5,A13*%
%TO.N,/BUS{slash}GP5*%
X83289000Y-110739000D03*
%TO.P,J1,B6,A12*%
%TO.N,/BUS{slash}GP4*%
X83289000Y-113279000D03*
%TO.P,J1,B7,A11*%
%TO.N,/BUS{slash}GP3*%
X83289000Y-115819000D03*
%TO.P,J1,B8,A10*%
%TO.N,/BUS{slash}GP2*%
X83289000Y-118359000D03*
%TO.P,J1,B9,A9*%
%TO.N,/BUS{slash}GP1*%
X83289000Y-120899000D03*
%TO.P,J1,B10,A8*%
%TO.N,/BUS{slash}GP0*%
X83289000Y-123439000D03*
%TO.P,J1,B11,~{RD}*%
%TO.N,/BUS{slash}RD*%
X83289000Y-125979000D03*
%TO.P,J1,B12,~{WR}*%
%TO.N,/BUS{slash}WR*%
X83289000Y-128519000D03*
D14*
%TO.P,J1,T1,GND*%
%TO.N,GND*%
X83289000Y-70099000D03*
D15*
%TO.P,J1,T2,5V*%
%TO.N,+5V*%
X83289000Y-72639000D03*
%TO.P,J1,T3,AD0*%
%TO.N,/BUS{slash}GP15*%
X83289000Y-75179000D03*
%TO.P,J1,T4,AD1*%
%TO.N,/BUS{slash}GP14*%
X83289000Y-77719000D03*
%TO.P,J1,T5,AD2*%
%TO.N,/BUS{slash}GP13*%
X83289000Y-80259000D03*
%TO.P,J1,T6,AD3*%
%TO.N,/BUS{slash}GP12*%
X83289000Y-82799000D03*
%TO.P,J1,T7,AD4*%
%TO.N,/BUS{slash}GP11*%
X83289000Y-85339000D03*
%TO.P,J1,T8,AD5*%
%TO.N,/BUS{slash}GP10*%
X83289000Y-87879000D03*
%TO.P,J1,T9,AD6*%
%TO.N,/BUS{slash}GP9*%
X83289000Y-90419000D03*
%TO.P,J1,T10,AD7*%
%TO.N,/BUS{slash}GP8*%
X83289000Y-92959000D03*
%TD*%
D14*
%TO.P,J4,1,Pin_1*%
%TO.N,GND*%
X60657600Y-126182200D03*
D15*
%TO.P,J4,2,Pin_2*%
X60657600Y-128722200D03*
%TD*%
%TO.P,J2,*%
%TO.N,*%
X73129000Y-81529000D03*
X73129000Y-78989000D03*
X57889000Y-86609000D03*
X57889000Y-84069000D03*
X57889000Y-81529000D03*
D14*
%TO.P,J2,L1,~{WR}*%
%TO.N,/BUS{slash}WR*%
X57889000Y-73909000D03*
D15*
%TO.P,J2,L2,~{RD}*%
%TO.N,/BUS{slash}RD*%
X57889000Y-76449000D03*
%TO.P,J2,L3,5V*%
%TO.N,+5V*%
X57889000Y-78989000D03*
%TO.P,J2,L7,ALE*%
%TO.N,/BUS{slash}ALE*%
X57889000Y-89149000D03*
%TO.P,J2,L8,A12*%
%TO.N,/BUS{slash}GP7*%
X57889000Y-91689000D03*
%TO.P,J2,L9,AD7*%
%TO.N,/BUS{slash}GP15*%
X57889000Y-94229000D03*
%TO.P,J2,L10,AD6*%
%TO.N,/BUS{slash}GP14*%
X57889000Y-96769000D03*
%TO.P,J2,L11,AD5*%
%TO.N,/BUS{slash}GP13*%
X57889000Y-99309000D03*
%TO.P,J2,L12,AD4*%
%TO.N,/BUS{slash}GP12*%
X57889000Y-101849000D03*
%TO.P,J2,L13,AD3*%
%TO.N,/BUS{slash}GP11*%
X57889000Y-104389000D03*
%TO.P,J2,L14,AD2*%
%TO.N,/BUS{slash}GP10*%
X57889000Y-106929000D03*
%TO.P,J2,L15,AD1*%
%TO.N,/BUS{slash}GP9*%
X57889000Y-109469000D03*
%TO.P,J2,L16,AD0*%
%TO.N,/BUS{slash}GP8*%
X57889000Y-112009000D03*
%TO.P,J2,L17,AD0*%
%TO.N,unconnected-(J2-AD0-PadL17)*%
X57889000Y-114549000D03*
%TO.P,J2,L18,AD1*%
%TO.N,unconnected-(J2-AD1-PadL18)*%
X57889000Y-117089000D03*
%TO.P,J2,L19,AD2*%
%TO.N,unconnected-(J2-AD2-PadL19)*%
X57889000Y-119629000D03*
%TO.P,J2,L20,GND*%
%TO.N,GND*%
X57889000Y-122169000D03*
D14*
%TO.P,J2,R1,GND*%
%TO.N,unconnected-(J2-GND-PadR1)*%
X73129000Y-73909000D03*
D15*
%TO.P,J2,R2,GND*%
%TO.N,unconnected-(J2-GND-PadR2)*%
X73129000Y-76449000D03*
%TO.P,J2,R5,A12*%
%TO.N,unconnected-(J2-A12-PadR5)*%
X73129000Y-84069000D03*
%TO.P,J2,R6,ALE*%
%TO.N,unconnected-(J2-ALE-PadR6)*%
X73129000Y-86609000D03*
%TO.P,J2,R7,5V*%
%TO.N,unconnected-(J2-5V-PadR7)*%
X73129000Y-89149000D03*
%TO.P,J2,R8,A14*%
%TO.N,/BUS{slash}GP6*%
X73129000Y-91689000D03*
%TO.P,J2,R9,A13*%
%TO.N,/BUS{slash}GP5*%
X73129000Y-94229000D03*
%TO.P,J2,R10,A8*%
%TO.N,/BUS{slash}GP4*%
X73129000Y-96769000D03*
%TO.P,J2,R11,A9*%
%TO.N,/BUS{slash}GP3*%
X73129000Y-99309000D03*
%TO.P,J2,R12,A11*%
%TO.N,/BUS{slash}GP2*%
X73129000Y-101849000D03*
%TO.P,J2,R13,~{PSEN}*%
%TO.N,/BUS{slash}PSEN*%
X73129000Y-104389000D03*
%TO.P,J2,R14,A10*%
%TO.N,/BUS{slash}GP1*%
X73129000Y-106929000D03*
%TO.P,J2,R15,A15*%
%TO.N,/BUS{slash}GP0*%
X73129000Y-109469000D03*
%TO.P,J2,R16,AD7*%
%TO.N,unconnected-(J2-AD7-PadR16)*%
X73129000Y-112009000D03*
%TO.P,J2,R17,AD6*%
%TO.N,unconnected-(J2-AD6-PadR17)*%
X73129000Y-114549000D03*
%TO.P,J2,R18,AD5*%
%TO.N,unconnected-(J2-AD5-PadR18)*%
X73129000Y-117089000D03*
%TO.P,J2,R19,AD4*%
%TO.N,unconnected-(J2-AD4-PadR19)*%
X73129000Y-119629000D03*
%TO.P,J2,R20,AD3*%
%TO.N,unconnected-(J2-AD3-PadR20)*%
X73129000Y-122169000D03*
%TD*%
D16*
%TO.N,+5V*%
X68531600Y-69591000D03*
%TO.N,/BUS{slash}PSEN*%
X80368000Y-105659000D03*
X68557000Y-70607000D03*
%TO.N,GND*%
X60013000Y-90317400D03*
X81257000Y-98039000D03*
X67160000Y-69591000D03*
X83314400Y-98039000D03*
X71528800Y-125420200D03*
%TO.N,/BUS{slash}WR*%
X63324600Y-92324000D03*
X67896600Y-100325000D03*
X68302273Y-91781000D03*
%TO.N,/BUS{slash}RD*%
X68150600Y-96835907D03*
X62816600Y-95143400D03*
X68074400Y-99207400D03*
%TO.N,/PICO{slash}WR*%
X64033102Y-92742772D03*
%TO.N,/BUS{slash}GP7*%
X64594600Y-123896200D03*
%TO.N,/BUS{slash}GP14*%
X66570000Y-88031400D03*
%TO.N,/BUS{slash}GP0*%
X79402800Y-123642200D03*
%TO.N,/BUS{slash}GP11*%
X70470000Y-87523400D03*
X77370800Y-85339000D03*
%TO.N,/BUS{slash}GP13*%
X67870000Y-88006000D03*
%TO.N,/BUS{slash}GP5*%
X77539000Y-109723000D03*
%TO.N,/BUS{slash}GP10*%
X70325400Y-96268753D03*
X77243800Y-87879000D03*
%TO.N,/BUS{slash}GP2*%
X78234400Y-118409800D03*
%TO.N,/BUS{slash}GP12*%
X69170000Y-88006000D03*
X78183600Y-82799000D03*
%TO.N,/BUS{slash}GP4*%
X77929600Y-113279000D03*
%TO.N,/BUS{slash}GP1*%
X78590000Y-120899000D03*
%TO.N,/BUS{slash}GP15*%
X65270000Y-88006000D03*
%TO.N,/BUS{slash}GP9*%
X70842272Y-91019000D03*
X77243800Y-90419000D03*
%TO.N,/BUS{slash}GP3*%
X77269200Y-115819000D03*
%TO.N,/BUS{slash}GP8*%
X71579600Y-92959000D03*
%TO.N,/BUS{slash}GP6*%
X70335000Y-109215000D03*
X69319000Y-122677000D03*
X78047000Y-107157600D03*
%TO.N,/PICO{slash}GP4*%
X74281600Y-110892127D03*
X71325600Y-111755000D03*
%TO.N,/PICO{slash}GP11*%
X74754600Y-85999400D03*
%TO.N,/PICO{slash}GP10*%
X74741900Y-88526700D03*
%TO.N,/PICO{slash}GP12*%
X74741900Y-83446700D03*
%TO.N,/PICO{slash}GP6*%
X68557000Y-121915000D03*
X74653000Y-102357000D03*
%TO.N,/PICO{slash}GP7*%
X67795000Y-121635600D03*
X74653000Y-99817000D03*
%TO.N,/PICO{slash}GP9*%
X74729200Y-91054000D03*
%TO.N,/PICO{slash}GP13*%
X74729200Y-80894000D03*
%TO.N,/PICO{slash}GP15*%
X64467600Y-83916600D03*
%TO.N,/PICO{slash}GP14*%
X66093200Y-81198800D03*
%TO.N,/PICO{slash}GP5*%
X74281600Y-108352127D03*
X71325600Y-109215000D03*
%TO.N,/BUS{slash}ALE*%
X59667000Y-118232000D03*
X65255000Y-118359000D03*
%TO.N,/PICO{slash}NOP_EN*%
X65890000Y-69591000D03*
%TO.N,/PICO{slash}PSEN*%
X69569417Y-90495093D03*
X66004300Y-104401700D03*
X63912027Y-90513500D03*
%TO.N,/PICO{slash}ALE*%
X68899127Y-91113500D03*
X64655000Y-90942800D03*
X66715500Y-102801500D03*
%TO.N,/PICO{slash}BUS_EN*%
X67683800Y-92390600D03*
X68150600Y-107284600D03*
X71605000Y-87472600D03*
X66982200Y-121102200D03*
X63400000Y-93822600D03*
X66677400Y-101569600D03*
X58574800Y-80233600D03*
X64639071Y-92143800D03*
X63959600Y-127426800D03*
%TD*%
D17*
%TO.N,+5V*%
X80241000Y-69591000D02*
X68531600Y-69591000D01*
X83289000Y-72639000D02*
X80241000Y-69591000D01*
D18*
%TO.N,/BUS{slash}PSEN*%
X80368000Y-105659000D02*
X80749000Y-105659000D01*
X78209000Y-70607000D02*
X68557000Y-70607000D01*
X82019000Y-101849000D02*
X82019000Y-97277000D01*
X83289000Y-103119000D02*
X82019000Y-101849000D01*
X80749000Y-105659000D02*
X83289000Y-103119000D01*
X83797000Y-73909000D02*
X81511000Y-73909000D01*
X81511000Y-73909000D02*
X78209000Y-70607000D01*
X84559000Y-74671000D02*
X83797000Y-73909000D01*
X84559000Y-94737000D02*
X84559000Y-74671000D01*
X82019000Y-97277000D02*
X84559000Y-94737000D01*
%TO.N,unconnected-(J2-A12-PadR5)*%
X73129000Y-84069000D02*
X73738600Y-84678600D01*
D17*
%TO.N,GND*%
X63934200Y-126182200D02*
X66169400Y-123947000D01*
D19*
X83949400Y-117089000D02*
X79479000Y-117089000D01*
X68176000Y-68575000D02*
X67160000Y-69591000D01*
X62283200Y-78989000D02*
X61699000Y-78989000D01*
X67160000Y-69591000D02*
X67160000Y-74112200D01*
D17*
X60073400Y-90317400D02*
X61445000Y-91689000D01*
D19*
X81257000Y-93467000D02*
X81257000Y-97734200D01*
D17*
X60657600Y-126182200D02*
X60657600Y-124937600D01*
D19*
X83289000Y-70099000D02*
X81765000Y-68575000D01*
D17*
X65509000Y-117089000D02*
X66169400Y-117749400D01*
D19*
X83378000Y-98039000D02*
X85067000Y-99728000D01*
D17*
X60657600Y-124937600D02*
X57889000Y-122169000D01*
X70055600Y-123947000D02*
X66169400Y-123947000D01*
D19*
X67160000Y-74112200D02*
X62283200Y-78989000D01*
D17*
X66169400Y-117749400D02*
X66169400Y-123947000D01*
D19*
X83314400Y-98039000D02*
X83378000Y-98039000D01*
D17*
X71528800Y-125420200D02*
X70055600Y-123947000D01*
D19*
X85067000Y-115971400D02*
X83949400Y-117089000D01*
X85067000Y-99728000D02*
X85067000Y-115971400D01*
D17*
X60657600Y-126182200D02*
X63934200Y-126182200D01*
X61699000Y-117089000D02*
X65509000Y-117089000D01*
X61445000Y-91689000D02*
X61699000Y-91689000D01*
D19*
X79479000Y-104389000D02*
X81257000Y-102611000D01*
X79479000Y-91689000D02*
X81257000Y-93467000D01*
D17*
X60013000Y-90317400D02*
X60073400Y-90317400D01*
D19*
X81257000Y-102611000D02*
X81257000Y-98343800D01*
X81765000Y-68575000D02*
X68176000Y-68575000D01*
D18*
%TO.N,/BUS{slash}WR*%
X63324600Y-92324000D02*
X63324600Y-91399006D01*
X59921000Y-75941000D02*
X57889000Y-73909000D01*
X62344594Y-90419000D02*
X61343400Y-90419000D01*
X63324600Y-91399006D02*
X62344594Y-90419000D01*
X68811000Y-99410600D02*
X67896600Y-100325000D01*
X61343400Y-90419000D02*
X59921000Y-88996600D01*
X59921000Y-88996600D02*
X59921000Y-75941000D01*
X68811000Y-92289727D02*
X68811000Y-99410600D01*
X68302273Y-91781000D02*
X68811000Y-92289727D01*
%TO.N,/BUS{slash}RD*%
X59413000Y-77973000D02*
X59413000Y-90967122D01*
X62800000Y-95126800D02*
X62816600Y-95143400D01*
X68074400Y-99207400D02*
X68294400Y-98987400D01*
X62800000Y-93374200D02*
X62800000Y-95126800D01*
X61430278Y-92984400D02*
X62410200Y-92984400D01*
X68294400Y-96979707D02*
X68150600Y-96835907D01*
X62410200Y-92984400D02*
X62800000Y-93374200D01*
X57889000Y-76449000D02*
X59413000Y-77973000D01*
X68294400Y-98987400D02*
X68294400Y-96979707D01*
X59413000Y-90967122D02*
X61430278Y-92984400D01*
%TO.N,/PICO{slash}WR*%
X63934200Y-92643870D02*
X63934200Y-91384200D01*
X63934200Y-91384200D02*
X61699000Y-89149000D01*
X64033102Y-92742772D02*
X63934200Y-92643870D01*
%TO.N,/BUS{slash}GP7*%
X56619000Y-92959000D02*
X57889000Y-91689000D01*
X56619000Y-120060800D02*
X56619000Y-92959000D01*
X64594600Y-123286600D02*
X62207000Y-120899000D01*
X64594600Y-123896200D02*
X64594600Y-123286600D01*
X57457200Y-120899000D02*
X56619000Y-120060800D01*
X62207000Y-120899000D02*
X57457200Y-120899000D01*
%TO.N,/BUS{slash}GP14*%
X66570000Y-83566800D02*
X72417800Y-77719000D01*
X59159000Y-98039000D02*
X63053500Y-98039000D01*
X65712200Y-95380300D02*
X65712200Y-88889200D01*
X57889000Y-96769000D02*
X59159000Y-98039000D01*
X66570000Y-88031400D02*
X66570000Y-83566800D01*
X72417800Y-77719000D02*
X83289000Y-77719000D01*
X65712200Y-88889200D02*
X66570000Y-88031400D01*
X63053500Y-98039000D02*
X65712200Y-95380300D01*
%TO.N,/BUS{slash}GP0*%
X78183600Y-123439000D02*
X83289000Y-123439000D01*
X74881600Y-110180200D02*
X74881600Y-120137000D01*
X74881600Y-120137000D02*
X78183600Y-123439000D01*
X73129000Y-109469000D02*
X74170400Y-109469000D01*
X74170400Y-109469000D02*
X74881600Y-110180200D01*
%TO.N,/BUS{slash}GP11*%
X63070600Y-105659000D02*
X65636000Y-103093600D01*
X67083800Y-91062384D02*
X70470000Y-87676184D01*
X59159000Y-105659000D02*
X63070600Y-105659000D01*
X72163800Y-85339000D02*
X83289000Y-85339000D01*
X70470000Y-87676184D02*
X70470000Y-87523400D01*
X65636000Y-103093600D02*
X65636000Y-99842400D01*
X57889000Y-104389000D02*
X59159000Y-105659000D01*
X70470000Y-87032800D02*
X72163800Y-85339000D01*
X67083800Y-98394600D02*
X67083800Y-91062384D01*
X65636000Y-99842400D02*
X67083800Y-98394600D01*
X70470000Y-87523400D02*
X70470000Y-87032800D01*
%TO.N,/BUS{slash}GP13*%
X67870000Y-88006000D02*
X66169400Y-89706600D01*
X83289000Y-80259000D02*
X72367000Y-80259000D01*
X59184400Y-100604400D02*
X57889000Y-99309000D01*
X66169400Y-89706600D02*
X66169400Y-97505600D01*
X63070600Y-100604400D02*
X59184400Y-100604400D01*
X66169400Y-97505600D02*
X63070600Y-100604400D01*
X67870000Y-84756000D02*
X67870000Y-88006000D01*
X72367000Y-80259000D02*
X67870000Y-84756000D01*
%TO.N,/BUS{slash}GP5*%
X77447000Y-109631000D02*
X77447000Y-98547000D01*
X77447000Y-98547000D02*
X73129000Y-94229000D01*
X78555000Y-110739000D02*
X77539000Y-109723000D01*
X77539000Y-109723000D02*
X77447000Y-109631000D01*
X83289000Y-110739000D02*
X78555000Y-110739000D01*
%TO.N,/BUS{slash}GP10*%
X63070600Y-108249800D02*
X59209800Y-108249800D01*
X70325400Y-96268753D02*
X70182600Y-96125953D01*
X70335000Y-100985400D02*
X63070600Y-108249800D01*
X70182600Y-96125953D02*
X70182600Y-89822300D01*
X70325400Y-96281199D02*
X70335000Y-96290799D01*
X70335000Y-96290799D02*
X70335000Y-100985400D01*
X72125900Y-87879000D02*
X83289000Y-87879000D01*
X70325400Y-96268753D02*
X70325400Y-96281199D01*
X70182600Y-89822300D02*
X72125900Y-87879000D01*
X59209800Y-108249800D02*
X57889000Y-106929000D01*
%TO.N,/BUS{slash}GP2*%
X73383000Y-101595000D02*
X74907000Y-101595000D01*
X73129000Y-101849000D02*
X73383000Y-101595000D01*
X75923000Y-116149200D02*
X78132800Y-118359000D01*
X78132800Y-118359000D02*
X83289000Y-118359000D01*
X75923000Y-102611000D02*
X75923000Y-116149200D01*
X74907000Y-101595000D02*
X75923000Y-102611000D01*
%TO.N,/BUS{slash}GP12*%
X66626600Y-90549400D02*
X69170000Y-88006000D01*
X64747000Y-99817000D02*
X66626600Y-97937400D01*
X69170000Y-88006000D02*
X69171765Y-88004235D01*
X57889000Y-101849000D02*
X59159000Y-103119000D01*
X69171765Y-85943435D02*
X72316200Y-82799000D01*
X63070600Y-103119000D02*
X64747000Y-101442600D01*
X78183600Y-82799000D02*
X83289000Y-82799000D01*
X59159000Y-103119000D02*
X63070600Y-103119000D01*
X64747000Y-101442600D02*
X64747000Y-99817000D01*
X66626600Y-97937400D02*
X66626600Y-90549400D01*
X69171765Y-88004235D02*
X69171765Y-85943435D01*
X72316200Y-82799000D02*
X78183600Y-82799000D01*
%TO.N,/BUS{slash}GP4*%
X76939000Y-100045600D02*
X76939000Y-112288400D01*
X76939000Y-112288400D02*
X77929600Y-113279000D01*
X73129000Y-96769000D02*
X73662400Y-96769000D01*
X77929600Y-113279000D02*
X83289000Y-113279000D01*
X73662400Y-96769000D02*
X76939000Y-100045600D01*
%TO.N,/BUS{slash}GP1*%
X78590000Y-120899000D02*
X83289000Y-120899000D01*
X75415000Y-118130400D02*
X78183600Y-120899000D01*
X74195800Y-106929000D02*
X75415000Y-108148200D01*
X73129000Y-106929000D02*
X74195800Y-106929000D01*
X78183600Y-120899000D02*
X78590000Y-120899000D01*
X75415000Y-108148200D02*
X75415000Y-118130400D01*
%TO.N,/BUS{slash}GP15*%
X78463000Y-75179000D02*
X75923000Y-72639000D01*
X57889000Y-94229000D02*
X59159000Y-95499000D01*
X83289000Y-75179000D02*
X78463000Y-75179000D01*
X63553200Y-96032400D02*
X62816600Y-96032400D01*
X71808200Y-72639000D02*
X65270000Y-79177200D01*
X65270000Y-79177200D02*
X65270000Y-88006000D01*
X65255000Y-88021000D02*
X65255000Y-94330600D01*
X75923000Y-72639000D02*
X71808200Y-72639000D01*
X62816600Y-96032400D02*
X62283200Y-95499000D01*
X59159000Y-95499000D02*
X62283200Y-95499000D01*
X65270000Y-88006000D02*
X65255000Y-88021000D01*
X65255000Y-94330600D02*
X63553200Y-96032400D01*
%TO.N,/BUS{slash}GP9*%
X70843000Y-101366400D02*
X70843000Y-97150000D01*
X57889000Y-109469000D02*
X59159000Y-110739000D01*
X65559800Y-106649600D02*
X70843000Y-101366400D01*
X70970000Y-91146728D02*
X70842272Y-91019000D01*
X70842272Y-91019000D02*
X70842272Y-90953128D01*
X70970000Y-97023000D02*
X70970000Y-91146728D01*
X71376400Y-90419000D02*
X83289000Y-90419000D01*
X63070600Y-110739000D02*
X65559800Y-108249800D01*
X70843000Y-97150000D02*
X70970000Y-97023000D01*
X59159000Y-110739000D02*
X63070600Y-110739000D01*
X70842272Y-90953128D02*
X71376400Y-90419000D01*
X65559800Y-108249800D02*
X65559800Y-106649600D01*
%TO.N,/BUS{slash}GP3*%
X77269200Y-115819000D02*
X83289000Y-115819000D01*
X73129000Y-99309000D02*
X73372657Y-99065343D01*
X76431000Y-114980800D02*
X77269200Y-115819000D01*
X73372657Y-99065343D02*
X74891943Y-99065343D01*
X76431000Y-100604400D02*
X76431000Y-114980800D01*
X74891943Y-99065343D02*
X76431000Y-100604400D01*
%TO.N,/BUS{slash}GP8*%
X71579600Y-97531000D02*
X71579600Y-92959000D01*
X66525000Y-109824600D02*
X66525000Y-106573400D01*
X66525000Y-106573400D02*
X71351000Y-101747400D01*
X71351000Y-97759600D02*
X71579600Y-97531000D01*
X63070600Y-113279000D02*
X66525000Y-109824600D01*
X59159000Y-113279000D02*
X63070600Y-113279000D01*
X57889000Y-112009000D02*
X59159000Y-113279000D01*
X71351000Y-101747400D02*
X71351000Y-97759600D01*
%TO.N,/BUS{slash}GP6*%
X78844000Y-108199000D02*
X83289000Y-108199000D01*
X77955000Y-107310000D02*
X78844000Y-108199000D01*
X69319000Y-122677000D02*
X70335000Y-121661000D01*
X73129000Y-91689000D02*
X77955000Y-96515000D01*
X70335000Y-121661000D02*
X70335000Y-109215000D01*
X77955000Y-96515000D02*
X77955000Y-107310000D01*
%TO.N,/PICO{slash}GP4*%
X74043400Y-110739000D02*
X74196527Y-110892127D01*
X71325600Y-111755000D02*
X72341600Y-110739000D01*
X74196527Y-110892127D02*
X74281600Y-110892127D01*
X72341600Y-110739000D02*
X74043400Y-110739000D01*
%TO.N,/PICO{slash}GP11*%
X74754600Y-85999400D02*
X75364200Y-86609000D01*
X75364200Y-86609000D02*
X79479000Y-86609000D01*
%TO.N,/PICO{slash}GP10*%
X75364200Y-89149000D02*
X79479000Y-89149000D01*
X74741900Y-88526700D02*
X75364200Y-89149000D01*
%TO.N,/PICO{slash}GP12*%
X74741900Y-83446700D02*
X75364200Y-84069000D01*
X75364200Y-84069000D02*
X79479000Y-84069000D01*
%TO.N,/PICO{slash}GP6*%
X68557000Y-121915000D02*
X69573000Y-120899000D01*
X69573000Y-120899000D02*
X69573000Y-105405000D01*
X73891000Y-103119000D02*
X74653000Y-102357000D01*
X71859000Y-103119000D02*
X73891000Y-103119000D01*
X69573000Y-105405000D02*
X71859000Y-103119000D01*
%TO.N,/PICO{slash}GP7*%
X71859000Y-102357000D02*
X70157200Y-104058800D01*
X74653000Y-99817000D02*
X73891000Y-100579000D01*
X68811000Y-109469000D02*
X68811000Y-120619600D01*
X73129000Y-100579000D02*
X72646400Y-100579000D01*
X68811000Y-105405000D02*
X68811000Y-109469000D01*
X72646400Y-100579000D02*
X71859000Y-101366400D01*
X73891000Y-100579000D02*
X73129000Y-100579000D01*
X68811000Y-120619600D02*
X67795000Y-121635600D01*
X70157200Y-104058800D02*
X68811000Y-105405000D01*
X71859000Y-101366400D02*
X71859000Y-102357000D01*
%TO.N,/PICO{slash}GP9*%
X74729200Y-91054000D02*
X77904200Y-94229000D01*
X77904200Y-94229000D02*
X79479000Y-94229000D01*
%TO.N,/PICO{slash}GP13*%
X74729200Y-80894000D02*
X75364200Y-81529000D01*
X75364200Y-81529000D02*
X79479000Y-81529000D01*
%TO.N,/PICO{slash}GP15*%
X64467600Y-83916600D02*
X64340600Y-83789600D01*
X64340600Y-83789600D02*
X64340600Y-78811200D01*
X64340600Y-78811200D02*
X71537704Y-71614096D01*
X71537704Y-71614096D02*
X77184096Y-71614096D01*
X77184096Y-71614096D02*
X79479000Y-73909000D01*
%TO.N,/PICO{slash}GP14*%
X75110200Y-75179000D02*
X72113000Y-75179000D01*
X76380200Y-76449000D02*
X75110200Y-75179000D01*
X79479000Y-76449000D02*
X76380200Y-76449000D01*
X72113000Y-75179000D02*
X66093200Y-81198800D01*
%TO.N,/PICO{slash}GP5*%
X72341600Y-108199000D02*
X74043400Y-108199000D01*
X71325600Y-109215000D02*
X72341600Y-108199000D01*
%TO.N,/BUS{slash}ALE*%
X59794000Y-118359000D02*
X65255000Y-118359000D01*
X59667000Y-118232000D02*
X59794000Y-118359000D01*
%TO.N,/PICO{slash}NOP_EN*%
X65890000Y-69591000D02*
X65864600Y-69616400D01*
X65890000Y-72258000D02*
X61699000Y-76449000D01*
X65890000Y-69591000D02*
X65890000Y-72258000D01*
X65864600Y-69616400D02*
X65864600Y-69743400D01*
%TO.N,/PICO{slash}PSEN*%
X61699000Y-86609000D02*
X63912027Y-88822027D01*
X69725400Y-90651076D02*
X69569417Y-90495093D01*
X69725400Y-100680600D02*
X69725400Y-90651076D01*
X63912027Y-88822027D02*
X63912027Y-90513500D01*
X66004300Y-104401700D02*
X69725400Y-100680600D01*
%TO.N,/PICO{slash}ALE*%
X64655000Y-90942800D02*
X64594600Y-90882400D01*
X69268200Y-100248800D02*
X69268200Y-91482573D01*
X66715500Y-102801500D02*
X69268200Y-100248800D01*
X69268200Y-91482573D02*
X68899127Y-91113500D01*
X64594600Y-90882400D02*
X64594600Y-86964600D01*
X64594600Y-86964600D02*
X61699000Y-84069000D01*
%TO.N,/PICO{slash}BUS_EN*%
X64639071Y-92986746D02*
X64639071Y-92143800D01*
X68037137Y-120047263D02*
X68037137Y-107398063D01*
X71605000Y-87557684D02*
X67541000Y-91621684D01*
X63934200Y-127452200D02*
X63959600Y-127426800D01*
X63803217Y-93822600D02*
X64639071Y-92986746D01*
X59032000Y-127452200D02*
X63934200Y-127452200D01*
X71605000Y-87472600D02*
X71605000Y-87557684D01*
X66677400Y-101569600D02*
X66677400Y-99754457D01*
X55984000Y-94559200D02*
X55984000Y-94686200D01*
X66982200Y-121102200D02*
X68037137Y-120047263D01*
X63400000Y-93822600D02*
X63803217Y-93822600D01*
X55984000Y-124404200D02*
X59032000Y-127452200D01*
X55984000Y-80843200D02*
X55984000Y-94559200D01*
X68037137Y-107398063D02*
X68150600Y-107284600D01*
X55984000Y-94559200D02*
X55984000Y-124404200D01*
X58574800Y-80233600D02*
X56593600Y-80233600D01*
X66677400Y-99754457D02*
X67541000Y-98890857D01*
X67541000Y-98890857D02*
X67541000Y-92400200D01*
X67674200Y-92400200D02*
X67683800Y-92390600D01*
X63934200Y-127426800D02*
X63959600Y-127426800D01*
X67541000Y-91621684D02*
X67541000Y-92400200D01*
X56593600Y-80233600D02*
X55984000Y-80843200D01*
X67541000Y-92400200D02*
X67674200Y-92400200D01*
%TD*%
M02*
