M48
; DRILL file {KiCad 9.0.3-9.0.3-0~ubuntu24.04.1} date 2025-09-06T02:21:12+0200
; FORMAT={-:-/ absolute / inch / decimal}
; #@! TF.CreationDate,2025-09-06T02:21:12+02:00
; #@! TF.GenerationSoftware,Kicad,Pcbnew,9.0.3-9.0.3-0~ubuntu24.04.1
; #@! TF.FileFunction,Plated,1,2,PTH
FMAT,2
INCH
; #@! TA.AperFunction,Plated,PTH,ViaDrill
T1C0.0118
; #@! TA.AperFunction,Plated,PTH,ComponentDrill
T2C0.0394
%
G90
G05
T1
X2.3061Y-3.1588
X2.3491Y-4.6548
X2.3627Y-3.5558
X2.4731Y-3.7458
X2.4931Y-3.6348
X2.4961Y-3.6938
X2.5162Y-3.5635
X2.5181Y-5.0168
X2.521Y-3.6513
X2.5381Y-3.3038
X2.5431Y-4.8778
X2.5448Y-3.6277
X2.5455Y-3.5804
X2.5691Y-4.6598
X2.5697Y-3.4648
X2.5941Y-2.7398
X2.5986Y-4.1103
X2.6021Y-3.1968
X2.6209Y-3.4658
X2.6251Y-3.9988
X2.6266Y-4.0473
X2.6371Y-4.7678
X2.6441Y-2.7398
X2.6647Y-3.6374
X2.6691Y-4.7888
X2.672Y-3.4648
X2.6731Y-3.9498
X2.6801Y-3.9058
X2.6831Y-3.8124
X2.6831Y-4.2238
X2.6891Y-3.6134
X2.6981Y-2.7398
X2.6991Y-2.7798
X2.6991Y-4.7998
X2.7126Y-3.5871
X2.7232Y-3.4648
X2.7291Y-4.8298
X2.739Y-3.5628
X2.7687Y-3.7901
X2.7691Y-4.2998
X2.7744Y-3.4458
X2.7891Y-3.5834
X2.8081Y-4.2998
X2.8081Y-4.3998
X2.8161Y-4.9378
X2.8181Y-3.6598
X2.8191Y-3.4438
X2.9245Y-4.2658
X2.9245Y-4.3658
X2.9391Y-3.9298
X2.9391Y-4.0298
X2.9421Y-3.1848
X2.9421Y-3.5848
X2.9426Y-3.2853
X2.9426Y-3.4853
X2.9431Y-3.3858
X3.0411Y-3.4598
X3.0411Y-3.5598
X3.0421Y-4.5598
X3.0461Y-3.3598
X3.0527Y-4.3198
X3.0681Y-4.4598
X3.0727Y-4.2188
X3.0781Y-3.2598
X3.0801Y-4.6618
X3.0941Y-4.7598
X3.1261Y-4.8678
X3.1641Y-4.1598
X3.1991Y-3.8598
X3.2801Y-3.8598
T2
X2.2791Y-2.9098
X2.2791Y-3.0098
X2.2791Y-3.1098
X2.2791Y-3.2098
X2.2791Y-3.3098
X2.2791Y-3.4098
X2.2791Y-3.5098
X2.2791Y-3.6098
X2.2791Y-3.7098
X2.2791Y-3.8098
X2.2791Y-3.9098
X2.2791Y-4.0098
X2.2791Y-4.1098
X2.2791Y-4.2098
X2.2791Y-4.3098
X2.2791Y-4.4098
X2.2791Y-4.5098
X2.2791Y-4.6098
X2.2791Y-4.7098
X2.2791Y-4.8098
X2.3881Y-4.9678
X2.3881Y-5.0678
X2.4291Y-2.9098
X2.4291Y-3.0098
X2.4291Y-3.1098
X2.4291Y-3.2098
X2.4291Y-3.3098
X2.4291Y-3.4098
X2.4291Y-3.5098
X2.4291Y-3.6098
X2.4291Y-3.7098
X2.4291Y-3.8098
X2.4291Y-3.9098
X2.4291Y-4.0098
X2.4291Y-4.1098
X2.4291Y-4.2098
X2.4291Y-4.3098
X2.4291Y-4.4098
X2.4291Y-4.5098
X2.4291Y-4.6098
X2.4291Y-4.7098
X2.4291Y-4.8098
X2.8791Y-2.9098
X2.8791Y-3.0098
X2.8791Y-3.1098
X2.8791Y-3.2098
X2.8791Y-3.3098
X2.8791Y-3.4098
X2.8791Y-3.5098
X2.8791Y-3.6098
X2.8791Y-3.7098
X2.8791Y-3.8098
X2.8791Y-3.9098
X2.8791Y-4.0098
X2.8791Y-4.1098
X2.8791Y-4.2098
X2.8791Y-4.3098
X2.8791Y-4.4098
X2.8791Y-4.5098
X2.8791Y-4.6098
X2.8791Y-4.7098
X2.8791Y-4.8098
X3.1291Y-2.9098
X3.1291Y-3.0098
X3.1291Y-3.1098
X3.1291Y-3.2098
X3.1291Y-3.3098
X3.1291Y-3.4098
X3.1291Y-3.5098
X3.1291Y-3.6098
X3.1291Y-3.7098
X3.1291Y-3.8098
X3.1291Y-3.9098
X3.1291Y-4.0098
X3.1291Y-4.1098
X3.1291Y-4.2098
X3.1291Y-4.3098
X3.1291Y-4.4098
X3.1291Y-4.5098
X3.1291Y-4.6098
X3.1291Y-4.7098
X3.1291Y-4.8098
X3.2791Y-2.7598
X3.2791Y-2.8598
X3.2791Y-2.9598
X3.2791Y-3.0598
X3.2791Y-3.1598
X3.2791Y-3.2598
X3.2791Y-3.3598
X3.2791Y-3.4598
X3.2791Y-3.5598
X3.2791Y-3.6598
X3.2791Y-3.9598
X3.2791Y-4.0598
X3.2791Y-4.1598
X3.2791Y-4.2598
X3.2791Y-4.3598
X3.2791Y-4.4598
X3.2791Y-4.5598
X3.2791Y-4.6598
X3.2791Y-4.7598
X3.2791Y-4.8598
X3.2791Y-4.9598
X3.2791Y-5.0598
M30
