%TF.GenerationSoftware,KiCad,Pcbnew,9.0.3-9.0.3-0~ubuntu24.04.1*%
%TF.CreationDate,2025-09-06T02:21:12+02:00*%
%TF.ProjectId,board_nfz330_nfz400,626f6172-645f-46e6-967a-3333305f6e66,rev?*%
%TF.SameCoordinates,Original*%
%TF.FileFunction,Copper,L1,Top*%
%TF.FilePolarity,Positive*%
%FSLAX46Y46*%
G04 Gerber Fmt 4.6, Leading zero omitted, Abs format (unit mm)*
G04 Created by KiCad (PCBNEW 9.0.3-9.0.3-0~ubuntu24.04.1) date 2025-09-06 02:21:12*
%MOMM*%
%LPD*%
G01*
G04 APERTURE LIST*
G04 Aperture macros list*
%AMRoundRect*
0 Rectangle with rounded corners*
0 $1 Rounding radius*
0 $2 $3 $4 $5 $6 $7 $8 $9 X,Y pos of 4 corners*
0 Add a 4 corners polygon primitive as box body*
4,1,4,$2,$3,$4,$5,$6,$7,$8,$9,$2,$3,0*
0 Add four circle primitives for the rounded corners*
1,1,$1+$1,$2,$3*
1,1,$1+$1,$4,$5*
1,1,$1+$1,$6,$7*
1,1,$1+$1,$8,$9*
0 Add four rect primitives between the rounded corners*
20,1,$1+$1,$2,$3,$4,$5,0*
20,1,$1+$1,$4,$5,$6,$7,0*
20,1,$1+$1,$6,$7,$8,$9,0*
20,1,$1+$1,$8,$9,$2,$3,0*%
%AMFreePoly0*
4,1,37,0.603843,0.796157,0.639018,0.796157,0.711114,0.766294,0.766294,0.711114,0.796157,0.639018,0.796157,0.603843,0.800000,0.600000,0.800000,-0.600000,0.796157,-0.603843,0.796157,-0.639018,0.766294,-0.711114,0.711114,-0.766294,0.639018,-0.796157,0.603843,-0.796157,0.600000,-0.800000,0.000000,-0.800000,0.000000,-0.796148,-0.078414,-0.796148,-0.232228,-0.765552,-0.377117,-0.705537,
-0.507515,-0.618408,-0.618408,-0.507515,-0.705537,-0.377117,-0.765552,-0.232228,-0.796148,-0.078414,-0.796148,0.078414,-0.765552,0.232228,-0.705537,0.377117,-0.618408,0.507515,-0.507515,0.618408,-0.377117,0.705537,-0.232228,0.765552,-0.078414,0.796148,0.000000,0.796148,0.000000,0.800000,0.600000,0.800000,0.603843,0.796157,0.603843,0.796157,$1*%
%AMFreePoly1*
4,1,37,0.000000,0.796148,0.078414,0.796148,0.232228,0.765552,0.377117,0.705537,0.507515,0.618408,0.618408,0.507515,0.705537,0.377117,0.765552,0.232228,0.796148,0.078414,0.796148,-0.078414,0.765552,-0.232228,0.705537,-0.377117,0.618408,-0.507515,0.507515,-0.618408,0.377117,-0.705537,0.232228,-0.765552,0.078414,-0.796148,0.000000,-0.796148,0.000000,-0.800000,-0.600000,-0.800000,
-0.603843,-0.796157,-0.639018,-0.796157,-0.711114,-0.766294,-0.766294,-0.711114,-0.796157,-0.639018,-0.796157,-0.603843,-0.800000,-0.600000,-0.800000,0.600000,-0.796157,0.603843,-0.796157,0.639018,-0.766294,0.711114,-0.711114,0.766294,-0.639018,0.796157,-0.603843,0.796157,-0.600000,0.800000,0.000000,0.800000,0.000000,0.796148,0.000000,0.796148,$1*%
G04 Aperture macros list end*
%TA.AperFunction,SMDPad,CuDef*%
%ADD10RoundRect,0.135000X0.185000X-0.135000X0.185000X0.135000X-0.185000X0.135000X-0.185000X-0.135000X0*%
%TD*%
%TA.AperFunction,ComponentPad*%
%ADD11RoundRect,0.200000X0.600000X0.600000X-0.600000X0.600000X-0.600000X-0.600000X0.600000X-0.600000X0*%
%TD*%
%TA.AperFunction,ComponentPad*%
%ADD12C,1.600000*%
%TD*%
%TA.AperFunction,ComponentPad*%
%ADD13FreePoly0,180.000000*%
%TD*%
%TA.AperFunction,ComponentPad*%
%ADD14FreePoly1,180.000000*%
%TD*%
%TA.AperFunction,SMDPad,CuDef*%
%ADD15RoundRect,0.200000X0.275000X-0.200000X0.275000X0.200000X-0.275000X0.200000X-0.275000X-0.200000X0*%
%TD*%
%TA.AperFunction,SMDPad,CuDef*%
%ADD16RoundRect,0.100000X0.100000X-0.637500X0.100000X0.637500X-0.100000X0.637500X-0.100000X-0.637500X0*%
%TD*%
%TA.AperFunction,ComponentPad*%
%ADD17R,1.700000X1.700000*%
%TD*%
%TA.AperFunction,ComponentPad*%
%ADD18C,1.700000*%
%TD*%
%TA.AperFunction,SMDPad,CuDef*%
%ADD19RoundRect,0.225000X0.250000X-0.225000X0.250000X0.225000X-0.250000X0.225000X-0.250000X-0.225000X0*%
%TD*%
%TA.AperFunction,SMDPad,CuDef*%
%ADD20RoundRect,0.135000X-0.135000X-0.185000X0.135000X-0.185000X0.135000X0.185000X-0.135000X0.185000X0*%
%TD*%
%TA.AperFunction,SMDPad,CuDef*%
%ADD21RoundRect,0.112500X-0.112500X0.187500X-0.112500X-0.187500X0.112500X-0.187500X0.112500X0.187500X0*%
%TD*%
%TA.AperFunction,SMDPad,CuDef*%
%ADD22RoundRect,0.100000X-0.637500X-0.100000X0.637500X-0.100000X0.637500X0.100000X-0.637500X0.100000X0*%
%TD*%
%TA.AperFunction,SMDPad,CuDef*%
%ADD23RoundRect,0.225000X-0.250000X0.225000X-0.250000X-0.225000X0.250000X-0.225000X0.250000X0.225000X0*%
%TD*%
%TA.AperFunction,SMDPad,CuDef*%
%ADD24RoundRect,0.135000X-0.185000X0.135000X-0.185000X-0.135000X0.185000X-0.135000X0.185000X0.135000X0*%
%TD*%
%TA.AperFunction,ViaPad*%
%ADD25C,0.600000*%
%TD*%
%TA.AperFunction,Conductor*%
%ADD26C,0.400000*%
%TD*%
%TA.AperFunction,Conductor*%
%ADD27C,0.500000*%
%TD*%
%TA.AperFunction,Conductor*%
%ADD28C,0.200000*%
%TD*%
G04 APERTURE END LIST*
D10*
%TO.P,R8,1*%
%TO.N,/BUS{slash}GP8*%
X76583400Y-92783200D03*
%TO.P,R8,2*%
%TO.N,Net-(U1-Y8)*%
X76583400Y-91763200D03*
%TD*%
D11*
%TO.P,J3,1,GPIO0*%
%TO.N,/PICO{slash}GP0*%
X79479000Y-122169000D03*
D12*
%TO.P,J3,2,GPIO1*%
%TO.N,/PICO{slash}GP1*%
X79479000Y-119629000D03*
D13*
%TO.P,J3,3,GND*%
%TO.N,GND*%
X79479000Y-117089000D03*
D12*
%TO.P,J3,4,GPIO2*%
%TO.N,/PICO{slash}GP2*%
X79479000Y-114549000D03*
%TO.P,J3,5,GPIO3*%
%TO.N,/PICO{slash}GP3*%
X79479000Y-112009000D03*
%TO.P,J3,6,GPIO4*%
%TO.N,/PICO{slash}GP4*%
X79479000Y-109469000D03*
%TO.P,J3,7,GPIO5*%
%TO.N,/PICO{slash}GP5*%
X79479000Y-106929000D03*
D13*
%TO.P,J3,8,GND*%
%TO.N,GND*%
X79479000Y-104389000D03*
D12*
%TO.P,J3,9,GPIO6*%
%TO.N,/PICO{slash}GP6*%
X79479000Y-101849000D03*
%TO.P,J3,10,GPIO7*%
%TO.N,/PICO{slash}GP7*%
X79479000Y-99309000D03*
%TO.P,J3,11,GPIO8*%
%TO.N,/PICO{slash}GP8*%
X79479000Y-96769000D03*
%TO.P,J3,12,GPIO9*%
%TO.N,/PICO{slash}GP9*%
X79479000Y-94229000D03*
D13*
%TO.P,J3,13,GND*%
%TO.N,GND*%
X79479000Y-91689000D03*
D12*
%TO.P,J3,14,GPIO10*%
%TO.N,/PICO{slash}GP10*%
X79479000Y-89149000D03*
%TO.P,J3,15,GPIO11*%
%TO.N,/PICO{slash}GP11*%
X79479000Y-86609000D03*
%TO.P,J3,16,GPIO12*%
%TO.N,/PICO{slash}GP12*%
X79479000Y-84069000D03*
%TO.P,J3,17,GPIO13*%
%TO.N,/PICO{slash}GP13*%
X79479000Y-81529000D03*
D13*
%TO.P,J3,18,GND*%
%TO.N,GND*%
X79479000Y-78989000D03*
D12*
%TO.P,J3,19,GPIO14*%
%TO.N,/PICO{slash}GP14*%
X79479000Y-76449000D03*
%TO.P,J3,20,GPIO15*%
%TO.N,/PICO{slash}GP15*%
X79479000Y-73909000D03*
%TO.P,J3,21,GPIO16*%
%TO.N,unconnected-(J3-GPIO16-Pad21)*%
X61699000Y-73909000D03*
%TO.P,J3,22,GPIO17*%
%TO.N,/PICO{slash}NOP_EN*%
X61699000Y-76449000D03*
D14*
%TO.P,J3,23,GND*%
%TO.N,GND*%
X61699000Y-78989000D03*
D12*
%TO.P,J3,24,GPIO18*%
%TO.N,/PICO{slash}BUS_EN*%
X61699000Y-81529000D03*
%TO.P,J3,25,GPIO19*%
%TO.N,/PICO{slash}ALE*%
X61699000Y-84069000D03*
%TO.P,J3,26,GPIO20*%
%TO.N,/PICO{slash}PSEN*%
X61699000Y-86609000D03*
%TO.P,J3,27,GPIO21*%
%TO.N,/PICO{slash}WR*%
X61699000Y-89149000D03*
D14*
%TO.P,J3,28,GND*%
%TO.N,GND*%
X61699000Y-91689000D03*
D12*
%TO.P,J3,29,GPIO22*%
%TO.N,/PICO{slash}RD*%
X61699000Y-94229000D03*
%TO.P,J3,30,RUN*%
%TO.N,unconnected-(J3-RUN-Pad30)*%
X61699000Y-96769000D03*
%TO.P,J3,31,GPIO26/ADC0*%
%TO.N,unconnected-(J3-GPIO26{slash}ADC0-Pad31)*%
X61699000Y-99309000D03*
%TO.P,J3,32,GPIO27/ADC1*%
%TO.N,unconnected-(J3-GPIO27{slash}ADC1-Pad32)*%
X61699000Y-101849000D03*
D14*
%TO.P,J3,33,AGND*%
%TO.N,GND*%
X61699000Y-104389000D03*
D12*
%TO.P,J3,34,GPIO28/ADC2*%
%TO.N,unconnected-(J3-GPIO28{slash}ADC2-Pad34)*%
X61699000Y-106929000D03*
%TO.P,J3,35,ADC_VREF*%
%TO.N,unconnected-(J3-ADC_VREF-Pad35)*%
X61699000Y-109469000D03*
%TO.P,J3,36,3V3*%
%TO.N,+3V3*%
X61699000Y-112009000D03*
%TO.P,J3,37,3V3_EN*%
%TO.N,unconnected-(J3-3V3_EN-Pad37)*%
X61699000Y-114549000D03*
D14*
%TO.P,J3,38,GND*%
%TO.N,GND*%
X61699000Y-117089000D03*
D12*
%TO.P,J3,39,VSYS*%
%TO.N,Net-(D1-K)*%
X61699000Y-119629000D03*
%TO.P,J3,40,VBUS*%
%TO.N,unconnected-(J3-VBUS-Pad40)*%
X61699000Y-122169000D03*
%TD*%
D15*
%TO.P,R9,1*%
%TO.N,/PICO{slash}NOP_EN*%
X59260600Y-71432000D03*
%TO.P,R9,2*%
%TO.N,GND*%
X59260600Y-69782000D03*
%TD*%
D16*
%TO.P,U3,1,~{1OE}*%
%TO.N,/PICO{slash}BUS_EN*%
X63970000Y-125481000D03*
%TO.P,U3,2,1B1*%
%TO.N,/BUS{slash}GP7*%
X64620000Y-125481000D03*
%TO.P,U3,3,1A1*%
%TO.N,/PICO{slash}GP7*%
X65270000Y-125481000D03*
%TO.P,U3,4,1A2*%
%TO.N,/PICO{slash}GP6*%
X65920000Y-125481000D03*
%TO.P,U3,5,1B2*%
%TO.N,/BUS{slash}GP6*%
X66570000Y-125481000D03*
%TO.P,U3,6,1B3*%
%TO.N,/BUS{slash}GP0*%
X67220000Y-125481000D03*
%TO.P,U3,7,1A3*%
%TO.N,/PICO{slash}GP0*%
X67870000Y-125481000D03*
%TO.P,U3,8,1A4*%
%TO.N,/BUS{slash}GP1*%
X68520000Y-125481000D03*
%TO.P,U3,9,1B4*%
%TO.N,/PICO{slash}GP1*%
X69170000Y-125481000D03*
%TO.P,U3,10,1B5*%
%TO.N,/BUS{slash}GP2*%
X69820000Y-125481000D03*
%TO.P,U3,11,1A5*%
%TO.N,/PICO{slash}GP2*%
X70470000Y-125481000D03*
%TO.P,U3,12,GND*%
%TO.N,GND*%
X71120000Y-125481000D03*
%TO.P,U3,13,~{2OE}*%
%TO.N,/PICO{slash}BUS_EN*%
X71120000Y-119756000D03*
%TO.P,U3,14,2A1*%
%TO.N,/BUS{slash}GP3*%
X70470000Y-119756000D03*
%TO.P,U3,15,2B1*%
%TO.N,/PICO{slash}GP3*%
X69820000Y-119756000D03*
%TO.P,U3,16,2B2*%
%TO.N,/BUS{slash}GP4*%
X69170000Y-119756000D03*
%TO.P,U3,17,2A2*%
%TO.N,/PICO{slash}GP4*%
X68520000Y-119756000D03*
%TO.P,U3,18,2A3*%
%TO.N,/BUS{slash}GP5*%
X67870000Y-119756000D03*
%TO.P,U3,19,2B3*%
%TO.N,/PICO{slash}GP5*%
X67220000Y-119756000D03*
%TO.P,U3,20,2B4*%
%TO.N,/BUS{slash}PSEN*%
X66570000Y-119756000D03*
%TO.P,U3,21,2A4*%
%TO.N,/PICO{slash}PSEN*%
X65920000Y-119756000D03*
%TO.P,U3,22,2A5*%
%TO.N,/BUS{slash}ALE*%
X65270000Y-119756000D03*
%TO.P,U3,23,2B5*%
%TO.N,/PICO{slash}ALE*%
X64620000Y-119756000D03*
%TO.P,U3,24,VCC*%
%TO.N,+3V3*%
X63970000Y-119756000D03*
%TD*%
D10*
%TO.P,R6,1*%
%TO.N,/BUS{slash}GP10*%
X76583400Y-86941200D03*
%TO.P,R6,2*%
%TO.N,Net-(U1-Y6)*%
X76583400Y-85921200D03*
%TD*%
D17*
%TO.P,J1,B1,ALE*%
%TO.N,/BUS{slash}ALE*%
X83289000Y-100579000D03*
D18*
%TO.P,J1,B2,~{PSEN}*%
%TO.N,/BUS{slash}PSEN*%
X83289000Y-103119000D03*
%TO.P,J1,B3,A15*%
%TO.N,/BUS{slash}GP7*%
X83289000Y-105659000D03*
%TO.P,J1,B4,A14*%
%TO.N,/BUS{slash}GP6*%
X83289000Y-108199000D03*
%TO.P,J1,B5,A13*%
%TO.N,/BUS{slash}GP5*%
X83289000Y-110739000D03*
%TO.P,J1,B6,A12*%
%TO.N,/BUS{slash}GP4*%
X83289000Y-113279000D03*
%TO.P,J1,B7,A11*%
%TO.N,/BUS{slash}GP3*%
X83289000Y-115819000D03*
%TO.P,J1,B8,A10*%
%TO.N,/BUS{slash}GP2*%
X83289000Y-118359000D03*
%TO.P,J1,B9,A9*%
%TO.N,/BUS{slash}GP1*%
X83289000Y-120899000D03*
%TO.P,J1,B10,A8*%
%TO.N,/BUS{slash}GP0*%
X83289000Y-123439000D03*
%TO.P,J1,B11,~{RD}*%
%TO.N,/BUS{slash}RD*%
X83289000Y-125979000D03*
%TO.P,J1,B12,~{WR}*%
%TO.N,/BUS{slash}WR*%
X83289000Y-128519000D03*
D17*
%TO.P,J1,T1,GND*%
%TO.N,GND*%
X83289000Y-70099000D03*
D18*
%TO.P,J1,T2,5V*%
%TO.N,+5V*%
X83289000Y-72639000D03*
%TO.P,J1,T3,AD0*%
%TO.N,/BUS{slash}GP15*%
X83289000Y-75179000D03*
%TO.P,J1,T4,AD1*%
%TO.N,/BUS{slash}GP14*%
X83289000Y-77719000D03*
%TO.P,J1,T5,AD2*%
%TO.N,/BUS{slash}GP13*%
X83289000Y-80259000D03*
%TO.P,J1,T6,AD3*%
%TO.N,/BUS{slash}GP12*%
X83289000Y-82799000D03*
%TO.P,J1,T7,AD4*%
%TO.N,/BUS{slash}GP11*%
X83289000Y-85339000D03*
%TO.P,J1,T8,AD5*%
%TO.N,/BUS{slash}GP10*%
X83289000Y-87879000D03*
%TO.P,J1,T9,AD6*%
%TO.N,/BUS{slash}GP9*%
X83289000Y-90419000D03*
%TO.P,J1,T10,AD7*%
%TO.N,/BUS{slash}GP8*%
X83289000Y-92959000D03*
%TD*%
D19*
%TO.P,C3,1*%
%TO.N,+3V3*%
X64391400Y-112149000D03*
%TO.P,C3,2*%
%TO.N,GND*%
X64391400Y-110599000D03*
%TD*%
D20*
%TO.P,R2,1*%
%TO.N,Net-(U1-Y2)*%
X78943600Y-70276800D03*
%TO.P,R2,2*%
%TO.N,/BUS{slash}GP14*%
X79963600Y-70276800D03*
%TD*%
D10*
%TO.P,R5,1*%
%TO.N,/BUS{slash}GP11*%
X77015200Y-84375800D03*
%TO.P,R5,2*%
%TO.N,Net-(U1-Y5)*%
X77015200Y-83355800D03*
%TD*%
D21*
%TO.P,D1,1,K*%
%TO.N,Net-(D1-K)*%
X57609600Y-124929000D03*
%TO.P,D1,2,A*%
%TO.N,+5V*%
X57609600Y-127029000D03*
%TD*%
D22*
%TO.P,U1,1,~{OE1}*%
%TO.N,/PICO{slash}NOP_EN*%
X64485000Y-69282200D03*
%TO.P,U1,2,A1*%
%TO.N,GND*%
X64485000Y-69932200D03*
%TO.P,U1,3,A2*%
X64485000Y-70582200D03*
%TO.P,U1,4,A3*%
X64485000Y-71232200D03*
%TO.P,U1,5,A4*%
X64485000Y-71882200D03*
%TO.P,U1,6,A5*%
X64485000Y-72532200D03*
%TO.P,U1,7,A6*%
X64485000Y-73182200D03*
%TO.P,U1,8,A7*%
X64485000Y-73832200D03*
%TO.P,U1,9,A8*%
X64485000Y-74482200D03*
%TO.P,U1,10,GND*%
X64485000Y-75132200D03*
%TO.P,U1,11,Y8*%
%TO.N,Net-(U1-Y8)*%
X70210000Y-75132200D03*
%TO.P,U1,12,Y7*%
%TO.N,Net-(U1-Y7)*%
X70210000Y-74482200D03*
%TO.P,U1,13,Y6*%
%TO.N,Net-(U1-Y6)*%
X70210000Y-73832200D03*
%TO.P,U1,14,Y5*%
%TO.N,Net-(U1-Y5)*%
X70210000Y-73182200D03*
%TO.P,U1,15,Y4*%
%TO.N,Net-(U1-Y4)*%
X70210000Y-72532200D03*
%TO.P,U1,16,Y3*%
%TO.N,Net-(U1-Y3)*%
X70210000Y-71882200D03*
%TO.P,U1,17,Y2*%
%TO.N,Net-(U1-Y2)*%
X70210000Y-71232200D03*
%TO.P,U1,18,Y1*%
%TO.N,Net-(U1-Y1)*%
X70210000Y-70582200D03*
%TO.P,U1,19,~{OE2}*%
%TO.N,/BUS{slash}PSEN*%
X70210000Y-69932200D03*
%TO.P,U1,20,VCC*%
%TO.N,+5V*%
X70210000Y-69282200D03*
%TD*%
D10*
%TO.P,R7,1*%
%TO.N,/BUS{slash}GP9*%
X76583400Y-89481200D03*
%TO.P,R7,2*%
%TO.N,Net-(U1-Y7)*%
X76583400Y-88461200D03*
%TD*%
D17*
%TO.P,J4,1,Pin_1*%
%TO.N,GND*%
X60657600Y-126182200D03*
D18*
%TO.P,J4,2,Pin_2*%
X60657600Y-128722200D03*
%TD*%
D23*
%TO.P,C1,1*%
%TO.N,+5V*%
X60759200Y-68841400D03*
%TO.P,C1,2*%
%TO.N,GND*%
X60759200Y-70391400D03*
%TD*%
D20*
%TO.P,R3,1*%
%TO.N,Net-(U1-Y3)*%
X78943600Y-71267400D03*
%TO.P,R3,2*%
%TO.N,/BUS{slash}GP13*%
X79963600Y-71267400D03*
%TD*%
%TO.P,R1,1*%
%TO.N,Net-(U1-Y1)*%
X78943600Y-69260800D03*
%TO.P,R1,2*%
%TO.N,/BUS{slash}GP15*%
X79963600Y-69260800D03*
%TD*%
D23*
%TO.P,C2,1*%
%TO.N,+5V*%
X62257800Y-68841400D03*
%TO.P,C2,2*%
%TO.N,GND*%
X62257800Y-70391400D03*
%TD*%
D16*
%TO.P,U2,1,~{1OE}*%
%TO.N,/PICO{slash}BUS_EN*%
X63970000Y-95001000D03*
%TO.P,U2,2,1B1*%
%TO.N,/BUS{slash}WR*%
X64620000Y-95001000D03*
%TO.P,U2,3,1A1*%
%TO.N,/PICO{slash}WR*%
X65270000Y-95001000D03*
%TO.P,U2,4,1A2*%
%TO.N,/PICO{slash}RD*%
X65920000Y-95001000D03*
%TO.P,U2,5,1B2*%
%TO.N,/BUS{slash}RD*%
X66570000Y-95001000D03*
%TO.P,U2,6,1B3*%
%TO.N,/BUS{slash}GP10*%
X67220000Y-95001000D03*
%TO.P,U2,7,1A3*%
%TO.N,/PICO{slash}GP10*%
X67870000Y-95001000D03*
%TO.P,U2,8,1A4*%
%TO.N,/BUS{slash}GP9*%
X68520000Y-95001000D03*
%TO.P,U2,9,1B4*%
%TO.N,/PICO{slash}GP9*%
X69170000Y-95001000D03*
%TO.P,U2,10,1B5*%
%TO.N,/BUS{slash}GP8*%
X69820000Y-95001000D03*
%TO.P,U2,11,1A5*%
%TO.N,/PICO{slash}GP8*%
X70470000Y-95001000D03*
%TO.P,U2,12,GND*%
%TO.N,GND*%
X71120000Y-95001000D03*
%TO.P,U2,13,~{2OE}*%
%TO.N,/PICO{slash}BUS_EN*%
X71120000Y-89276000D03*
%TO.P,U2,14,2A1*%
%TO.N,/BUS{slash}GP11*%
X70470000Y-89276000D03*
%TO.P,U2,15,2B1*%
%TO.N,/PICO{slash}GP11*%
X69820000Y-89276000D03*
%TO.P,U2,16,2B2*%
%TO.N,/BUS{slash}GP12*%
X69170000Y-89276000D03*
%TO.P,U2,17,2A2*%
%TO.N,/PICO{slash}GP12*%
X68520000Y-89276000D03*
%TO.P,U2,18,2A3*%
%TO.N,/BUS{slash}GP13*%
X67870000Y-89276000D03*
%TO.P,U2,19,2B3*%
%TO.N,/PICO{slash}GP13*%
X67220000Y-89276000D03*
%TO.P,U2,20,2B4*%
%TO.N,/BUS{slash}GP14*%
X66570000Y-89276000D03*
%TO.P,U2,21,2A4*%
%TO.N,/PICO{slash}GP14*%
X65920000Y-89276000D03*
%TO.P,U2,22,2A5*%
%TO.N,/BUS{slash}GP15*%
X65270000Y-89276000D03*
%TO.P,U2,23,2B5*%
%TO.N,/PICO{slash}GP15*%
X64620000Y-89276000D03*
%TO.P,U2,24,VCC*%
%TO.N,+3V3*%
X63970000Y-89276000D03*
%TD*%
D24*
%TO.P,R4,1*%
%TO.N,Net-(U1-Y4)*%
X77523200Y-80841200D03*
%TO.P,R4,2*%
%TO.N,/BUS{slash}GP12*%
X77523200Y-81861200D03*
%TD*%
D15*
%TO.P,R10,1*%
%TO.N,+3V3*%
X64239000Y-82481000D03*
%TO.P,R10,2*%
%TO.N,/PICO{slash}BUS_EN*%
X64239000Y-80831000D03*
%TD*%
D18*
%TO.P,J2,*%
%TO.N,*%
X73129000Y-81529000D03*
X73129000Y-78989000D03*
X57889000Y-86609000D03*
X57889000Y-84069000D03*
X57889000Y-81529000D03*
D17*
%TO.P,J2,L1,~{WR}*%
%TO.N,/BUS{slash}WR*%
X57889000Y-73909000D03*
D18*
%TO.P,J2,L2,~{RD}*%
%TO.N,/BUS{slash}RD*%
X57889000Y-76449000D03*
%TO.P,J2,L3,5V*%
%TO.N,+5V*%
X57889000Y-78989000D03*
%TO.P,J2,L7,ALE*%
%TO.N,/BUS{slash}ALE*%
X57889000Y-89149000D03*
%TO.P,J2,L8,A12*%
%TO.N,/BUS{slash}GP7*%
X57889000Y-91689000D03*
%TO.P,J2,L9,AD7*%
%TO.N,/BUS{slash}GP15*%
X57889000Y-94229000D03*
%TO.P,J2,L10,AD6*%
%TO.N,/BUS{slash}GP14*%
X57889000Y-96769000D03*
%TO.P,J2,L11,AD5*%
%TO.N,/BUS{slash}GP13*%
X57889000Y-99309000D03*
%TO.P,J2,L12,AD4*%
%TO.N,/BUS{slash}GP12*%
X57889000Y-101849000D03*
%TO.P,J2,L13,AD3*%
%TO.N,/BUS{slash}GP11*%
X57889000Y-104389000D03*
%TO.P,J2,L14,AD2*%
%TO.N,/BUS{slash}GP10*%
X57889000Y-106929000D03*
%TO.P,J2,L15,AD1*%
%TO.N,/BUS{slash}GP9*%
X57889000Y-109469000D03*
%TO.P,J2,L16,AD0*%
%TO.N,/BUS{slash}GP8*%
X57889000Y-112009000D03*
%TO.P,J2,L17,AD0*%
%TO.N,unconnected-(J2-AD0-PadL17)*%
X57889000Y-114549000D03*
%TO.P,J2,L18,AD1*%
%TO.N,unconnected-(J2-AD1-PadL18)*%
X57889000Y-117089000D03*
%TO.P,J2,L19,AD2*%
%TO.N,unconnected-(J2-AD2-PadL19)*%
X57889000Y-119629000D03*
%TO.P,J2,L20,GND*%
%TO.N,GND*%
X57889000Y-122169000D03*
D17*
%TO.P,J2,R1,GND*%
%TO.N,unconnected-(J2-GND-PadR1)*%
X73129000Y-73909000D03*
D18*
%TO.P,J2,R2,GND*%
%TO.N,unconnected-(J2-GND-PadR2)*%
X73129000Y-76449000D03*
%TO.P,J2,R5,A12*%
%TO.N,unconnected-(J2-A12-PadR5)*%
X73129000Y-84069000D03*
%TO.P,J2,R6,ALE*%
%TO.N,unconnected-(J2-ALE-PadR6)*%
X73129000Y-86609000D03*
%TO.P,J2,R7,5V*%
%TO.N,unconnected-(J2-5V-PadR7)*%
X73129000Y-89149000D03*
%TO.P,J2,R8,A14*%
%TO.N,/BUS{slash}GP6*%
X73129000Y-91689000D03*
%TO.P,J2,R9,A13*%
%TO.N,/BUS{slash}GP5*%
X73129000Y-94229000D03*
%TO.P,J2,R10,A8*%
%TO.N,/BUS{slash}GP4*%
X73129000Y-96769000D03*
%TO.P,J2,R11,A9*%
%TO.N,/BUS{slash}GP3*%
X73129000Y-99309000D03*
%TO.P,J2,R12,A11*%
%TO.N,/BUS{slash}GP2*%
X73129000Y-101849000D03*
%TO.P,J2,R13,~{PSEN}*%
%TO.N,/BUS{slash}PSEN*%
X73129000Y-104389000D03*
%TO.P,J2,R14,A10*%
%TO.N,/BUS{slash}GP1*%
X73129000Y-106929000D03*
%TO.P,J2,R15,A15*%
%TO.N,/BUS{slash}GP0*%
X73129000Y-109469000D03*
%TO.P,J2,R16,AD7*%
%TO.N,unconnected-(J2-AD7-PadR16)*%
X73129000Y-112009000D03*
%TO.P,J2,R17,AD6*%
%TO.N,unconnected-(J2-AD6-PadR17)*%
X73129000Y-114549000D03*
%TO.P,J2,R18,AD5*%
%TO.N,unconnected-(J2-AD5-PadR18)*%
X73129000Y-117089000D03*
%TO.P,J2,R19,AD4*%
%TO.N,unconnected-(J2-AD4-PadR19)*%
X73129000Y-119629000D03*
%TO.P,J2,R20,AD3*%
%TO.N,unconnected-(J2-AD3-PadR20)*%
X73129000Y-122169000D03*
%TD*%
D25*
%TO.N,+5V*%
X68531600Y-69591000D03*
%TO.N,/BUS{slash}PSEN*%
X80368000Y-105659000D03*
X68557000Y-70607000D03*
%TO.N,GND*%
X60013000Y-90317400D03*
X81257000Y-98039000D03*
X67160000Y-69591000D03*
X83314400Y-98039000D03*
X71528800Y-125420200D03*
%TO.N,/BUS{slash}WR*%
X63324600Y-92324000D03*
X67896600Y-100325000D03*
X68302273Y-91781000D03*
%TO.N,/BUS{slash}RD*%
X68150600Y-96835907D03*
X62816600Y-95143400D03*
X68074400Y-99207400D03*
%TO.N,/PICO{slash}WR*%
X64033102Y-92742772D03*
%TO.N,/BUS{slash}GP7*%
X64594600Y-123896200D03*
%TO.N,/BUS{slash}GP14*%
X66570000Y-88031400D03*
%TO.N,/BUS{slash}GP0*%
X79402800Y-123642200D03*
%TO.N,/BUS{slash}GP11*%
X70470000Y-87523400D03*
X77370800Y-85339000D03*
%TO.N,/BUS{slash}GP13*%
X67870000Y-88006000D03*
%TO.N,/BUS{slash}GP5*%
X77539000Y-109723000D03*
%TO.N,/BUS{slash}GP10*%
X70325400Y-96268753D03*
X77243800Y-87879000D03*
%TO.N,/BUS{slash}GP2*%
X78234400Y-118409800D03*
%TO.N,/BUS{slash}GP12*%
X69170000Y-88006000D03*
X78183600Y-82799000D03*
%TO.N,/BUS{slash}GP4*%
X77929600Y-113279000D03*
%TO.N,/BUS{slash}GP1*%
X78590000Y-120899000D03*
%TO.N,/BUS{slash}GP15*%
X65270000Y-88006000D03*
%TO.N,/BUS{slash}GP9*%
X70842272Y-91019000D03*
X77243800Y-90419000D03*
%TO.N,/BUS{slash}GP3*%
X77269200Y-115819000D03*
%TO.N,/BUS{slash}GP8*%
X71579600Y-92959000D03*
%TO.N,/BUS{slash}GP6*%
X70335000Y-109215000D03*
X69319000Y-122677000D03*
X78047000Y-107157600D03*
%TO.N,/PICO{slash}GP4*%
X74281600Y-110892127D03*
X71325600Y-111755000D03*
%TO.N,/PICO{slash}GP11*%
X74754600Y-85999400D03*
%TO.N,/PICO{slash}GP10*%
X74741900Y-88526700D03*
%TO.N,/PICO{slash}GP12*%
X74741900Y-83446700D03*
%TO.N,/PICO{slash}GP6*%
X68557000Y-121915000D03*
X74653000Y-102357000D03*
%TO.N,/PICO{slash}GP7*%
X67795000Y-121635600D03*
X74653000Y-99817000D03*
%TO.N,/PICO{slash}GP9*%
X74729200Y-91054000D03*
%TO.N,/PICO{slash}GP13*%
X74729200Y-80894000D03*
%TO.N,/PICO{slash}GP15*%
X64467600Y-83916600D03*
%TO.N,/PICO{slash}GP14*%
X66093200Y-81198800D03*
%TO.N,/PICO{slash}GP5*%
X74281600Y-108352127D03*
X71325600Y-109215000D03*
%TO.N,/BUS{slash}ALE*%
X59667000Y-118232000D03*
X65255000Y-118359000D03*
%TO.N,/PICO{slash}NOP_EN*%
X65890000Y-69591000D03*
%TO.N,/PICO{slash}PSEN*%
X69569417Y-90495093D03*
X66004300Y-104401700D03*
X63912027Y-90513500D03*
%TO.N,/PICO{slash}ALE*%
X68899127Y-91113500D03*
X64655000Y-90942800D03*
X66715500Y-102801500D03*
%TO.N,/PICO{slash}BUS_EN*%
X67683800Y-92390600D03*
X68150600Y-107284600D03*
X71605000Y-87472600D03*
X66982200Y-121102200D03*
X63400000Y-93822600D03*
X66677400Y-101569600D03*
X58574800Y-80233600D03*
X64639071Y-92143800D03*
X63959600Y-127426800D03*
%TD*%
D26*
%TO.N,+5V*%
X68841400Y-69281200D02*
X70210000Y-69281200D01*
D27*
X56238000Y-80640000D02*
X56238000Y-125657400D01*
X56238000Y-125657400D02*
X57609600Y-127029000D01*
D26*
X68531600Y-69591000D02*
X68841400Y-69281200D01*
D27*
X68531600Y-69591000D02*
X67571800Y-68631200D01*
X58740850Y-68631200D02*
X56238000Y-71134050D01*
X57889000Y-78989000D02*
X56238000Y-80640000D01*
X56238000Y-71134050D02*
X56238000Y-77338000D01*
X56238000Y-77338000D02*
X57889000Y-78989000D01*
X67571800Y-68631200D02*
X58740850Y-68631200D01*
D28*
%TO.N,/BUS{slash}PSEN*%
X74399000Y-105659000D02*
X73129000Y-104389000D01*
X73129000Y-104389000D02*
X66570000Y-110948000D01*
X69231800Y-69932200D02*
X68557000Y-70607000D01*
X80368000Y-105659000D02*
X74399000Y-105659000D01*
X70210000Y-69932200D02*
X69231800Y-69932200D01*
X66570000Y-110948000D02*
X66570000Y-119756000D01*
D27*
%TO.N,Net-(D1-K)*%
X59717800Y-121610200D02*
X61699000Y-119629000D01*
X59717800Y-121762600D02*
X59717800Y-121610200D01*
X57609600Y-124929000D02*
X59717800Y-122820800D01*
X59717800Y-122820800D02*
X59717800Y-121762600D01*
%TO.N,+3V3*%
X59679496Y-91765200D02*
X59679496Y-117089000D01*
X62623800Y-118359000D02*
X63970000Y-117012800D01*
X62435600Y-90419000D02*
X61038600Y-90419000D01*
D26*
X63172200Y-88478200D02*
X63970000Y-89276000D01*
X63970000Y-118384400D02*
X63970000Y-119756000D01*
D27*
X64391400Y-112149000D02*
X61839000Y-112149000D01*
D26*
X63172200Y-83547800D02*
X63172200Y-88478200D01*
X64239000Y-82481000D02*
X63172200Y-83547800D01*
D27*
X63970000Y-116225400D02*
X63970000Y-118384400D01*
X63970000Y-117012800D02*
X63970000Y-116225400D01*
D26*
X62435600Y-90393600D02*
X63959600Y-88869600D01*
D27*
X61839000Y-112149000D02*
X61699000Y-112009000D01*
X59692400Y-117089000D02*
X60962400Y-118359000D01*
X61038600Y-90419000D02*
X59692400Y-91765200D01*
X63970000Y-112570400D02*
X64391400Y-112149000D01*
X60962400Y-118359000D02*
X62623800Y-118359000D01*
D26*
X62435600Y-90419000D02*
X62435600Y-90393600D01*
D27*
X63970000Y-116225400D02*
X63970000Y-112570400D01*
D26*
%TO.N,GND*%
X64391400Y-110599000D02*
X64251400Y-110739000D01*
D27*
X60403600Y-103093600D02*
X61699000Y-104389000D01*
D26*
X83314400Y-98039000D02*
X71120000Y-98039000D01*
D27*
X60013000Y-90317400D02*
X60013000Y-80675000D01*
D26*
X64485000Y-69932200D02*
X64485000Y-75132200D01*
D27*
X60403600Y-92984400D02*
X60403600Y-97708800D01*
D28*
X61699000Y-91689000D02*
X61699000Y-91155600D01*
D27*
X61699000Y-91689000D02*
X60403600Y-92984400D01*
D26*
X81231600Y-80741600D02*
X79479000Y-78989000D01*
X59870000Y-70391400D02*
X59260600Y-69782000D01*
X66168800Y-70582200D02*
X62448600Y-70582200D01*
D27*
X67693400Y-98039000D02*
X71120000Y-98039000D01*
D26*
X81231600Y-89936400D02*
X81231600Y-80741600D01*
D27*
X60403600Y-115793600D02*
X61699000Y-117089000D01*
D28*
X71528800Y-125420200D02*
X71468000Y-125481000D01*
D26*
X79479000Y-91689000D02*
X81231600Y-89936400D01*
X67160000Y-69591000D02*
X66168800Y-70582200D01*
D27*
X60013000Y-80675000D02*
X61699000Y-78989000D01*
D26*
X71120000Y-98039000D02*
X71120000Y-95001000D01*
D27*
X60657600Y-126182200D02*
X60657600Y-128722200D01*
X64251400Y-110739000D02*
X60429000Y-110739000D01*
X61699000Y-104389000D02*
X60403600Y-105684400D01*
D26*
X62448600Y-70582200D02*
X62257800Y-70391400D01*
D27*
X60403600Y-105684400D02*
X60403600Y-110713600D01*
D26*
X62257800Y-70391400D02*
X59870000Y-70391400D01*
D28*
X60581400Y-98191400D02*
X60403600Y-98013600D01*
D27*
X67693400Y-98039000D02*
X60733800Y-98039000D01*
D28*
X60403600Y-98013600D02*
X60403600Y-97708800D01*
D27*
X60403600Y-97708800D02*
X60403600Y-103093600D01*
X60403600Y-110713600D02*
X60403600Y-115793600D01*
D28*
X71468000Y-125481000D02*
X71120000Y-125481000D01*
%TO.N,/BUS{slash}WR*%
X68302273Y-91781000D02*
X68057873Y-91536600D01*
X64398857Y-91536600D02*
X64112000Y-91536600D01*
X63324600Y-92882800D02*
X64620000Y-94178200D01*
X64903943Y-91543800D02*
X64406057Y-91543800D01*
X81003000Y-126233000D02*
X83289000Y-128519000D01*
X67896600Y-100325000D02*
X70690600Y-103119000D01*
X64112000Y-91536600D02*
X63324600Y-92324000D01*
X68057873Y-91536600D02*
X64911143Y-91536600D01*
X63324600Y-92324000D02*
X63324600Y-92882800D01*
X64406057Y-91543800D02*
X64398857Y-91536600D01*
X81003000Y-104135000D02*
X81003000Y-126233000D01*
X79987000Y-103119000D02*
X81003000Y-104135000D01*
X64620000Y-94178200D02*
X64620000Y-95001000D01*
X70690600Y-103119000D02*
X79987000Y-103119000D01*
X64911143Y-91536600D02*
X64903943Y-91543800D01*
%TO.N,/BUS{slash}RD*%
X67709507Y-97277000D02*
X68150600Y-96835907D01*
X68150600Y-96835907D02*
X67667408Y-96835907D01*
X81765000Y-101595000D02*
X81765000Y-124455000D01*
X68074400Y-99207400D02*
X69446000Y-100579000D01*
X64264400Y-97277000D02*
X67709507Y-97277000D01*
X80749000Y-100579000D02*
X81765000Y-101595000D01*
X66570000Y-95738499D02*
X66570000Y-95001000D01*
X62943600Y-95956200D02*
X64264400Y-97277000D01*
X62943600Y-95270400D02*
X62943600Y-95956200D01*
X81765000Y-124455000D02*
X83289000Y-125979000D01*
X67667408Y-96835907D02*
X66570000Y-95738499D01*
X62816600Y-95143400D02*
X62943600Y-95270400D01*
X69446000Y-100579000D02*
X80749000Y-100579000D01*
%TO.N,/PICO{slash}WR*%
X64033102Y-92742772D02*
X65270000Y-93979670D01*
X65270000Y-93979670D02*
X65270000Y-95001000D01*
%TO.N,/BUS{slash}GP7*%
X83289000Y-105659000D02*
X84559000Y-106929000D01*
X84559000Y-106929000D02*
X84559000Y-129204800D01*
X83974800Y-129789000D02*
X68190501Y-129789000D01*
X84559000Y-129204800D02*
X83974800Y-129789000D01*
X68190501Y-129789000D02*
X64620000Y-126218499D01*
X64620000Y-126218499D02*
X64620000Y-125481000D01*
X64620000Y-123921600D02*
X64594600Y-123896200D01*
X64620000Y-125481000D02*
X64620000Y-123921600D01*
%TO.N,/BUS{slash}GP14*%
X81257000Y-75687000D02*
X83289000Y-77719000D01*
X79963600Y-70276800D02*
X81257000Y-71570200D01*
X81257000Y-71570200D02*
X81257000Y-75687000D01*
X66570000Y-88031400D02*
X66570000Y-89276000D01*
%TO.N,/BUS{slash}GP0*%
X69192000Y-129052400D02*
X67220000Y-127080400D01*
X79402800Y-123642200D02*
X73992600Y-129052400D01*
X73992600Y-129052400D02*
X69192000Y-129052400D01*
X67220000Y-127080400D02*
X67220000Y-125481000D01*
%TO.N,/BUS{slash}GP11*%
X77015200Y-84983400D02*
X77370800Y-85339000D01*
X70470000Y-87523400D02*
X70470000Y-89276000D01*
X77015200Y-84375800D02*
X77015200Y-84983400D01*
%TO.N,/BUS{slash}GP13*%
X80749000Y-77719000D02*
X83289000Y-80259000D01*
X67870000Y-88006000D02*
X67870000Y-89276000D01*
X79963600Y-71267400D02*
X80749000Y-72052800D01*
X80749000Y-72052800D02*
X80749000Y-77719000D01*
%TO.N,/BUS{slash}GP5*%
X77539000Y-109723000D02*
X74602200Y-109723000D01*
X70944600Y-110739000D02*
X67870000Y-113813600D01*
X74602200Y-109723000D02*
X73586200Y-110739000D01*
X67870000Y-113813600D02*
X67870000Y-119756000D01*
X73586200Y-110739000D02*
X70944600Y-110739000D01*
%TO.N,/BUS{slash}GP10*%
X70292554Y-96235907D02*
X67717408Y-96235907D01*
X76583400Y-86941200D02*
X76583400Y-87218600D01*
X67220000Y-95738499D02*
X67220000Y-95001000D01*
X76583400Y-87218600D02*
X77243800Y-87879000D01*
X67717408Y-96235907D02*
X67220000Y-95738499D01*
X70325400Y-96268753D02*
X70292554Y-96235907D01*
%TO.N,/BUS{slash}GP2*%
X75440400Y-121203800D02*
X78234400Y-118409800D01*
X71005539Y-126995000D02*
X75440400Y-122560139D01*
X69820000Y-126607000D02*
X70208000Y-126995000D01*
X75440400Y-122560139D02*
X75440400Y-121203800D01*
X70208000Y-126995000D02*
X71005539Y-126995000D01*
X69820000Y-125481000D02*
X69820000Y-126607000D01*
X78234400Y-118409800D02*
X78285200Y-118359000D01*
%TO.N,/BUS{slash}GP12*%
X77523200Y-81861200D02*
X77523200Y-82138600D01*
X69170000Y-88006000D02*
X69170000Y-89276000D01*
X77523200Y-82138600D02*
X78183600Y-82799000D01*
%TO.N,/BUS{slash}GP4*%
X77929600Y-113279000D02*
X72543720Y-113279000D01*
X69170000Y-116652720D02*
X69170000Y-119756000D01*
X72543720Y-113279000D02*
X69170000Y-116652720D01*
%TO.N,/BUS{slash}GP1*%
X77447000Y-122016600D02*
X77447000Y-123134200D01*
X69674600Y-128011000D02*
X68520000Y-126856400D01*
X68520000Y-126856400D02*
X68520000Y-125481000D01*
X78564600Y-120899000D02*
X77447000Y-122016600D01*
X77447000Y-123134200D02*
X72570200Y-128011000D01*
X72570200Y-128011000D02*
X69674600Y-128011000D01*
%TO.N,/BUS{slash}GP15*%
X81765000Y-73655000D02*
X81765000Y-71062200D01*
X65270000Y-88006000D02*
X65270000Y-89276000D01*
X83289000Y-75179000D02*
X81765000Y-73655000D01*
X81765000Y-71062200D02*
X79963600Y-69260800D01*
%TO.N,/BUS{slash}GP9*%
X70776400Y-91019000D02*
X68520000Y-93275400D01*
X68520000Y-93275400D02*
X68520000Y-95001000D01*
X70842272Y-91019000D02*
X70776400Y-91019000D01*
X76583400Y-89758600D02*
X77243800Y-90419000D01*
X76583400Y-89481200D02*
X76583400Y-89758600D01*
%TO.N,/BUS{slash}GP3*%
X70470000Y-119036800D02*
X70470000Y-119756000D01*
X74729200Y-118359000D02*
X71147800Y-118359000D01*
X77269200Y-115819000D02*
X74729200Y-118359000D01*
X71147800Y-118359000D02*
X70470000Y-119036800D01*
%TO.N,/BUS{slash}GP8*%
X70690600Y-92959000D02*
X69820000Y-93829600D01*
X71579600Y-92959000D02*
X83289000Y-92959000D01*
X71579600Y-92959000D02*
X70690600Y-92959000D01*
X69820000Y-93829600D02*
X69820000Y-95001000D01*
%TO.N,/BUS{slash}GP6*%
X74602200Y-107183000D02*
X78021600Y-107183000D01*
X73586200Y-108199000D02*
X74602200Y-107183000D01*
X71351000Y-108199000D02*
X70335000Y-109215000D01*
X69319000Y-122677000D02*
X68636501Y-122677000D01*
X66570000Y-124743501D02*
X66570000Y-125481000D01*
X71401800Y-108199000D02*
X71351000Y-108199000D01*
X71401800Y-108199000D02*
X73586200Y-108199000D01*
X78021600Y-107183000D02*
X78047000Y-107157600D01*
X68636501Y-122677000D02*
X66570000Y-124743501D01*
%TO.N,/PICO{slash}GP8*%
X71732000Y-94914800D02*
X72341600Y-95524400D01*
X78234400Y-95524400D02*
X79479000Y-96769000D01*
X71732000Y-93975000D02*
X71732000Y-94914800D01*
X70470000Y-95001000D02*
X70470000Y-93865400D01*
X72341600Y-95524400D02*
X78234400Y-95524400D01*
X71376400Y-93619400D02*
X71732000Y-93975000D01*
X70716000Y-93619400D02*
X71376400Y-93619400D01*
X70470000Y-93865400D02*
X70716000Y-93619400D01*
%TO.N,/PICO{slash}GP4*%
X71300200Y-111755000D02*
X68520000Y-114535200D01*
X74281600Y-110892127D02*
X74357073Y-110967600D01*
X77980400Y-110967600D02*
X79479000Y-109469000D01*
X71325600Y-111755000D02*
X71300200Y-111755000D01*
X68520000Y-114535200D02*
X68520000Y-119756000D01*
X74357073Y-110967600D02*
X77980400Y-110967600D01*
%TO.N,/PICO{slash}GP11*%
X74754600Y-85999400D02*
X74094200Y-85339000D01*
X69820000Y-86489000D02*
X69820000Y-89276000D01*
X70970000Y-85339000D02*
X69820000Y-86489000D01*
X74094200Y-85339000D02*
X70970000Y-85339000D01*
%TO.N,/PICO{slash}GP10*%
X71935200Y-88387000D02*
X71935200Y-89987200D01*
X72443200Y-87879000D02*
X71935200Y-88387000D01*
X71935200Y-89987200D02*
X71503400Y-90419000D01*
X70512800Y-90419000D02*
X67870000Y-93061800D01*
X71503400Y-90419000D02*
X70512800Y-90419000D01*
X74094200Y-87879000D02*
X72443200Y-87879000D01*
X67870000Y-93061800D02*
X67870000Y-95001000D01*
X74741900Y-88526700D02*
X74094200Y-87879000D01*
%TO.N,/PICO{slash}GP12*%
X74094200Y-82799000D02*
X70995400Y-82799000D01*
X70995400Y-82799000D02*
X68520000Y-85274400D01*
X74741900Y-83446700D02*
X74094200Y-82799000D01*
X68520000Y-85274400D02*
X68520000Y-89276000D01*
%TO.N,/PICO{slash}GP2*%
X76735800Y-117876400D02*
X73713200Y-120899000D01*
X76735800Y-117292200D02*
X76735800Y-117876400D01*
X73713200Y-120899000D02*
X72519400Y-120899000D01*
X72519400Y-120899000D02*
X70470000Y-122948400D01*
X79479000Y-114549000D02*
X76735800Y-117292200D01*
X70470000Y-122948400D02*
X70470000Y-125481000D01*
%TO.N,/PICO{slash}GP1*%
X76431000Y-122880200D02*
X76431000Y-121584800D01*
X76431000Y-121584800D02*
X78386800Y-119629000D01*
X69170000Y-125481000D02*
X69170000Y-126744400D01*
X78386800Y-119629000D02*
X79479000Y-119629000D01*
X71782800Y-127528400D02*
X76431000Y-122880200D01*
X69170000Y-126744400D02*
X69954000Y-127528400D01*
X69954000Y-127528400D02*
X71782800Y-127528400D01*
%TO.N,/PICO{slash}GP6*%
X75161000Y-101849000D02*
X74653000Y-102357000D01*
X65920000Y-124552000D02*
X65920000Y-125481000D01*
X68557000Y-121915000D02*
X65920000Y-124552000D01*
X79479000Y-101849000D02*
X75161000Y-101849000D01*
%TO.N,/PICO{slash}GP7*%
X65270000Y-124160600D02*
X65270000Y-125481000D01*
X67795000Y-121635600D02*
X65270000Y-124160600D01*
X75161000Y-99309000D02*
X74653000Y-99817000D01*
X79479000Y-99309000D02*
X75161000Y-99309000D01*
%TO.N,/PICO{slash}GP9*%
X74729200Y-91054000D02*
X74094200Y-90419000D01*
X69170000Y-93539800D02*
X69170000Y-95001000D01*
X74094200Y-90419000D02*
X72290800Y-90419000D01*
X72290800Y-90419000D02*
X69170000Y-93539800D01*
%TO.N,/PICO{slash}GP0*%
X67870000Y-126985074D02*
X67870000Y-125481000D01*
X79479000Y-122346800D02*
X73306800Y-128519000D01*
X73306800Y-128519000D02*
X69403926Y-128519000D01*
X69403926Y-128519000D02*
X67870000Y-126985074D01*
X79479000Y-122169000D02*
X79479000Y-122346800D01*
%TO.N,/PICO{slash}GP13*%
X74094200Y-80259000D02*
X71122400Y-80259000D01*
X71122400Y-80259000D02*
X67220000Y-84161400D01*
X67220000Y-84161400D02*
X67220000Y-89276000D01*
X74729200Y-80894000D02*
X74094200Y-80259000D01*
%TO.N,/PICO{slash}GP15*%
X64467600Y-83916600D02*
X64620000Y-84069000D01*
X64620000Y-84069000D02*
X64620000Y-89276000D01*
%TO.N,/PICO{slash}GP14*%
X65920000Y-81372000D02*
X66093200Y-81198800D01*
X65920000Y-89276000D02*
X65920000Y-81372000D01*
%TO.N,/PICO{slash}GP5*%
X77980400Y-108427600D02*
X79479000Y-106929000D01*
X71325600Y-109215000D02*
X67220000Y-113320600D01*
X67220000Y-113320600D02*
X67220000Y-119756000D01*
X74357073Y-108427600D02*
X77980400Y-108427600D01*
%TO.N,/PICO{slash}GP3*%
X79479000Y-112009000D02*
X79479000Y-112618600D01*
X79479000Y-112618600D02*
X76278600Y-115819000D01*
X76278600Y-115819000D02*
X72341600Y-115819000D01*
X69820000Y-118340600D02*
X69820000Y-119756000D01*
X72341600Y-115819000D02*
X69820000Y-118340600D01*
%TO.N,/BUS{slash}ALE*%
X62740400Y-127274400D02*
X62740400Y-123023099D01*
X65270000Y-119756000D02*
X65270000Y-120493499D01*
X65255000Y-119741000D02*
X65270000Y-119756000D01*
X85067000Y-129433004D02*
X84253804Y-130246200D01*
X59082800Y-117647800D02*
X59082800Y-90342800D01*
X84253804Y-130246200D02*
X65712200Y-130246200D01*
X65270000Y-120493499D02*
X62740400Y-123023099D01*
X65712200Y-130246200D02*
X62740400Y-127274400D01*
X85067000Y-102357000D02*
X85067000Y-129433004D01*
X59082800Y-90342800D02*
X57889000Y-89149000D01*
X59667000Y-118232000D02*
X59082800Y-117647800D01*
X65255000Y-118359000D02*
X65255000Y-119741000D01*
X83289000Y-100579000D02*
X85067000Y-102357000D01*
%TO.N,/PICO{slash}RD*%
X65397499Y-96261000D02*
X63922630Y-96261000D01*
X62918200Y-94229000D02*
X61699000Y-94229000D01*
X63426200Y-94737000D02*
X62918200Y-94229000D01*
X63426200Y-95764570D02*
X63426200Y-94737000D01*
X65920000Y-95001000D02*
X65920000Y-95738499D01*
X63922630Y-96261000D02*
X63426200Y-95764570D01*
X65920000Y-95738499D02*
X65397499Y-96261000D01*
%TO.N,Net-(U1-Y8)*%
X74136400Y-77719000D02*
X75355600Y-78938200D01*
X75350600Y-90530400D02*
X76583400Y-91763200D01*
X70210000Y-75332199D02*
X70210000Y-75132200D01*
X74136400Y-77719000D02*
X72596801Y-77719000D01*
X72596801Y-77719000D02*
X70210000Y-75332199D01*
X75355600Y-78938200D02*
X75355600Y-89044000D01*
X75350600Y-89049000D02*
X75350600Y-90530400D01*
X75355600Y-89044000D02*
X75350600Y-89049000D01*
%TO.N,Net-(U1-Y1)*%
X72446699Y-69083000D02*
X70947499Y-70582200D01*
X78463000Y-69083000D02*
X72446699Y-69083000D01*
X70947499Y-70582200D02*
X70210000Y-70582200D01*
X78943600Y-69260800D02*
X78640800Y-69260800D01*
X78640800Y-69260800D02*
X78463000Y-69083000D01*
%TO.N,Net-(U1-Y2)*%
X72588699Y-69591000D02*
X70947499Y-71232200D01*
X77955000Y-69591000D02*
X72588699Y-69591000D01*
X78640800Y-70276800D02*
X77955000Y-69591000D01*
X78943600Y-70276800D02*
X78640800Y-70276800D01*
X70947499Y-71232200D02*
X70210000Y-71232200D01*
%TO.N,Net-(U1-Y3)*%
X78943600Y-71267400D02*
X78615400Y-71267400D01*
X78615400Y-71267400D02*
X77447000Y-70099000D01*
X70947499Y-71882200D02*
X70210000Y-71882200D01*
X72730699Y-70099000D02*
X70947499Y-71882200D01*
X77447000Y-70099000D02*
X72730699Y-70099000D01*
%TO.N,Net-(U1-Y4)*%
X72898099Y-70581600D02*
X70947499Y-72532200D01*
X76558000Y-70581600D02*
X72898099Y-70581600D01*
X76558000Y-70581600D02*
X77350600Y-71374200D01*
X77350600Y-71374200D02*
X77350600Y-80668600D01*
X77350600Y-80668600D02*
X77523200Y-80841200D01*
X70947499Y-72532200D02*
X70210000Y-72532200D01*
%TO.N,Net-(U1-Y5)*%
X75389600Y-71089600D02*
X72959970Y-71089600D01*
X76850600Y-83191200D02*
X77015200Y-83355800D01*
X76850600Y-72550600D02*
X76850600Y-83191200D01*
X70867370Y-73182200D02*
X70210000Y-73182200D01*
X72959970Y-71089600D02*
X70867370Y-73182200D01*
X75389600Y-71089600D02*
X76850600Y-72550600D01*
%TO.N,Net-(U1-Y6)*%
X74424400Y-72131000D02*
X72748000Y-72131000D01*
X76350600Y-74057200D02*
X74424400Y-72131000D01*
X72748000Y-72131000D02*
X71046800Y-73832200D01*
X76481800Y-85921200D02*
X76350600Y-85790000D01*
X71046800Y-73832200D02*
X70210000Y-73832200D01*
X76350600Y-85790000D02*
X76350600Y-74057200D01*
%TO.N,Net-(U1-Y7)*%
X74174200Y-75179000D02*
X75850600Y-76855400D01*
X75850600Y-76855400D02*
X75850600Y-87830000D01*
X71630400Y-75179000D02*
X70933600Y-74482200D01*
X70933600Y-74482200D02*
X70210000Y-74482200D01*
X75850600Y-87830000D02*
X76481800Y-88461200D01*
X74174200Y-75179000D02*
X71630400Y-75179000D01*
D26*
%TO.N,/PICO{slash}NOP_EN*%
X59946400Y-74696400D02*
X61699000Y-76449000D01*
D28*
X64485000Y-69282200D02*
X65581200Y-69282200D01*
X65581200Y-69282200D02*
X65890000Y-69591000D01*
D26*
X59260600Y-71432000D02*
X59946400Y-72117800D01*
X59946400Y-72117800D02*
X59946400Y-74696400D01*
D28*
%TO.N,/PICO{slash}PSEN*%
X65920000Y-104486000D02*
X65920000Y-119756000D01*
X66004300Y-104401700D02*
X65920000Y-104486000D01*
X63912027Y-90513500D02*
X64082727Y-90342800D01*
X69417124Y-90342800D02*
X69569417Y-90495093D01*
X64082727Y-90342800D02*
X69417124Y-90342800D01*
%TO.N,/PICO{slash}ALE*%
X66715500Y-102801500D02*
X65255000Y-104262000D01*
X64655000Y-90942800D02*
X64825700Y-90942800D01*
X64844836Y-90923664D02*
X68709291Y-90923664D01*
X64620000Y-115158600D02*
X64620000Y-119756000D01*
X65255000Y-114523600D02*
X64620000Y-115158600D01*
X65255000Y-104262000D02*
X65255000Y-114523600D01*
X68709291Y-90923664D02*
X68899127Y-91113500D01*
X64825700Y-90942800D02*
X64844836Y-90923664D01*
%TO.N,/PICO{slash}BUS_EN*%
X64639071Y-92143800D02*
X67437000Y-92143800D01*
X71120000Y-89276000D02*
X71120000Y-87957600D01*
X65991600Y-120899000D02*
X63970000Y-122920600D01*
X71120000Y-119756000D02*
X71120000Y-120493499D01*
X63883400Y-78658800D02*
X62943600Y-77719000D01*
X61089400Y-77719000D02*
X58574800Y-80233600D01*
X70714499Y-120899000D02*
X67388600Y-120899000D01*
X66931400Y-120899000D02*
X66931400Y-121051400D01*
X67437000Y-92143800D02*
X67683800Y-92390600D01*
X63970000Y-94188600D02*
X63970000Y-95001000D01*
X62943600Y-77719000D02*
X61089400Y-77719000D01*
X63959600Y-127426800D02*
X63959600Y-125491400D01*
X66931400Y-120899000D02*
X65991600Y-120899000D01*
X71120000Y-87957600D02*
X71605000Y-87472600D01*
X66931400Y-121051400D02*
X66982200Y-121102200D01*
X66677400Y-101569600D02*
X68328400Y-103220600D01*
X64239000Y-80831000D02*
X63883400Y-80475400D01*
X68328400Y-107106800D02*
X68150600Y-107284600D01*
X67388600Y-120899000D02*
X66931400Y-120899000D01*
X63604000Y-93822600D02*
X63970000Y-94188600D01*
X63970000Y-122920600D02*
X63970000Y-125481000D01*
X63883400Y-80475400D02*
X63883400Y-78658800D01*
D26*
X62397000Y-80831000D02*
X61699000Y-81529000D01*
D28*
X63400000Y-93822600D02*
X63604000Y-93822600D01*
X71120000Y-120493499D02*
X70714499Y-120899000D01*
D26*
X64239000Y-80831000D02*
X62397000Y-80831000D01*
D28*
X63959600Y-125491400D02*
X63970000Y-125481000D01*
X68328400Y-103220600D02*
X68328400Y-107106800D01*
%TD*%
M02*
