%TF.GenerationSoftware,KiCad,Pcbnew,9.0.3-9.0.3-0~ubuntu24.04.1*%
%TF.CreationDate,2025-09-06T02:21:12+02:00*%
%TF.ProjectId,board_nfz330_nfz400,626f6172-645f-46e6-967a-3333305f6e66,rev?*%
%TF.SameCoordinates,Original*%
%TF.FileFunction,Legend,Bot*%
%TF.FilePolarity,Positive*%
%FSLAX46Y46*%
G04 Gerber Fmt 4.6, Leading zero omitted, Abs format (unit mm)*
G04 Created by KiCad (PCBNEW 9.0.3-9.0.3-0~ubuntu24.04.1) date 2025-09-06 02:21:12*
%MOMM*%
%LPD*%
G01*
G04 APERTURE LIST*
G04 Aperture macros list*
%AMRoundRect*
0 Rectangle with rounded corners*
0 $1 Rounding radius*
0 $2 $3 $4 $5 $6 $7 $8 $9 X,Y pos of 4 corners*
0 Add a 4 corners polygon primitive as box body*
4,1,4,$2,$3,$4,$5,$6,$7,$8,$9,$2,$3,0*
0 Add four circle primitives for the rounded corners*
1,1,$1+$1,$2,$3*
1,1,$1+$1,$4,$5*
1,1,$1+$1,$6,$7*
1,1,$1+$1,$8,$9*
0 Add four rect primitives between the rounded corners*
20,1,$1+$1,$2,$3,$4,$5,0*
20,1,$1+$1,$4,$5,$6,$7,0*
20,1,$1+$1,$6,$7,$8,$9,0*
20,1,$1+$1,$8,$9,$2,$3,0*%
%AMFreePoly0*
4,1,37,0.603843,0.796157,0.639018,0.796157,0.711114,0.766294,0.766294,0.711114,0.796157,0.639018,0.796157,0.603843,0.800000,0.600000,0.800000,-0.600000,0.796157,-0.603843,0.796157,-0.639018,0.766294,-0.711114,0.711114,-0.766294,0.639018,-0.796157,0.603843,-0.796157,0.600000,-0.800000,0.000000,-0.800000,0.000000,-0.796148,-0.078414,-0.796148,-0.232228,-0.765552,-0.377117,-0.705537,
-0.507515,-0.618408,-0.618408,-0.507515,-0.705537,-0.377117,-0.765552,-0.232228,-0.796148,-0.078414,-0.796148,0.078414,-0.765552,0.232228,-0.705537,0.377117,-0.618408,0.507515,-0.507515,0.618408,-0.377117,0.705537,-0.232228,0.765552,-0.078414,0.796148,0.000000,0.796148,0.000000,0.800000,0.600000,0.800000,0.603843,0.796157,0.603843,0.796157,$1*%
%AMFreePoly1*
4,1,37,0.000000,0.796148,0.078414,0.796148,0.232228,0.765552,0.377117,0.705537,0.507515,0.618408,0.618408,0.507515,0.705537,0.377117,0.765552,0.232228,0.796148,0.078414,0.796148,-0.078414,0.765552,-0.232228,0.705537,-0.377117,0.618408,-0.507515,0.507515,-0.618408,0.377117,-0.705537,0.232228,-0.765552,0.078414,-0.796148,0.000000,-0.796148,0.000000,-0.800000,-0.600000,-0.800000,
-0.603843,-0.796157,-0.639018,-0.796157,-0.711114,-0.766294,-0.766294,-0.711114,-0.796157,-0.639018,-0.796157,-0.603843,-0.800000,-0.600000,-0.800000,0.600000,-0.796157,0.603843,-0.796157,0.639018,-0.766294,0.711114,-0.711114,0.766294,-0.639018,0.796157,-0.603843,0.796157,-0.600000,0.800000,0.000000,0.800000,0.000000,0.796148,0.000000,0.796148,$1*%
G04 Aperture macros list end*
%ADD10C,0.150000*%
%ADD11C,0.120000*%
%ADD12RoundRect,0.200000X0.600000X0.600000X-0.600000X0.600000X-0.600000X-0.600000X0.600000X-0.600000X0*%
%ADD13C,1.600000*%
%ADD14FreePoly0,180.000000*%
%ADD15FreePoly1,180.000000*%
%ADD16C,1.300000*%
%ADD17R,1.700000X1.700000*%
%ADD18C,1.700000*%
G04 APERTURE END LIST*
D10*
X84389895Y-71200931D02*
X84961323Y-71200931D01*
X84961323Y-71200931D02*
X85075609Y-71162836D01*
X85075609Y-71162836D02*
X85151800Y-71086645D01*
X85151800Y-71086645D02*
X85189895Y-70972360D01*
X85189895Y-70972360D02*
X85189895Y-70896169D01*
X85189895Y-71962836D02*
X85189895Y-71581884D01*
X85189895Y-71581884D02*
X84389895Y-71581884D01*
X85113704Y-72686646D02*
X85151800Y-72648550D01*
X85151800Y-72648550D02*
X85189895Y-72534265D01*
X85189895Y-72534265D02*
X85189895Y-72458074D01*
X85189895Y-72458074D02*
X85151800Y-72343788D01*
X85151800Y-72343788D02*
X85075609Y-72267598D01*
X85075609Y-72267598D02*
X84999419Y-72229503D01*
X84999419Y-72229503D02*
X84847038Y-72191407D01*
X84847038Y-72191407D02*
X84732752Y-72191407D01*
X84732752Y-72191407D02*
X84580371Y-72229503D01*
X84580371Y-72229503D02*
X84504180Y-72267598D01*
X84504180Y-72267598D02*
X84427990Y-72343788D01*
X84427990Y-72343788D02*
X84389895Y-72458074D01*
X84389895Y-72458074D02*
X84389895Y-72534265D01*
X84389895Y-72534265D02*
X84427990Y-72648550D01*
X84427990Y-72648550D02*
X84466085Y-72686646D01*
X84389895Y-73258074D02*
X84961323Y-73258074D01*
X84961323Y-73258074D02*
X85075609Y-73219979D01*
X85075609Y-73219979D02*
X85151800Y-73143788D01*
X85151800Y-73143788D02*
X85189895Y-73029503D01*
X85189895Y-73029503D02*
X85189895Y-72953312D01*
X85189895Y-74019979D02*
X85189895Y-73639027D01*
X85189895Y-73639027D02*
X84389895Y-73639027D01*
X85113704Y-74743789D02*
X85151800Y-74705693D01*
X85151800Y-74705693D02*
X85189895Y-74591408D01*
X85189895Y-74591408D02*
X85189895Y-74515217D01*
X85189895Y-74515217D02*
X85151800Y-74400931D01*
X85151800Y-74400931D02*
X85075609Y-74324741D01*
X85075609Y-74324741D02*
X84999419Y-74286646D01*
X84999419Y-74286646D02*
X84847038Y-74248550D01*
X84847038Y-74248550D02*
X84732752Y-74248550D01*
X84732752Y-74248550D02*
X84580371Y-74286646D01*
X84580371Y-74286646D02*
X84504180Y-74324741D01*
X84504180Y-74324741D02*
X84427990Y-74400931D01*
X84427990Y-74400931D02*
X84389895Y-74515217D01*
X84389895Y-74515217D02*
X84389895Y-74591408D01*
X84389895Y-74591408D02*
X84427990Y-74705693D01*
X84427990Y-74705693D02*
X84466085Y-74743789D01*
X84389895Y-75315217D02*
X84961323Y-75315217D01*
X84961323Y-75315217D02*
X85075609Y-75277122D01*
X85075609Y-75277122D02*
X85151800Y-75200931D01*
X85151800Y-75200931D02*
X85189895Y-75086646D01*
X85189895Y-75086646D02*
X85189895Y-75010455D01*
X85189895Y-76077122D02*
X85189895Y-75696170D01*
X85189895Y-75696170D02*
X84389895Y-75696170D01*
X85113704Y-76800932D02*
X85151800Y-76762836D01*
X85151800Y-76762836D02*
X85189895Y-76648551D01*
X85189895Y-76648551D02*
X85189895Y-76572360D01*
X85189895Y-76572360D02*
X85151800Y-76458074D01*
X85151800Y-76458074D02*
X85075609Y-76381884D01*
X85075609Y-76381884D02*
X84999419Y-76343789D01*
X84999419Y-76343789D02*
X84847038Y-76305693D01*
X84847038Y-76305693D02*
X84732752Y-76305693D01*
X84732752Y-76305693D02*
X84580371Y-76343789D01*
X84580371Y-76343789D02*
X84504180Y-76381884D01*
X84504180Y-76381884D02*
X84427990Y-76458074D01*
X84427990Y-76458074D02*
X84389895Y-76572360D01*
X84389895Y-76572360D02*
X84389895Y-76648551D01*
X84389895Y-76648551D02*
X84427990Y-76762836D01*
X84427990Y-76762836D02*
X84466085Y-76800932D01*
X84389895Y-77372360D02*
X84961323Y-77372360D01*
X84961323Y-77372360D02*
X85075609Y-77334265D01*
X85075609Y-77334265D02*
X85151800Y-77258074D01*
X85151800Y-77258074D02*
X85189895Y-77143789D01*
X85189895Y-77143789D02*
X85189895Y-77067598D01*
X85189895Y-78134265D02*
X85189895Y-77753313D01*
X85189895Y-77753313D02*
X84389895Y-77753313D01*
X85113704Y-78858075D02*
X85151800Y-78819979D01*
X85151800Y-78819979D02*
X85189895Y-78705694D01*
X85189895Y-78705694D02*
X85189895Y-78629503D01*
X85189895Y-78629503D02*
X85151800Y-78515217D01*
X85151800Y-78515217D02*
X85075609Y-78439027D01*
X85075609Y-78439027D02*
X84999419Y-78400932D01*
X84999419Y-78400932D02*
X84847038Y-78362836D01*
X84847038Y-78362836D02*
X84732752Y-78362836D01*
X84732752Y-78362836D02*
X84580371Y-78400932D01*
X84580371Y-78400932D02*
X84504180Y-78439027D01*
X84504180Y-78439027D02*
X84427990Y-78515217D01*
X84427990Y-78515217D02*
X84389895Y-78629503D01*
X84389895Y-78629503D02*
X84389895Y-78705694D01*
X84389895Y-78705694D02*
X84427990Y-78819979D01*
X84427990Y-78819979D02*
X84466085Y-78858075D01*
D11*
%TO.C,J2*%
X56509000Y-75179000D02*
X56509000Y-123549000D01*
X59269000Y-72529000D02*
X57889000Y-72529000D01*
X59269000Y-73909000D02*
X59269000Y-72529000D01*
X59269000Y-75179000D02*
X56509000Y-75179000D01*
X59269000Y-75179000D02*
X59269000Y-123549000D01*
X59269000Y-123549000D02*
X56509000Y-123549000D01*
X71749000Y-75179000D02*
X71749000Y-123549000D01*
X74509000Y-72529000D02*
X73129000Y-72529000D01*
X74509000Y-73909000D02*
X74509000Y-72529000D01*
X74509000Y-75179000D02*
X71749000Y-75179000D01*
X74509000Y-75179000D02*
X74509000Y-123549000D01*
X74509000Y-123549000D02*
X71749000Y-123549000D01*
%TD*%
%LPC*%
D12*
%TO.C,J3*%
X79479000Y-122169000D03*
D13*
X79479000Y-119629000D03*
D14*
X79479000Y-117089000D03*
D13*
X79479000Y-114549000D03*
X79479000Y-112009000D03*
X79479000Y-109469000D03*
X79479000Y-106929000D03*
D14*
X79479000Y-104389000D03*
D13*
X79479000Y-101849000D03*
X79479000Y-99309000D03*
X79479000Y-96769000D03*
X79479000Y-94229000D03*
D14*
X79479000Y-91689000D03*
D13*
X79479000Y-89149000D03*
X79479000Y-86609000D03*
X79479000Y-84069000D03*
X79479000Y-81529000D03*
D14*
X79479000Y-78989000D03*
D13*
X79479000Y-76449000D03*
X79479000Y-73909000D03*
X61699000Y-73909000D03*
X61699000Y-76449000D03*
D15*
X61699000Y-78989000D03*
D13*
X61699000Y-81529000D03*
X61699000Y-84069000D03*
X61699000Y-86609000D03*
X61699000Y-89149000D03*
D15*
X61699000Y-91689000D03*
D13*
X61699000Y-94229000D03*
X61699000Y-96769000D03*
X61699000Y-99309000D03*
X61699000Y-101849000D03*
D15*
X61699000Y-104389000D03*
D13*
X61699000Y-106929000D03*
X61699000Y-109469000D03*
X61699000Y-112009000D03*
X61699000Y-114549000D03*
D15*
X61699000Y-117089000D03*
D13*
X61699000Y-119629000D03*
X61699000Y-122169000D03*
%TD*%
D16*
%TO.C,H1*%
X56449000Y-68659000D03*
%TD*%
D17*
%TO.C,J1*%
X83289000Y-100579000D03*
D18*
X83289000Y-103119000D03*
X83289000Y-105659000D03*
X83289000Y-108199000D03*
X83289000Y-110739000D03*
X83289000Y-113279000D03*
X83289000Y-115819000D03*
X83289000Y-118359000D03*
X83289000Y-120899000D03*
X83289000Y-123439000D03*
X83289000Y-125979000D03*
X83289000Y-128519000D03*
D17*
X83289000Y-70099000D03*
D18*
X83289000Y-72639000D03*
X83289000Y-75179000D03*
X83289000Y-77719000D03*
X83289000Y-80259000D03*
X83289000Y-82799000D03*
X83289000Y-85339000D03*
X83289000Y-87879000D03*
X83289000Y-90419000D03*
X83289000Y-92959000D03*
%TD*%
D17*
%TO.C,J4*%
X60657600Y-126182200D03*
D18*
X60657600Y-128722200D03*
%TD*%
D16*
%TO.C,H2*%
X84729000Y-68659000D03*
%TD*%
%TO.C,H3*%
X56449000Y-129959000D03*
%TD*%
D18*
%TO.C,J2*%
X73129000Y-81529000D03*
X73129000Y-78989000D03*
X57889000Y-86609000D03*
X57889000Y-84069000D03*
X57889000Y-81529000D03*
D17*
X57889000Y-73909000D03*
D18*
X57889000Y-76449000D03*
X57889000Y-78989000D03*
X57889000Y-89149000D03*
X57889000Y-91689000D03*
X57889000Y-94229000D03*
X57889000Y-96769000D03*
X57889000Y-99309000D03*
X57889000Y-101849000D03*
X57889000Y-104389000D03*
X57889000Y-106929000D03*
X57889000Y-109469000D03*
X57889000Y-112009000D03*
X57889000Y-114549000D03*
X57889000Y-117089000D03*
X57889000Y-119629000D03*
X57889000Y-122169000D03*
D17*
X73129000Y-73909000D03*
D18*
X73129000Y-76449000D03*
X73129000Y-84069000D03*
X73129000Y-86609000D03*
X73129000Y-89149000D03*
X73129000Y-91689000D03*
X73129000Y-94229000D03*
X73129000Y-96769000D03*
X73129000Y-99309000D03*
X73129000Y-101849000D03*
X73129000Y-104389000D03*
X73129000Y-106929000D03*
X73129000Y-109469000D03*
X73129000Y-112009000D03*
X73129000Y-114549000D03*
X73129000Y-117089000D03*
X73129000Y-119629000D03*
X73129000Y-122169000D03*
%TD*%
%LPD*%
M02*
