%TF.GenerationSoftware,KiCad,Pcbnew,9.0.3-9.0.3-0~ubuntu24.04.1*%
%TF.CreationDate,2025-09-06T02:21:12+02:00*%
%TF.ProjectId,board_nfz330_nfz400,626f6172-645f-46e6-967a-3333305f6e66,rev?*%
%TF.SameCoordinates,Original*%
%TF.FileFunction,Soldermask,Top*%
%TF.FilePolarity,Negative*%
%FSLAX46Y46*%
G04 Gerber Fmt 4.6, Leading zero omitted, Abs format (unit mm)*
G04 Created by KiCad (PCBNEW 9.0.3-9.0.3-0~ubuntu24.04.1) date 2025-09-06 02:21:12*
%MOMM*%
%LPD*%
G01*
G04 APERTURE LIST*
G04 Aperture macros list*
%AMRoundRect*
0 Rectangle with rounded corners*
0 $1 Rounding radius*
0 $2 $3 $4 $5 $6 $7 $8 $9 X,Y pos of 4 corners*
0 Add a 4 corners polygon primitive as box body*
4,1,4,$2,$3,$4,$5,$6,$7,$8,$9,$2,$3,0*
0 Add four circle primitives for the rounded corners*
1,1,$1+$1,$2,$3*
1,1,$1+$1,$4,$5*
1,1,$1+$1,$6,$7*
1,1,$1+$1,$8,$9*
0 Add four rect primitives between the rounded corners*
20,1,$1+$1,$2,$3,$4,$5,0*
20,1,$1+$1,$4,$5,$6,$7,0*
20,1,$1+$1,$6,$7,$8,$9,0*
20,1,$1+$1,$8,$9,$2,$3,0*%
%AMFreePoly0*
4,1,37,0.603843,0.796157,0.639018,0.796157,0.711114,0.766294,0.766294,0.711114,0.796157,0.639018,0.796157,0.603843,0.800000,0.600000,0.800000,-0.600000,0.796157,-0.603843,0.796157,-0.639018,0.766294,-0.711114,0.711114,-0.766294,0.639018,-0.796157,0.603843,-0.796157,0.600000,-0.800000,0.000000,-0.800000,0.000000,-0.796148,-0.078414,-0.796148,-0.232228,-0.765552,-0.377117,-0.705537,
-0.507515,-0.618408,-0.618408,-0.507515,-0.705537,-0.377117,-0.765552,-0.232228,-0.796148,-0.078414,-0.796148,0.078414,-0.765552,0.232228,-0.705537,0.377117,-0.618408,0.507515,-0.507515,0.618408,-0.377117,0.705537,-0.232228,0.765552,-0.078414,0.796148,0.000000,0.796148,0.000000,0.800000,0.600000,0.800000,0.603843,0.796157,0.603843,0.796157,$1*%
%AMFreePoly1*
4,1,37,0.000000,0.796148,0.078414,0.796148,0.232228,0.765552,0.377117,0.705537,0.507515,0.618408,0.618408,0.507515,0.705537,0.377117,0.765552,0.232228,0.796148,0.078414,0.796148,-0.078414,0.765552,-0.232228,0.705537,-0.377117,0.618408,-0.507515,0.507515,-0.618408,0.377117,-0.705537,0.232228,-0.765552,0.078414,-0.796148,0.000000,-0.796148,0.000000,-0.800000,-0.600000,-0.800000,
-0.603843,-0.796157,-0.639018,-0.796157,-0.711114,-0.766294,-0.766294,-0.711114,-0.796157,-0.639018,-0.796157,-0.603843,-0.800000,-0.600000,-0.800000,0.600000,-0.796157,0.603843,-0.796157,0.639018,-0.766294,0.711114,-0.711114,0.766294,-0.639018,0.796157,-0.603843,0.796157,-0.600000,0.800000,0.000000,0.800000,0.000000,0.796148,0.000000,0.796148,$1*%
G04 Aperture macros list end*
%ADD10RoundRect,0.135000X0.185000X-0.135000X0.185000X0.135000X-0.185000X0.135000X-0.185000X-0.135000X0*%
%ADD11RoundRect,0.200000X0.600000X0.600000X-0.600000X0.600000X-0.600000X-0.600000X0.600000X-0.600000X0*%
%ADD12C,1.600000*%
%ADD13FreePoly0,180.000000*%
%ADD14FreePoly1,180.000000*%
%ADD15C,1.300000*%
%ADD16RoundRect,0.200000X0.275000X-0.200000X0.275000X0.200000X-0.275000X0.200000X-0.275000X-0.200000X0*%
%ADD17RoundRect,0.100000X0.100000X-0.637500X0.100000X0.637500X-0.100000X0.637500X-0.100000X-0.637500X0*%
%ADD18R,1.700000X1.700000*%
%ADD19C,1.700000*%
%ADD20RoundRect,0.225000X0.250000X-0.225000X0.250000X0.225000X-0.250000X0.225000X-0.250000X-0.225000X0*%
%ADD21RoundRect,0.135000X-0.135000X-0.185000X0.135000X-0.185000X0.135000X0.185000X-0.135000X0.185000X0*%
%ADD22RoundRect,0.112500X-0.112500X0.187500X-0.112500X-0.187500X0.112500X-0.187500X0.112500X0.187500X0*%
%ADD23RoundRect,0.100000X-0.637500X-0.100000X0.637500X-0.100000X0.637500X0.100000X-0.637500X0.100000X0*%
%ADD24RoundRect,0.225000X-0.250000X0.225000X-0.250000X-0.225000X0.250000X-0.225000X0.250000X0.225000X0*%
%ADD25RoundRect,0.135000X-0.185000X0.135000X-0.185000X-0.135000X0.185000X-0.135000X0.185000X0.135000X0*%
G04 APERTURE END LIST*
D10*
%TO.C,R8*%
X76583400Y-92783200D03*
X76583400Y-91763200D03*
%TD*%
D11*
%TO.C,J3*%
X79479000Y-122169000D03*
D12*
X79479000Y-119629000D03*
D13*
X79479000Y-117089000D03*
D12*
X79479000Y-114549000D03*
X79479000Y-112009000D03*
X79479000Y-109469000D03*
X79479000Y-106929000D03*
D13*
X79479000Y-104389000D03*
D12*
X79479000Y-101849000D03*
X79479000Y-99309000D03*
X79479000Y-96769000D03*
X79479000Y-94229000D03*
D13*
X79479000Y-91689000D03*
D12*
X79479000Y-89149000D03*
X79479000Y-86609000D03*
X79479000Y-84069000D03*
X79479000Y-81529000D03*
D13*
X79479000Y-78989000D03*
D12*
X79479000Y-76449000D03*
X79479000Y-73909000D03*
X61699000Y-73909000D03*
X61699000Y-76449000D03*
D14*
X61699000Y-78989000D03*
D12*
X61699000Y-81529000D03*
X61699000Y-84069000D03*
X61699000Y-86609000D03*
X61699000Y-89149000D03*
D14*
X61699000Y-91689000D03*
D12*
X61699000Y-94229000D03*
X61699000Y-96769000D03*
X61699000Y-99309000D03*
X61699000Y-101849000D03*
D14*
X61699000Y-104389000D03*
D12*
X61699000Y-106929000D03*
X61699000Y-109469000D03*
X61699000Y-112009000D03*
X61699000Y-114549000D03*
D14*
X61699000Y-117089000D03*
D12*
X61699000Y-119629000D03*
X61699000Y-122169000D03*
%TD*%
D15*
%TO.C,H1*%
X56449000Y-68659000D03*
%TD*%
D16*
%TO.C,R9*%
X59260600Y-71432000D03*
X59260600Y-69782000D03*
%TD*%
D17*
%TO.C,U3*%
X63970000Y-125481000D03*
X64620000Y-125481000D03*
X65270000Y-125481000D03*
X65920000Y-125481000D03*
X66570000Y-125481000D03*
X67220000Y-125481000D03*
X67870000Y-125481000D03*
X68520000Y-125481000D03*
X69170000Y-125481000D03*
X69820000Y-125481000D03*
X70470000Y-125481000D03*
X71120000Y-125481000D03*
X71120000Y-119756000D03*
X70470000Y-119756000D03*
X69820000Y-119756000D03*
X69170000Y-119756000D03*
X68520000Y-119756000D03*
X67870000Y-119756000D03*
X67220000Y-119756000D03*
X66570000Y-119756000D03*
X65920000Y-119756000D03*
X65270000Y-119756000D03*
X64620000Y-119756000D03*
X63970000Y-119756000D03*
%TD*%
D10*
%TO.C,R6*%
X76583400Y-86941200D03*
X76583400Y-85921200D03*
%TD*%
D18*
%TO.C,J1*%
X83289000Y-100579000D03*
D19*
X83289000Y-103119000D03*
X83289000Y-105659000D03*
X83289000Y-108199000D03*
X83289000Y-110739000D03*
X83289000Y-113279000D03*
X83289000Y-115819000D03*
X83289000Y-118359000D03*
X83289000Y-120899000D03*
X83289000Y-123439000D03*
X83289000Y-125979000D03*
X83289000Y-128519000D03*
D18*
X83289000Y-70099000D03*
D19*
X83289000Y-72639000D03*
X83289000Y-75179000D03*
X83289000Y-77719000D03*
X83289000Y-80259000D03*
X83289000Y-82799000D03*
X83289000Y-85339000D03*
X83289000Y-87879000D03*
X83289000Y-90419000D03*
X83289000Y-92959000D03*
%TD*%
D20*
%TO.C,C3*%
X64391400Y-112149000D03*
X64391400Y-110599000D03*
%TD*%
D21*
%TO.C,R2*%
X78943600Y-70276800D03*
X79963600Y-70276800D03*
%TD*%
D10*
%TO.C,R5*%
X77015200Y-84375800D03*
X77015200Y-83355800D03*
%TD*%
D22*
%TO.C,D1*%
X57609600Y-124929000D03*
X57609600Y-127029000D03*
%TD*%
D23*
%TO.C,U1*%
X64485000Y-69282200D03*
X64485000Y-69932200D03*
X64485000Y-70582200D03*
X64485000Y-71232200D03*
X64485000Y-71882200D03*
X64485000Y-72532200D03*
X64485000Y-73182200D03*
X64485000Y-73832200D03*
X64485000Y-74482200D03*
X64485000Y-75132200D03*
X70210000Y-75132200D03*
X70210000Y-74482200D03*
X70210000Y-73832200D03*
X70210000Y-73182200D03*
X70210000Y-72532200D03*
X70210000Y-71882200D03*
X70210000Y-71232200D03*
X70210000Y-70582200D03*
X70210000Y-69932200D03*
X70210000Y-69282200D03*
%TD*%
D10*
%TO.C,R7*%
X76583400Y-89481200D03*
X76583400Y-88461200D03*
%TD*%
D18*
%TO.C,J4*%
X60657600Y-126182200D03*
D19*
X60657600Y-128722200D03*
%TD*%
D24*
%TO.C,C1*%
X60759200Y-68841400D03*
X60759200Y-70391400D03*
%TD*%
D21*
%TO.C,R3*%
X78943600Y-71267400D03*
X79963600Y-71267400D03*
%TD*%
%TO.C,R1*%
X78943600Y-69260800D03*
X79963600Y-69260800D03*
%TD*%
D24*
%TO.C,C2*%
X62257800Y-68841400D03*
X62257800Y-70391400D03*
%TD*%
D15*
%TO.C,H2*%
X84729000Y-68659000D03*
%TD*%
D17*
%TO.C,U2*%
X63970000Y-95001000D03*
X64620000Y-95001000D03*
X65270000Y-95001000D03*
X65920000Y-95001000D03*
X66570000Y-95001000D03*
X67220000Y-95001000D03*
X67870000Y-95001000D03*
X68520000Y-95001000D03*
X69170000Y-95001000D03*
X69820000Y-95001000D03*
X70470000Y-95001000D03*
X71120000Y-95001000D03*
X71120000Y-89276000D03*
X70470000Y-89276000D03*
X69820000Y-89276000D03*
X69170000Y-89276000D03*
X68520000Y-89276000D03*
X67870000Y-89276000D03*
X67220000Y-89276000D03*
X66570000Y-89276000D03*
X65920000Y-89276000D03*
X65270000Y-89276000D03*
X64620000Y-89276000D03*
X63970000Y-89276000D03*
%TD*%
D15*
%TO.C,H3*%
X56449000Y-129959000D03*
%TD*%
D25*
%TO.C,R4*%
X77523200Y-80841200D03*
X77523200Y-81861200D03*
%TD*%
D16*
%TO.C,R10*%
X64239000Y-82481000D03*
X64239000Y-80831000D03*
%TD*%
D19*
%TO.C,J2*%
X73129000Y-81529000D03*
X73129000Y-78989000D03*
X57889000Y-86609000D03*
X57889000Y-84069000D03*
X57889000Y-81529000D03*
D18*
X57889000Y-73909000D03*
D19*
X57889000Y-76449000D03*
X57889000Y-78989000D03*
X57889000Y-89149000D03*
X57889000Y-91689000D03*
X57889000Y-94229000D03*
X57889000Y-96769000D03*
X57889000Y-99309000D03*
X57889000Y-101849000D03*
X57889000Y-104389000D03*
X57889000Y-106929000D03*
X57889000Y-109469000D03*
X57889000Y-112009000D03*
X57889000Y-114549000D03*
X57889000Y-117089000D03*
X57889000Y-119629000D03*
X57889000Y-122169000D03*
D18*
X73129000Y-73909000D03*
D19*
X73129000Y-76449000D03*
X73129000Y-84069000D03*
X73129000Y-86609000D03*
X73129000Y-89149000D03*
X73129000Y-91689000D03*
X73129000Y-94229000D03*
X73129000Y-96769000D03*
X73129000Y-99309000D03*
X73129000Y-101849000D03*
X73129000Y-104389000D03*
X73129000Y-106929000D03*
X73129000Y-109469000D03*
X73129000Y-112009000D03*
X73129000Y-114549000D03*
X73129000Y-117089000D03*
X73129000Y-119629000D03*
X73129000Y-122169000D03*
%TD*%
M02*
