%TF.GenerationSoftware,KiCad,Pcbnew,9.0.6-9.0.6~ubuntu24.04.1*%
%TF.CreationDate,2025-12-07T17:22:10+00:00*%
%TF.ProjectId,board_722039m,626f6172-645f-4373-9232-3033396d2e6b,rev?*%
%TF.SameCoordinates,Original*%
%TF.FileFunction,Copper,L1,Top*%
%TF.FilePolarity,Positive*%
%FSLAX46Y46*%
G04 Gerber Fmt 4.6, Leading zero omitted, Abs format (unit mm)*
G04 Created by KiCad (PCBNEW 9.0.6-9.0.6~ubuntu24.04.1) date 2025-12-07 17:22:10*
%MOMM*%
%LPD*%
G01*
G04 APERTURE LIST*
G04 Aperture macros list*
%AMRoundRect*
0 Rectangle with rounded corners*
0 $1 Rounding radius*
0 $2 $3 $4 $5 $6 $7 $8 $9 X,Y pos of 4 corners*
0 Add a 4 corners polygon primitive as box body*
4,1,4,$2,$3,$4,$5,$6,$7,$8,$9,$2,$3,0*
0 Add four circle primitives for the rounded corners*
1,1,$1+$1,$2,$3*
1,1,$1+$1,$4,$5*
1,1,$1+$1,$6,$7*
1,1,$1+$1,$8,$9*
0 Add four rect primitives between the rounded corners*
20,1,$1+$1,$2,$3,$4,$5,0*
20,1,$1+$1,$4,$5,$6,$7,0*
20,1,$1+$1,$6,$7,$8,$9,0*
20,1,$1+$1,$8,$9,$2,$3,0*%
%AMFreePoly0*
4,1,23,0.550000,-0.750000,0.000000,-0.750000,0.000000,-0.745722,-0.065263,-0.745722,-0.191342,-0.711940,-0.304381,-0.646677,-0.396677,-0.554381,-0.461940,-0.441342,-0.495722,-0.315263,-0.495722,-0.250000,-0.500000,-0.250000,-0.500000,0.250000,-0.495722,0.250000,-0.495722,0.315263,-0.461940,0.441342,-0.396677,0.554381,-0.304381,0.646677,-0.191342,0.711940,-0.065263,0.745722,0.000000,0.745722,
0.000000,0.750000,0.550000,0.750000,0.550000,-0.750000,0.550000,-0.750000,$1*%
%AMFreePoly1*
4,1,23,0.000000,0.745722,0.065263,0.745722,0.191342,0.711940,0.304381,0.646677,0.396677,0.554381,0.461940,0.441342,0.495722,0.315263,0.495722,0.250000,0.500000,0.250000,0.500000,-0.250000,0.495722,-0.250000,0.495722,-0.315263,0.461940,-0.441342,0.396677,-0.554381,0.304381,-0.646677,0.191342,-0.711940,0.065263,-0.745722,0.000000,-0.745722,0.000000,-0.750000,-0.550000,-0.750000,
-0.550000,0.750000,0.000000,0.750000,0.000000,0.745722,0.000000,0.745722,$1*%
%AMFreePoly2*
4,1,37,0.603843,0.796157,0.639018,0.796157,0.711114,0.766294,0.766294,0.711114,0.796157,0.639018,0.796157,0.603843,0.800000,0.600000,0.800000,-0.600000,0.796157,-0.603843,0.796157,-0.639018,0.766294,-0.711114,0.711114,-0.766294,0.639018,-0.796157,0.603843,-0.796157,0.600000,-0.800000,0.000000,-0.800000,0.000000,-0.796148,-0.078414,-0.796148,-0.232228,-0.765552,-0.377117,-0.705537,
-0.507515,-0.618408,-0.618408,-0.507515,-0.705537,-0.377117,-0.765552,-0.232228,-0.796148,-0.078414,-0.796148,0.078414,-0.765552,0.232228,-0.705537,0.377117,-0.618408,0.507515,-0.507515,0.618408,-0.377117,0.705537,-0.232228,0.765552,-0.078414,0.796148,0.000000,0.796148,0.000000,0.800000,0.600000,0.800000,0.603843,0.796157,0.603843,0.796157,$1*%
%AMFreePoly3*
4,1,37,0.000000,0.796148,0.078414,0.796148,0.232228,0.765552,0.377117,0.705537,0.507515,0.618408,0.618408,0.507515,0.705537,0.377117,0.765552,0.232228,0.796148,0.078414,0.796148,-0.078414,0.765552,-0.232228,0.705537,-0.377117,0.618408,-0.507515,0.507515,-0.618408,0.377117,-0.705537,0.232228,-0.765552,0.078414,-0.796148,0.000000,-0.796148,0.000000,-0.800000,-0.600000,-0.800000,
-0.603843,-0.796157,-0.639018,-0.796157,-0.711114,-0.766294,-0.766294,-0.711114,-0.796157,-0.639018,-0.796157,-0.603843,-0.800000,-0.600000,-0.800000,0.600000,-0.796157,0.603843,-0.796157,0.639018,-0.766294,0.711114,-0.711114,0.766294,-0.639018,0.796157,-0.603843,0.796157,-0.600000,0.800000,0.000000,0.800000,0.000000,0.796148,0.000000,0.796148,$1*%
G04 Aperture macros list end*
%TA.AperFunction,ComponentPad*%
%ADD10RoundRect,0.250000X-0.550000X-0.550000X0.550000X-0.550000X0.550000X0.550000X-0.550000X0.550000X0*%
%TD*%
%TA.AperFunction,ComponentPad*%
%ADD11C,1.600000*%
%TD*%
%TA.AperFunction,SMDPad,CuDef*%
%ADD12RoundRect,0.140000X-0.140000X-0.170000X0.140000X-0.170000X0.140000X0.170000X-0.140000X0.170000X0*%
%TD*%
%TA.AperFunction,SMDPad,CuDef*%
%ADD13RoundRect,0.135000X0.185000X-0.135000X0.185000X0.135000X-0.185000X0.135000X-0.185000X-0.135000X0*%
%TD*%
%TA.AperFunction,SMDPad,CuDef*%
%ADD14RoundRect,0.075000X0.662500X0.075000X-0.662500X0.075000X-0.662500X-0.075000X0.662500X-0.075000X0*%
%TD*%
%TA.AperFunction,SMDPad,CuDef*%
%ADD15FreePoly0,270.000000*%
%TD*%
%TA.AperFunction,SMDPad,CuDef*%
%ADD16R,1.500000X1.000000*%
%TD*%
%TA.AperFunction,SMDPad,CuDef*%
%ADD17FreePoly1,270.000000*%
%TD*%
%TA.AperFunction,SMDPad,CuDef*%
%ADD18RoundRect,0.225000X-0.250000X0.225000X-0.250000X-0.225000X0.250000X-0.225000X0.250000X0.225000X0*%
%TD*%
%TA.AperFunction,SMDPad,CuDef*%
%ADD19RoundRect,0.250000X-0.070711X-0.565685X0.565685X0.070711X0.070711X0.565685X-0.565685X-0.070711X0*%
%TD*%
%TA.AperFunction,SMDPad,CuDef*%
%ADD20RoundRect,0.225000X-0.225000X-0.250000X0.225000X-0.250000X0.225000X0.250000X-0.225000X0.250000X0*%
%TD*%
%TA.AperFunction,SMDPad,CuDef*%
%ADD21RoundRect,0.112500X-0.112500X0.187500X-0.112500X-0.187500X0.112500X-0.187500X0.112500X0.187500X0*%
%TD*%
%TA.AperFunction,ComponentPad*%
%ADD22RoundRect,0.200000X-0.600000X-0.600000X0.600000X-0.600000X0.600000X0.600000X-0.600000X0.600000X0*%
%TD*%
%TA.AperFunction,ComponentPad*%
%ADD23FreePoly2,0.000000*%
%TD*%
%TA.AperFunction,ComponentPad*%
%ADD24FreePoly3,0.000000*%
%TD*%
%TA.AperFunction,SMDPad,CuDef*%
%ADD25RoundRect,0.200000X0.200000X0.275000X-0.200000X0.275000X-0.200000X-0.275000X0.200000X-0.275000X0*%
%TD*%
%TA.AperFunction,SMDPad,CuDef*%
%ADD26RoundRect,0.200000X-0.200000X-0.275000X0.200000X-0.275000X0.200000X0.275000X-0.200000X0.275000X0*%
%TD*%
%TA.AperFunction,SMDPad,CuDef*%
%ADD27FreePoly0,90.000000*%
%TD*%
%TA.AperFunction,SMDPad,CuDef*%
%ADD28FreePoly1,90.000000*%
%TD*%
%TA.AperFunction,SMDPad,CuDef*%
%ADD29RoundRect,0.200000X-0.275000X0.200000X-0.275000X-0.200000X0.275000X-0.200000X0.275000X0.200000X0*%
%TD*%
%TA.AperFunction,ComponentPad*%
%ADD30R,1.700000X1.700000*%
%TD*%
%TA.AperFunction,ComponentPad*%
%ADD31C,1.700000*%
%TD*%
%TA.AperFunction,ViaPad*%
%ADD32C,0.600000*%
%TD*%
%TA.AperFunction,Conductor*%
%ADD33C,0.200000*%
%TD*%
%TA.AperFunction,Conductor*%
%ADD34C,0.400000*%
%TD*%
%TA.AperFunction,Conductor*%
%ADD35C,1.500000*%
%TD*%
G04 APERTURE END LIST*
D10*
%TO.P,U1,1,P1.0/T2*%
%TO.N,/STANDBY*%
X62120000Y-37880000D03*
D11*
%TO.P,U1,2,P1.1/T2EX*%
%TO.N,/KEYB{slash}TX*%
X62120000Y-40420000D03*
%TO.P,U1,3,P1.2*%
%TO.N,/KEYB{slash}RX*%
X62120000Y-42960000D03*
%TO.P,U1,4,P1.3*%
%TO.N,/MODEM{slash}CD*%
X62120000Y-45500000D03*
%TO.P,U1,5,P1.4*%
%TO.N,/MODEM{slash}RELAY*%
X62120000Y-48040000D03*
%TO.P,U1,6,P1.5*%
%TO.N,/MODEM{slash}RTS*%
X62120000Y-50580000D03*
%TO.P,U1,7,P1.6*%
%TO.N,/MODEM{slash}TX*%
X62120000Y-53120000D03*
%TO.P,U1,8,P1.7*%
%TO.N,/PERI{slash}PTIN*%
X62120000Y-55660000D03*
%TO.P,U1,9,RST*%
%TO.N,Net-(U1-RST)*%
X62120000Y-58200000D03*
%TO.P,U1,10,P3.0/RXD*%
%TO.N,/PERI{slash}RX*%
X62120000Y-60740000D03*
%TO.P,U1,11,P3.1/TXD*%
%TO.N,/PERI{slash}TX*%
X62120000Y-63280000D03*
%TO.P,U1,12,P3.2/~{INT0}*%
%TO.N,GND*%
X62120000Y-65820000D03*
%TO.P,U1,13,P3.3/~{INT1}*%
%TO.N,/MODEM{slash}RX*%
X62120000Y-68360000D03*
%TO.P,U1,14,P3.4/T0*%
%TO.N,/PERI{slash}PTOUT*%
X62120000Y-70900000D03*
%TO.P,U1,15,P3.5/T1*%
%TO.N,/MODEM{slash}REVERSAL*%
X62120000Y-73440000D03*
%TO.P,U1,16,P3.6/~{WR}*%
%TO.N,/BUS{slash}WR*%
X62120000Y-75980000D03*
%TO.P,U1,17,P3.7/~{RD}*%
%TO.N,/BUS{slash}RD*%
X62120000Y-78520000D03*
%TO.P,U1,18,XTAL2*%
%TO.N,Net-(JP2-C)*%
X62120000Y-81060000D03*
%TO.P,U1,19,XTAL1*%
%TO.N,Net-(JP1-C)*%
X62120000Y-83600000D03*
%TO.P,U1,20,VSS*%
%TO.N,GND*%
X62120000Y-86140000D03*
%TO.P,U1,21,P2.0/A8*%
%TO.N,/BUS{slash}A8*%
X77360000Y-86140000D03*
%TO.P,U1,22,P2.1/A9*%
%TO.N,/BUS{slash}A9*%
X77360000Y-83600000D03*
%TO.P,U1,23,P2.2/A10*%
%TO.N,/BUS{slash}A10*%
X77360000Y-81060000D03*
%TO.P,U1,24,P2.3/A11*%
%TO.N,/BUS{slash}A11*%
X77360000Y-78520000D03*
%TO.P,U1,25,P2.4/A12*%
%TO.N,/BUS{slash}A12*%
X77360000Y-75980000D03*
%TO.P,U1,26,P2.5/A13*%
%TO.N,/BUS{slash}A13*%
X77360000Y-73440000D03*
%TO.P,U1,27,P2.6/A14*%
%TO.N,/BUS{slash}A14*%
X77360000Y-70900000D03*
%TO.P,U1,28,P2.7/A15*%
%TO.N,/BUS{slash}A15*%
X77360000Y-68360000D03*
%TO.P,U1,29,~{PSEN}*%
%TO.N,/BUS{slash}PSEN*%
X77360000Y-65820000D03*
%TO.P,U1,30,ALE*%
%TO.N,/BUS{slash}ALE*%
X77360000Y-63280000D03*
%TO.P,U1,31,~{EA}*%
%TO.N,GND*%
X77360000Y-60740000D03*
%TO.P,U1,32,P0.7/AD7*%
%TO.N,/BUS{slash}AD7*%
X77360000Y-58200000D03*
%TO.P,U1,33,P0.6/AD6*%
%TO.N,/BUS{slash}AD6*%
X77360000Y-55660000D03*
%TO.P,U1,34,P0.5/AD5*%
%TO.N,/BUS{slash}AD5*%
X77360000Y-53120000D03*
%TO.P,U1,35,P0.4/AD4*%
%TO.N,/BUS{slash}AD4*%
X77360000Y-50580000D03*
%TO.P,U1,36,P0.3/AD3*%
%TO.N,/BUS{slash}AD3*%
X77360000Y-48040000D03*
%TO.P,U1,37,P0.2/AD2*%
%TO.N,/BUS{slash}AD2*%
X77360000Y-45500000D03*
%TO.P,U1,38,P0.1/AD1*%
%TO.N,/BUS{slash}AD1*%
X77360000Y-42960000D03*
%TO.P,U1,39,P0.0/AD0*%
%TO.N,/BUS{slash}AD0*%
X77360000Y-40420000D03*
%TO.P,U1,40,VCC*%
%TO.N,+5V*%
X77360000Y-37880000D03*
%TD*%
D12*
%TO.P,C5,1*%
%TO.N,GND*%
X49784000Y-78994000D03*
%TO.P,C5,2*%
%TO.N,Net-(JP2-B)*%
X50744000Y-78994000D03*
%TD*%
D13*
%TO.P,R5,1*%
%TO.N,+3V3*%
X100982000Y-75948000D03*
%TO.P,R5,2*%
%TO.N,Net-(U3-1A1)*%
X100982000Y-74928000D03*
%TD*%
D14*
%TO.P,U3,1,NC*%
%TO.N,unconnected-(U3-NC-Pad1)*%
X98090500Y-72570000D03*
%TO.P,U3,2,1A1*%
%TO.N,Net-(U3-1A1)*%
X98090500Y-72070000D03*
%TO.P,U3,3,1A2*%
%TO.N,Net-(U3-1A2)*%
X98090500Y-71570000D03*
%TO.P,U3,4,1A3*%
%TO.N,Net-(U3-1A3)*%
X98090500Y-71070000D03*
%TO.P,U3,5,1A4*%
%TO.N,/PICO{slash}A8*%
X98090500Y-70570000D03*
%TO.P,U3,6,1A5*%
%TO.N,/PICO{slash}A9*%
X98090500Y-70070000D03*
%TO.P,U3,7,1A6*%
%TO.N,/PICO{slash}A10*%
X98090500Y-69570000D03*
%TO.P,U3,8,GND*%
%TO.N,GND*%
X98090500Y-69070000D03*
%TO.P,U3,9,1A7*%
%TO.N,/PICO{slash}A11*%
X98090500Y-68570000D03*
%TO.P,U3,10,1A8*%
%TO.N,/PICO{slash}A12*%
X98090500Y-68070000D03*
%TO.P,U3,11,1A9*%
%TO.N,/PICO{slash}RD*%
X98090500Y-67570000D03*
%TO.P,U3,12,1A10*%
%TO.N,/PICO{slash}A13*%
X98090500Y-67070000D03*
%TO.P,U3,13,1A11*%
%TO.N,/PICO{slash}WR*%
X98090500Y-66570000D03*
%TO.P,U3,14,1A12*%
%TO.N,/PICO{slash}A14*%
X98090500Y-66070000D03*
%TO.P,U3,15,2A1*%
%TO.N,/PICO{slash}A15*%
X98090500Y-65570000D03*
%TO.P,U3,16,2A2*%
%TO.N,Net-(J2-GPIO18)*%
X98090500Y-65070000D03*
%TO.P,U3,17,VCC*%
%TO.N,+3V3*%
X98090500Y-64570000D03*
%TO.P,U3,18,2A3*%
%TO.N,/PICO{slash}PSEN*%
X98090500Y-64070000D03*
%TO.P,U3,19,GND*%
%TO.N,GND*%
X98090500Y-63570000D03*
%TO.P,U3,20,2A4*%
%TO.N,/PICO{slash}ALE*%
X98090500Y-63070000D03*
%TO.P,U3,21,2A5*%
%TO.N,/PICO{slash}AD7*%
X98090500Y-62570000D03*
%TO.P,U3,22,2A6*%
%TO.N,/PICO{slash}AD6*%
X98090500Y-62070000D03*
%TO.P,U3,23,2A7*%
%TO.N,/PICO{slash}AD5*%
X98090500Y-61570000D03*
%TO.P,U3,24,2A8*%
%TO.N,/PICO{slash}AD4*%
X98090500Y-61070000D03*
%TO.P,U3,25,2A9*%
%TO.N,/PICO{slash}AD3*%
X98090500Y-60570000D03*
%TO.P,U3,26,2A10*%
%TO.N,/PICO{slash}AD2*%
X98090500Y-60070000D03*
%TO.P,U3,27,2A11*%
%TO.N,/PICO{slash}AD1*%
X98090500Y-59570000D03*
%TO.P,U3,28,2A12*%
%TO.N,/PICO{slash}AD0*%
X98090500Y-59070000D03*
%TO.P,U3,29,2B12*%
%TO.N,/BUS{slash}AD0*%
X90665500Y-59070000D03*
%TO.P,U3,30,2B11*%
%TO.N,/BUS{slash}AD1*%
X90665500Y-59570000D03*
%TO.P,U3,31,2B10*%
%TO.N,/BUS{slash}AD2*%
X90665500Y-60070000D03*
%TO.P,U3,32,2B9*%
%TO.N,/BUS{slash}AD3*%
X90665500Y-60570000D03*
%TO.P,U3,33,2B8*%
%TO.N,/BUS{slash}AD4*%
X90665500Y-61070000D03*
%TO.P,U3,34,2B7*%
%TO.N,/BUS{slash}AD5*%
X90665500Y-61570000D03*
%TO.P,U3,35,2B6*%
%TO.N,/BUS{slash}AD6*%
X90665500Y-62070000D03*
%TO.P,U3,36,2B5*%
%TO.N,/BUS{slash}AD7*%
X90665500Y-62570000D03*
%TO.P,U3,37,2B4*%
%TO.N,/BUS{slash}ALE*%
X90665500Y-63070000D03*
%TO.P,U3,38,GND*%
%TO.N,GND*%
X90665500Y-63570000D03*
%TO.P,U3,39,2B3*%
%TO.N,/BUS{slash}PSEN*%
X90665500Y-64070000D03*
%TO.P,U3,40,2B2*%
%TO.N,Net-(U1-RST)*%
X90665500Y-64570000D03*
%TO.P,U3,41,2B1*%
%TO.N,/BUS{slash}A15*%
X90665500Y-65070000D03*
%TO.P,U3,42,1B12*%
%TO.N,/BUS{slash}A14*%
X90665500Y-65570000D03*
%TO.P,U3,43,1B11*%
%TO.N,/BUS{slash}WR*%
X90665500Y-66070000D03*
%TO.P,U3,44,1B10*%
%TO.N,/BUS{slash}A13*%
X90665500Y-66570000D03*
%TO.P,U3,45,1B9*%
%TO.N,/BUS{slash}RD*%
X90665500Y-67070000D03*
%TO.P,U3,46,1B8*%
%TO.N,/BUS{slash}A12*%
X90665500Y-67570000D03*
%TO.P,U3,47,1B7*%
%TO.N,/BUS{slash}A11*%
X90665500Y-68070000D03*
%TO.P,U3,48,1B6*%
%TO.N,/BUS{slash}A10*%
X90665500Y-68570000D03*
%TO.P,U3,49,GND*%
%TO.N,GND*%
X90665500Y-69070000D03*
%TO.P,U3,50,1B5*%
%TO.N,/BUS{slash}A9*%
X90665500Y-69570000D03*
%TO.P,U3,51,1B4*%
%TO.N,/BUS{slash}A8*%
X90665500Y-70070000D03*
%TO.P,U3,52,1B3*%
%TO.N,unconnected-(U3-1B3-Pad52)*%
X90665500Y-70570000D03*
%TO.P,U3,53,1B2*%
%TO.N,unconnected-(U3-1B2-Pad53)*%
X90665500Y-71070000D03*
%TO.P,U3,54,1B1*%
%TO.N,unconnected-(U3-1B1-Pad54)*%
X90665500Y-71570000D03*
%TO.P,U3,55,2~{OE}*%
%TO.N,/PICO{slash}BUS_EN*%
X90665500Y-72070000D03*
%TO.P,U3,56,1~{OE}*%
X90665500Y-72570000D03*
%TD*%
D13*
%TO.P,R4,1*%
%TO.N,+3V3*%
X99458000Y-75950000D03*
%TO.P,R4,2*%
%TO.N,Net-(U3-1A2)*%
X99458000Y-74930000D03*
%TD*%
D15*
%TO.P,JP2,1,A*%
%TO.N,/EXTCLK*%
X57040000Y-78460000D03*
D16*
%TO.P,JP2,2,C*%
%TO.N,Net-(JP2-C)*%
X57040000Y-79760000D03*
D17*
%TO.P,JP2,3,B*%
%TO.N,Net-(JP2-B)*%
X57040000Y-81060000D03*
%TD*%
D18*
%TO.P,C2,1*%
%TO.N,+5V*%
X83820000Y-38227000D03*
%TO.P,C2,2*%
%TO.N,GND*%
X83820000Y-39777000D03*
%TD*%
D19*
%TO.P,Y1,1,1*%
%TO.N,Net-(JP1-B)*%
X51021223Y-83708858D03*
%TO.P,Y1,2,2*%
%TO.N,GND*%
X52576858Y-82153223D03*
%TO.P,Y1,3,3*%
%TO.N,Net-(JP2-B)*%
X51374777Y-80951142D03*
%TO.P,Y1,4,4*%
%TO.N,GND*%
X49819142Y-82506777D03*
%TD*%
D20*
%TO.P,C3,1*%
%TO.N,+3V3*%
X95876000Y-57438000D03*
%TO.P,C3,2*%
%TO.N,GND*%
X97426000Y-57438000D03*
%TD*%
D21*
%TO.P,D1,1,K*%
%TO.N,Net-(D1-K)*%
X91440000Y-35145000D03*
%TO.P,D1,2,A*%
%TO.N,+5V*%
X91440000Y-37245000D03*
%TD*%
D22*
%TO.P,J2,1,GPIO0*%
%TO.N,/PICO{slash}AD0*%
X107840000Y-37880000D03*
D11*
%TO.P,J2,2,GPIO1*%
%TO.N,/PICO{slash}AD1*%
X107840000Y-40420000D03*
D23*
%TO.P,J2,3,GND*%
%TO.N,GND*%
X107840000Y-42960000D03*
D11*
%TO.P,J2,4,GPIO2*%
%TO.N,/PICO{slash}AD2*%
X107840000Y-45500000D03*
%TO.P,J2,5,GPIO3*%
%TO.N,/PICO{slash}AD3*%
X107840000Y-48040000D03*
%TO.P,J2,6,GPIO4*%
%TO.N,/PICO{slash}AD4*%
X107840000Y-50580000D03*
%TO.P,J2,7,GPIO5*%
%TO.N,/PICO{slash}AD5*%
X107840000Y-53120000D03*
D23*
%TO.P,J2,8,GND*%
%TO.N,GND*%
X107840000Y-55660000D03*
D11*
%TO.P,J2,9,GPIO6*%
%TO.N,/PICO{slash}AD6*%
X107840000Y-58200000D03*
%TO.P,J2,10,GPIO7*%
%TO.N,/PICO{slash}AD7*%
X107840000Y-60740000D03*
%TO.P,J2,11,GPIO8*%
%TO.N,/PICO{slash}A15*%
X107840000Y-63280000D03*
%TO.P,J2,12,GPIO9*%
%TO.N,/PICO{slash}A14*%
X107840000Y-65820000D03*
D23*
%TO.P,J2,13,GND*%
%TO.N,GND*%
X107840000Y-68360000D03*
D11*
%TO.P,J2,14,GPIO10*%
%TO.N,/PICO{slash}A13*%
X107840000Y-70900000D03*
%TO.P,J2,15,GPIO11*%
%TO.N,/PICO{slash}A12*%
X107840000Y-73440000D03*
%TO.P,J2,16,GPIO12*%
%TO.N,/PICO{slash}A11*%
X107840000Y-75980000D03*
%TO.P,J2,17,GPIO13*%
%TO.N,/PICO{slash}A10*%
X107840000Y-78520000D03*
D23*
%TO.P,J2,18,GND*%
%TO.N,GND*%
X107840000Y-81060000D03*
D11*
%TO.P,J2,19,GPIO14*%
%TO.N,/PICO{slash}A9*%
X107840000Y-83600000D03*
%TO.P,J2,20,GPIO15*%
%TO.N,/PICO{slash}A8*%
X107840000Y-86140000D03*
%TO.P,J2,21,GPIO16*%
%TO.N,/BACKUP{slash}MOSI*%
X125620000Y-86140000D03*
%TO.P,J2,22,GPIO17*%
%TO.N,/BACKUP{slash}MISO*%
X125620000Y-83600000D03*
D24*
%TO.P,J2,23,GND*%
%TO.N,GND*%
X125620000Y-81060000D03*
D11*
%TO.P,J2,24,GPIO18*%
%TO.N,Net-(J2-GPIO18)*%
X125620000Y-78520000D03*
%TO.P,J2,25,GPIO19*%
%TO.N,/PICO{slash}ALE*%
X125620000Y-75980000D03*
%TO.P,J2,26,GPIO20*%
%TO.N,/PICO{slash}PSEN*%
X125620000Y-73440000D03*
%TO.P,J2,27,GPIO21*%
%TO.N,/PICO{slash}WR*%
X125620000Y-70900000D03*
D24*
%TO.P,J2,28,GND*%
%TO.N,GND*%
X125620000Y-68360000D03*
D11*
%TO.P,J2,29,GPIO22*%
%TO.N,/PICO{slash}RD*%
X125620000Y-65820000D03*
%TO.P,J2,30,RUN*%
%TO.N,unconnected-(J2-RUN-Pad30)*%
X125620000Y-63280000D03*
%TO.P,J2,31,GPIO26/ADC0*%
%TO.N,/BACKUP{slash}SCK*%
X125620000Y-60740000D03*
%TO.P,J2,32,GPIO27/ADC1*%
%TO.N,/BACKUP{slash}CS*%
X125620000Y-58200000D03*
D24*
%TO.P,J2,33,AGND*%
%TO.N,GND*%
X125620000Y-55660000D03*
D11*
%TO.P,J2,34,GPIO28/ADC2*%
%TO.N,/PICO{slash}BUS_EN*%
X125620000Y-53120000D03*
%TO.P,J2,35,ADC_VREF*%
%TO.N,unconnected-(J2-ADC_VREF-Pad35)*%
X125620000Y-50580000D03*
%TO.P,J2,36,3V3*%
%TO.N,+3V3*%
X125620000Y-48040000D03*
%TO.P,J2,37,3V3_EN*%
%TO.N,unconnected-(J2-3V3_EN-Pad37)*%
X125620000Y-45500000D03*
D24*
%TO.P,J2,38,GND*%
%TO.N,GND*%
X125620000Y-42960000D03*
D11*
%TO.P,J2,39,VSYS*%
%TO.N,Net-(D1-K)*%
X125620000Y-40420000D03*
%TO.P,J2,40,VBUS*%
%TO.N,unconnected-(J2-VBUS-Pad40)*%
X125620000Y-37880000D03*
%TD*%
D25*
%TO.P,R1,1*%
%TO.N,+3V3*%
X101663000Y-77851000D03*
%TO.P,R1,2*%
%TO.N,/PICO{slash}BUS_EN*%
X100013000Y-77851000D03*
%TD*%
D26*
%TO.P,R2,1*%
%TO.N,+5V*%
X57278000Y-61214000D03*
%TO.P,R2,2*%
%TO.N,Net-(U1-RST)*%
X58928000Y-61214000D03*
%TD*%
D12*
%TO.P,C4,1*%
%TO.N,GND*%
X49812000Y-85852000D03*
%TO.P,C4,2*%
%TO.N,Net-(JP1-B)*%
X50772000Y-85852000D03*
%TD*%
D27*
%TO.P,JP1,1,A*%
%TO.N,GND*%
X57040000Y-86140000D03*
D16*
%TO.P,JP1,2,C*%
%TO.N,Net-(JP1-C)*%
X57040000Y-84840000D03*
D28*
%TO.P,JP1,3,B*%
%TO.N,Net-(JP1-B)*%
X57040000Y-83540000D03*
%TD*%
D13*
%TO.P,R3,1*%
%TO.N,+3V3*%
X97934000Y-75950000D03*
%TO.P,R3,2*%
%TO.N,Net-(U3-1A3)*%
X97934000Y-74930000D03*
%TD*%
D29*
%TO.P,R6,1*%
%TO.N,+3V3*%
X133604000Y-52274000D03*
%TO.P,R6,2*%
%TO.N,/BACKUP{slash}CS*%
X133604000Y-53924000D03*
%TD*%
D18*
%TO.P,C1,1*%
%TO.N,+5V*%
X82042000Y-38227000D03*
%TO.P,C1,2*%
%TO.N,GND*%
X82042000Y-39777000D03*
%TD*%
%TO.P,C6,1*%
%TO.N,+3V3*%
X137160000Y-52324000D03*
%TO.P,C6,2*%
%TO.N,GND*%
X137160000Y-53874000D03*
%TD*%
D30*
%TO.P,J1,1,GND*%
%TO.N,GND*%
X128160000Y-96300000D03*
D31*
%TO.P,J1,2,+12V(?)*%
%TO.N,unconnected-(J1-+12V(?)-Pad2)*%
X125620000Y-96300000D03*
%TO.P,J1,3,-12V(?)*%
%TO.N,unconnected-(J1--12V(?)-Pad3)*%
X123080000Y-96300000D03*
%TO.P,J1,4,+8V(?)*%
%TO.N,unconnected-(J1-+8V(?)-Pad4)*%
X120540000Y-96300000D03*
%TO.P,J1,5,VV*%
%TO.N,/STANDBY*%
X118000000Y-96300000D03*
%TO.P,J1,6,TPV*%
%TO.N,/KEYB{slash}RX*%
X115460000Y-96300000D03*
%TO.P,J1,7,TVP*%
%TO.N,/KEYB{slash}TX*%
X112920000Y-96300000D03*
%TO.P,J1,8,PTOUT*%
%TO.N,/PERI{slash}PTOUT*%
X110380000Y-96300000D03*
%TO.P,J1,9,PTIN*%
%TO.N,/PERI{slash}PTIN*%
X107840000Y-96300000D03*
%TO.P,J1,10,+5V*%
%TO.N,+5V*%
X105300000Y-96300000D03*
%TO.P,J1,11,WRN*%
%TO.N,/BUS{slash}WR*%
X102760000Y-96300000D03*
%TO.P,J1,12,AD0*%
%TO.N,/BUS{slash}AD0*%
X100220000Y-96300000D03*
%TO.P,J1,13,AD1*%
%TO.N,/BUS{slash}AD1*%
X97680000Y-96300000D03*
%TO.P,J1,14,AD2*%
%TO.N,/BUS{slash}AD2*%
X95140000Y-96300000D03*
%TO.P,J1,15,RDN*%
%TO.N,/BUS{slash}RD*%
X92600000Y-96300000D03*
%TO.P,J1,16,ALE*%
%TO.N,/BUS{slash}ALE*%
X90060000Y-96300000D03*
%TO.P,J1,17,CSVGP*%
%TO.N,/BUS{slash}A15*%
X87520000Y-96300000D03*
%TO.P,J1,18,AD7*%
%TO.N,/BUS{slash}AD7*%
X84980000Y-96300000D03*
%TO.P,J1,19,AD6*%
%TO.N,/BUS{slash}AD6*%
X82440000Y-96300000D03*
%TO.P,J1,20,AD5*%
%TO.N,/BUS{slash}AD5*%
X79900000Y-96300000D03*
%TO.P,J1,21,AD3*%
%TO.N,/BUS{slash}AD3*%
X77360000Y-96300000D03*
%TO.P,J1,22,AD4*%
%TO.N,/BUS{slash}AD4*%
X74820000Y-96300000D03*
%TO.P,J1,23,V_{BAT}*%
%TO.N,+BATT*%
X72280000Y-96300000D03*
%TO.P,J1,24,12MHz*%
%TO.N,/EXTCLK*%
X69740000Y-96300000D03*
%TO.P,J1,25,RXP*%
%TO.N,/PERI{slash}RX*%
X67200000Y-96300000D03*
%TO.P,J1,26,MLN*%
%TO.N,/MODEM{slash}RELAY*%
X64660000Y-96300000D03*
%TO.P,J1,27,TXP*%
%TO.N,/PERI{slash}TX*%
X62120000Y-96300000D03*
%TO.P,J1,28,RXDN*%
%TO.N,/MODEM{slash}RX*%
X59580000Y-96300000D03*
%TO.P,J1,29,DPN*%
%TO.N,/MODEM{slash}CD*%
X57040000Y-96300000D03*
%TO.P,J1,30,REV*%
%TO.N,/MODEM{slash}REVERSAL*%
X54500000Y-96300000D03*
%TO.P,J1,31,TDN*%
%TO.N,/MODEM{slash}TX*%
X51960000Y-96300000D03*
%TO.P,J1,32,DPEN*%
%TO.N,/MODEM{slash}RTS*%
X49420000Y-96300000D03*
%TD*%
D10*
%TO.P,U2,1,~{CS}*%
%TO.N,/BACKUP{slash}CS*%
X130700000Y-58200000D03*
D11*
%TO.P,U2,2,MISO*%
%TO.N,/BACKUP{slash}MISO*%
X130700000Y-60740000D03*
%TO.P,U2,3,NC*%
%TO.N,unconnected-(U2-NC-Pad3)*%
X130700000Y-63280000D03*
%TO.P,U2,4,GND*%
%TO.N,GND*%
X130700000Y-65820000D03*
%TO.P,U2,5,MOSI*%
%TO.N,/BACKUP{slash}MOSI*%
X138320000Y-65820000D03*
%TO.P,U2,6,SCK*%
%TO.N,/BACKUP{slash}SCK*%
X138320000Y-63280000D03*
%TO.P,U2,7,V_{BAT}*%
%TO.N,+BATT*%
X138320000Y-60740000D03*
%TO.P,U2,8,VCC*%
%TO.N,+3V3*%
X138320000Y-58200000D03*
%TD*%
D32*
%TO.N,/MODEM{slash}REVERSAL*%
X52468000Y-73440000D03*
%TO.N,/PERI{slash}TX*%
X57040000Y-68326000D03*
%TO.N,/BUS{slash}RD*%
X92004412Y-67090000D03*
X79138000Y-72932000D03*
X86504000Y-76996000D03*
%TO.N,/PERI{slash}PTIN*%
X68470000Y-92998000D03*
%TO.N,/MODEM{slash}RTS*%
X49420000Y-63500000D03*
%TO.N,/BUS{slash}WR*%
X89125000Y-72251000D03*
X79138000Y-69630000D03*
X92004412Y-66074000D03*
%TO.N,/BUS{slash}ALE*%
X89255600Y-63271400D03*
X85742000Y-76234000D03*
%TO.N,/KEYB{slash}TX*%
X71772000Y-92236000D03*
%TO.N,/MODEM{slash}TX*%
X50944000Y-64516000D03*
%TO.N,/BUS{slash}AD0*%
X87520000Y-73440000D03*
X90665500Y-58200000D03*
%TO.N,GND*%
X82956400Y-40741600D03*
X96954000Y-63570000D03*
X91802000Y-63570000D03*
X96970000Y-69070000D03*
X91786000Y-69070000D03*
%TO.N,/BUS{slash}AD3*%
X81170000Y-51850000D03*
X81170000Y-85632000D03*
%TO.N,+5V*%
X60706000Y-56896000D03*
%TO.N,/STANDBY*%
X73296000Y-89823000D03*
%TO.N,/BUS{slash}AD1*%
X86758000Y-74202000D03*
X89292088Y-58967912D03*
%TO.N,/BUS{slash}AD2*%
X85996000Y-74964000D03*
X88028000Y-58962000D03*
%TO.N,/PERI{slash}PTOUT*%
X67200000Y-90204000D03*
%TO.N,/BUS{slash}AD4*%
X80154000Y-86394000D03*
X80154000Y-52866000D03*
%TO.N,/MODEM{slash}RX*%
X55516000Y-70646000D03*
%TO.N,/KEYB{slash}RX*%
X70248000Y-90966000D03*
%TO.N,/BUS{slash}AD5*%
X82186000Y-84870000D03*
X82186000Y-56930000D03*
%TO.N,/BUS{slash}AD6*%
X83202000Y-84108000D03*
X83202000Y-59216000D03*
%TO.N,/BUS{slash}AD7*%
X84218000Y-61502000D03*
X84218000Y-83346000D03*
%TO.N,/PICO{slash}A15*%
X105554000Y-65820000D03*
%TO.N,/PICO{slash}A14*%
X104538000Y-66170000D03*
%TO.N,Net-(J2-GPIO18)*%
X114190000Y-67090000D03*
%TO.N,Net-(U1-RST)*%
X66548000Y-64550000D03*
X79222600Y-65278000D03*
%TO.N,/PICO{slash}ALE*%
X111650000Y-62010000D03*
%TO.N,/PICO{slash}PSEN*%
X116840000Y-64550000D03*
%TO.N,/PICO{slash}BUS_EN*%
X98806000Y-76962000D03*
X106349800Y-57226200D03*
X94742000Y-79502000D03*
%TD*%
D33*
%TO.N,/MODEM{slash}REVERSAL*%
X52468000Y-73440000D02*
X62120000Y-73440000D01*
%TO.N,/PERI{slash}TX*%
X57040000Y-68326000D02*
X57074000Y-68326000D01*
X57074000Y-68326000D02*
X62120000Y-63280000D01*
%TO.N,Net-(JP1-B)*%
X56871142Y-83708858D02*
X57040000Y-83540000D01*
X50920000Y-85852000D02*
X50920000Y-83958081D01*
X51021223Y-83708858D02*
X56871142Y-83708858D01*
%TO.N,/BUS{slash}RD*%
X90665500Y-67070000D02*
X91984412Y-67070000D01*
X86504000Y-79028000D02*
X92600000Y-85124000D01*
X86758000Y-67070000D02*
X85000000Y-67070000D01*
X91984412Y-67070000D02*
X92004412Y-67090000D01*
X86504000Y-76996000D02*
X86504000Y-79028000D01*
X85000000Y-67070000D02*
X79138000Y-72932000D01*
X92600000Y-85124000D02*
X92600000Y-96300000D01*
X90665500Y-67070000D02*
X86758000Y-67070000D01*
%TO.N,/PERI{slash}PTIN*%
X68724000Y-92744000D02*
X68724000Y-62264000D01*
X68724000Y-62264000D02*
X62120000Y-55660000D01*
X68470000Y-92998000D02*
X68724000Y-92744000D01*
%TO.N,/MODEM{slash}RTS*%
X49420000Y-63280000D02*
X49420000Y-63500000D01*
X62120000Y-50580000D02*
X49420000Y-63280000D01*
%TO.N,/BUS{slash}WR*%
X89125000Y-72251000D02*
X89044000Y-72332000D01*
X90568000Y-76996000D02*
X102760000Y-89188000D01*
X92000412Y-66070000D02*
X92004412Y-66074000D01*
X82952000Y-66070000D02*
X90665500Y-66070000D01*
X89044000Y-72332000D02*
X89044000Y-72505000D01*
X79138000Y-69630000D02*
X79392000Y-69630000D01*
X102760000Y-89188000D02*
X102760000Y-96300000D01*
X90568000Y-74029000D02*
X90568000Y-76996000D01*
X89044000Y-72505000D02*
X90568000Y-74029000D01*
X90665500Y-66070000D02*
X92000412Y-66070000D01*
X79392000Y-69630000D02*
X82952000Y-66070000D01*
%TO.N,Net-(JP2-B)*%
X56931142Y-80951142D02*
X51374777Y-80951142D01*
X50874858Y-80951142D02*
X50800000Y-81026000D01*
X50744000Y-78994000D02*
X50800000Y-79050000D01*
X57040000Y-81060000D02*
X56931142Y-80951142D01*
X50920000Y-79050000D02*
X50920000Y-81026000D01*
%TO.N,/BUS{slash}ALE*%
X85488000Y-76488000D02*
X85742000Y-76234000D01*
X90060000Y-96300000D02*
X90060000Y-84108000D01*
X77360000Y-63280000D02*
X77570000Y-63070000D01*
X85488000Y-79536000D02*
X85488000Y-76488000D01*
X90060000Y-84108000D02*
X85488000Y-79536000D01*
X77570000Y-63070000D02*
X90665500Y-63070000D01*
%TO.N,/KEYB{slash}TX*%
X62120000Y-40420000D02*
X71772000Y-50072000D01*
X71772000Y-79028000D02*
X71772000Y-92236000D01*
X71772000Y-50072000D02*
X71772000Y-79028000D01*
%TO.N,/MODEM{slash}TX*%
X50944000Y-64296000D02*
X50944000Y-64516000D01*
X62120000Y-53120000D02*
X50944000Y-64296000D01*
%TO.N,/BUS{slash}AD0*%
X89552000Y-75472000D02*
X89552000Y-77504000D01*
X90665500Y-53725500D02*
X90665500Y-58200000D01*
X100220000Y-88172000D02*
X100220000Y-96300000D01*
X90665500Y-58200000D02*
X90665500Y-59070000D01*
X77360000Y-40420000D02*
X90665500Y-53725500D01*
X89552000Y-77504000D02*
X100220000Y-88172000D01*
X87520000Y-73440000D02*
X89552000Y-75472000D01*
D34*
%TO.N,GND*%
X57040000Y-87918000D02*
X60342000Y-87918000D01*
D35*
X83337400Y-40284400D02*
X82524600Y-40284400D01*
D33*
X96970000Y-69070000D02*
X98090500Y-69070000D01*
D34*
X57040000Y-87918000D02*
X51494400Y-87918000D01*
X136906000Y-59614000D02*
X136906000Y-54128000D01*
X49995919Y-82330000D02*
X49819142Y-82506777D01*
X96918000Y-57946000D02*
X96918000Y-63534000D01*
X97426000Y-57438000D02*
X96918000Y-57946000D01*
X52576858Y-82153223D02*
X52400081Y-82330000D01*
X52400081Y-82330000D02*
X49995919Y-82330000D01*
X60342000Y-87918000D02*
X62120000Y-86140000D01*
X51494400Y-87918000D02*
X49674000Y-86097600D01*
X130700000Y-65820000D02*
X136906000Y-59614000D01*
X49674000Y-86097600D02*
X49674000Y-78906000D01*
D33*
X91786000Y-69070000D02*
X90665500Y-69070000D01*
D34*
X136906000Y-54128000D02*
X137160000Y-53874000D01*
D33*
X91802000Y-63570000D02*
X90665500Y-63570000D01*
D34*
X57040000Y-86140000D02*
X57040000Y-87918000D01*
D33*
X96954000Y-63570000D02*
X98090500Y-63570000D01*
D34*
X96918000Y-63534000D02*
X96954000Y-63570000D01*
D33*
%TO.N,/BUS{slash}AD3*%
X81170000Y-92490000D02*
X77360000Y-96300000D01*
X81170000Y-51850000D02*
X86250000Y-56930000D01*
X81170000Y-85632000D02*
X81170000Y-92490000D01*
X88366000Y-60570000D02*
X90665500Y-60570000D01*
X86250000Y-56930000D02*
X86250000Y-58454000D01*
X86250000Y-58454000D02*
X88366000Y-60570000D01*
X81170000Y-51850000D02*
X77360000Y-48040000D01*
%TO.N,+5V*%
X57278000Y-60578000D02*
X57278000Y-61214000D01*
D35*
X105300000Y-86935800D02*
X93776800Y-75412600D01*
X105300000Y-96300000D02*
X105300000Y-86935800D01*
D33*
X60706000Y-56896000D02*
X60706000Y-57150000D01*
D35*
X93776800Y-75412600D02*
X93776800Y-40182800D01*
X91474000Y-37880000D02*
X93776800Y-40182800D01*
X77360000Y-37880000D02*
X91474000Y-37880000D01*
D33*
X60706000Y-57150000D02*
X57278000Y-60578000D01*
%TO.N,/EXTCLK*%
X58758000Y-78460000D02*
X60088000Y-79790000D01*
X60088000Y-79790000D02*
X63390000Y-79790000D01*
X65168000Y-81568000D02*
X65168000Y-91728000D01*
X63390000Y-79790000D02*
X65168000Y-81568000D01*
X57040000Y-78460000D02*
X58758000Y-78460000D01*
X65168000Y-91728000D02*
X69740000Y-96300000D01*
%TO.N,/STANDBY*%
X73296000Y-89823000D02*
X73296000Y-49056000D01*
X73296000Y-49056000D02*
X62120000Y-37880000D01*
%TO.N,/BUS{slash}AD1*%
X88536000Y-78012000D02*
X97680000Y-87156000D01*
X89298000Y-55406000D02*
X77360000Y-43468000D01*
X77360000Y-43468000D02*
X77360000Y-42960000D01*
X89292088Y-58967912D02*
X89298000Y-58962000D01*
X90665500Y-59570000D02*
X89894176Y-59570000D01*
X97680000Y-87156000D02*
X97680000Y-96300000D01*
X86758000Y-74202000D02*
X88536000Y-75980000D01*
X88536000Y-75980000D02*
X88536000Y-78012000D01*
X89894176Y-59570000D02*
X89292088Y-58967912D01*
X89298000Y-58962000D02*
X89298000Y-55406000D01*
%TO.N,/BUS{slash}AD2*%
X87520000Y-78520000D02*
X95140000Y-86140000D01*
X87520000Y-76488000D02*
X87520000Y-78520000D01*
X77360000Y-45754000D02*
X77360000Y-45500000D01*
X88028000Y-56422000D02*
X77360000Y-45754000D01*
X89136000Y-60070000D02*
X88028000Y-58962000D01*
X85996000Y-74964000D02*
X87520000Y-76488000D01*
X95140000Y-86140000D02*
X95140000Y-96300000D01*
X90665500Y-60070000D02*
X89136000Y-60070000D01*
X88028000Y-58962000D02*
X88028000Y-56422000D01*
%TO.N,/PERI{slash}PTOUT*%
X67200000Y-79282000D02*
X67200000Y-90204000D01*
X62120000Y-70900000D02*
X67200000Y-75980000D01*
X67200000Y-75980000D02*
X67200000Y-79282000D01*
%TO.N,/BUS{slash}AD4*%
X80154000Y-52866000D02*
X77868000Y-50580000D01*
X77868000Y-50580000D02*
X77360000Y-50580000D01*
X84472000Y-57184000D02*
X84472000Y-57946000D01*
X80154000Y-86394000D02*
X80154000Y-90966000D01*
X84472000Y-57946000D02*
X87596000Y-61070000D01*
X87596000Y-61070000D02*
X90665500Y-61070000D01*
X80154000Y-52866000D02*
X84472000Y-57184000D01*
X80154000Y-90966000D02*
X74820000Y-96300000D01*
%TO.N,/MODEM{slash}RX*%
X55516000Y-70646000D02*
X59834000Y-70646000D01*
X59834000Y-70646000D02*
X62120000Y-68360000D01*
%TO.N,/KEYB{slash}RX*%
X62120000Y-42960000D02*
X70248000Y-51088000D01*
X70248000Y-79282000D02*
X70248000Y-90966000D01*
X70248000Y-51088000D02*
X70248000Y-79282000D01*
%TO.N,/BUS{slash}AD5*%
X86826000Y-61570000D02*
X90665500Y-61570000D01*
X82186000Y-56930000D02*
X86826000Y-61570000D01*
X78376000Y-53120000D02*
X77360000Y-53120000D01*
X82186000Y-56930000D02*
X78376000Y-53120000D01*
X82186000Y-94014000D02*
X79900000Y-96300000D01*
X82186000Y-84870000D02*
X82186000Y-94014000D01*
%TO.N,/BUS{slash}AD6*%
X86056000Y-62070000D02*
X90665500Y-62070000D01*
X83202000Y-84108000D02*
X83202000Y-95538000D01*
X83202000Y-59216000D02*
X86056000Y-62070000D01*
X79646000Y-55660000D02*
X77360000Y-55660000D01*
X83202000Y-59216000D02*
X79646000Y-55660000D01*
X83202000Y-95538000D02*
X82440000Y-96300000D01*
%TO.N,/BUS{slash}A15*%
X86250000Y-82330000D02*
X82694000Y-82330000D01*
X87520000Y-96300000D02*
X87520000Y-83600000D01*
X82694000Y-82330000D02*
X79138000Y-85886000D01*
X78376000Y-87664000D02*
X76598000Y-87664000D01*
X76598000Y-87664000D02*
X75328000Y-86394000D01*
X77614000Y-68360000D02*
X77360000Y-68360000D01*
X79138000Y-85886000D02*
X79138000Y-86902000D01*
X79138000Y-86902000D02*
X78376000Y-87664000D01*
X80904000Y-65070000D02*
X77614000Y-68360000D01*
X90665500Y-65070000D02*
X80904000Y-65070000D01*
X87520000Y-83600000D02*
X86250000Y-82330000D01*
X75328000Y-70392000D02*
X77360000Y-68360000D01*
X75328000Y-86394000D02*
X75328000Y-70392000D01*
%TO.N,/BUS{slash}AD7*%
X84218000Y-61502000D02*
X85286000Y-62570000D01*
X84218000Y-61502000D02*
X80916000Y-58200000D01*
X80916000Y-58200000D02*
X77360000Y-58200000D01*
X85286000Y-62570000D02*
X90665500Y-62570000D01*
X84218000Y-83346000D02*
X84980000Y-84108000D01*
X84980000Y-84108000D02*
X84980000Y-96300000D01*
%TO.N,/PICO{slash}AD5*%
X105554000Y-55406000D02*
X107840000Y-53120000D01*
X105554000Y-58454000D02*
X105554000Y-55406000D01*
X102438000Y-61570000D02*
X105554000Y-58454000D01*
X98090500Y-61570000D02*
X102438000Y-61570000D01*
%TO.N,/PICO{slash}A10*%
X100668000Y-69570000D02*
X105554000Y-74456000D01*
X98090500Y-69570000D02*
X100668000Y-69570000D01*
X105554000Y-74456000D02*
X105554000Y-76234000D01*
X105554000Y-76234000D02*
X107840000Y-78520000D01*
%TO.N,/PICO{slash}AD6*%
X98090500Y-62070000D02*
X103462000Y-62070000D01*
X107332000Y-58200000D02*
X107840000Y-58200000D01*
X103462000Y-62070000D02*
X107332000Y-58200000D01*
%TO.N,/PICO{slash}AD3*%
X98090500Y-60570000D02*
X100390000Y-60570000D01*
X103014000Y-57946000D02*
X103014000Y-52866000D01*
X100390000Y-60570000D02*
X103014000Y-57946000D01*
X103014000Y-52866000D02*
X107840000Y-48040000D01*
%TO.N,/PICO{slash}A8*%
X99128000Y-70570000D02*
X103014000Y-74456000D01*
X103014000Y-74456000D02*
X103014000Y-81314000D01*
X98090500Y-70570000D02*
X99128000Y-70570000D01*
X103014000Y-81314000D02*
X107840000Y-86140000D01*
%TO.N,/PICO{slash}A11*%
X100938000Y-68570000D02*
X107840000Y-75472000D01*
X98090500Y-68570000D02*
X100938000Y-68570000D01*
X107840000Y-75472000D02*
X107840000Y-75980000D01*
%TO.N,/PICO{slash}A15*%
X105304000Y-65570000D02*
X98090500Y-65570000D01*
X105554000Y-65820000D02*
X105304000Y-65570000D01*
%TO.N,/PICO{slash}A9*%
X104284000Y-74456000D02*
X104284000Y-80044000D01*
X104284000Y-80044000D02*
X107840000Y-83600000D01*
X98090500Y-70070000D02*
X99898000Y-70070000D01*
X99898000Y-70070000D02*
X104284000Y-74456000D01*
%TO.N,/PICO{slash}AD1*%
X100474000Y-47786000D02*
X100474000Y-57957824D01*
X100474000Y-57957824D02*
X98861824Y-59570000D01*
X98861824Y-59570000D02*
X98090500Y-59570000D01*
X107840000Y-40420000D02*
X100474000Y-47786000D01*
%TO.N,/PICO{slash}A13*%
X98090500Y-67070000D02*
X103248000Y-67070000D01*
X103248000Y-67070000D02*
X107078000Y-70900000D01*
X107078000Y-70900000D02*
X107840000Y-70900000D01*
%TO.N,/PICO{slash}A14*%
X104438000Y-66070000D02*
X98090500Y-66070000D01*
X107590000Y-65570000D02*
X107840000Y-65820000D01*
X104538000Y-66170000D02*
X104438000Y-66070000D01*
%TO.N,/PICO{slash}A12*%
X98090500Y-68070000D02*
X101708000Y-68070000D01*
X107078000Y-73440000D02*
X107840000Y-73440000D01*
X101708000Y-68070000D02*
X107078000Y-73440000D01*
%TO.N,/PICO{slash}AD0*%
X99204000Y-57956500D02*
X98090500Y-59070000D01*
X99204000Y-46516000D02*
X99204000Y-57956500D01*
X107840000Y-37880000D02*
X99204000Y-46516000D01*
%TO.N,/PICO{slash}AD2*%
X98090500Y-60070000D02*
X99620000Y-60070000D01*
X99620000Y-60070000D02*
X101744000Y-57946000D01*
X101744000Y-57946000D02*
X101744000Y-51596000D01*
X101744000Y-51596000D02*
X107840000Y-45500000D01*
%TO.N,/PICO{slash}AD4*%
X101414000Y-61070000D02*
X104284000Y-58200000D01*
X104284000Y-58200000D02*
X104284000Y-54136000D01*
X104284000Y-54136000D02*
X107840000Y-50580000D01*
X98090500Y-61070000D02*
X101414000Y-61070000D01*
%TO.N,/PICO{slash}AD7*%
X106316000Y-60740000D02*
X107840000Y-60740000D01*
X98090500Y-62570000D02*
X104486000Y-62570000D01*
X104486000Y-62570000D02*
X106316000Y-60740000D01*
%TO.N,Net-(JP1-C)*%
X57040000Y-84840000D02*
X57315400Y-85115400D01*
X57315400Y-85115400D02*
X57683400Y-85115400D01*
X59198800Y-83600000D02*
X62120000Y-83600000D01*
X57683400Y-85115400D02*
X59198800Y-83600000D01*
%TO.N,Net-(JP2-C)*%
X57298000Y-79502000D02*
X57040000Y-79760000D01*
X57683400Y-79502000D02*
X57298000Y-79502000D01*
X62120000Y-81060000D02*
X59241400Y-81060000D01*
X59241400Y-81060000D02*
X57683400Y-79502000D01*
%TO.N,Net-(J2-GPIO18)*%
X106316000Y-66455000D02*
X106316000Y-65566000D01*
X106316000Y-65566000D02*
X105820000Y-65070000D01*
X106951000Y-67090000D02*
X106316000Y-66455000D01*
X114190000Y-67090000D02*
X106951000Y-67090000D01*
X105820000Y-65070000D02*
X98090500Y-65070000D01*
%TO.N,Net-(U1-RST)*%
X79222600Y-65278000D02*
X79930600Y-64570000D01*
X61434000Y-58200000D02*
X62120000Y-58200000D01*
X79930600Y-64570000D02*
X90665500Y-64570000D01*
X62772000Y-58200000D02*
X62120000Y-58200000D01*
X58928000Y-61214000D02*
X58928000Y-60706000D01*
X58928000Y-60706000D02*
X61434000Y-58200000D01*
X58928000Y-61214000D02*
X58928000Y-61722000D01*
X59216000Y-62010000D02*
X64008000Y-62010000D01*
X58928000Y-61722000D02*
X59216000Y-62010000D01*
X64008000Y-62010000D02*
X66548000Y-64550000D01*
%TO.N,/BUS{slash}PSEN*%
X79110000Y-64070000D02*
X90264500Y-64070000D01*
X77360000Y-65820000D02*
X79110000Y-64070000D01*
%TO.N,/BUS{slash}A8*%
X82694000Y-80806000D02*
X77360000Y-86140000D01*
X89874000Y-70070000D02*
X82694000Y-77250000D01*
X82694000Y-77250000D02*
X82694000Y-80806000D01*
X90665500Y-70070000D02*
X89874000Y-70070000D01*
%TO.N,/BUS{slash}A10*%
X88072000Y-68570000D02*
X90665500Y-68570000D01*
X80662000Y-75980000D02*
X88072000Y-68570000D01*
X77360000Y-81060000D02*
X80662000Y-77758000D01*
X80662000Y-77758000D02*
X80662000Y-75980000D01*
%TO.N,/BUS{slash}A14*%
X77360000Y-70900000D02*
X77360000Y-70138000D01*
X81928000Y-65570000D02*
X77360000Y-70138000D01*
X90665500Y-65570000D02*
X81928000Y-65570000D01*
%TO.N,/BUS{slash}A12*%
X77614000Y-75980000D02*
X77360000Y-75980000D01*
X86024000Y-67570000D02*
X77614000Y-75980000D01*
X90665500Y-67570000D02*
X86024000Y-67570000D01*
%TO.N,/BUS{slash}A13*%
X90665500Y-66570000D02*
X83976000Y-66570000D01*
X77360000Y-73186000D02*
X77360000Y-73440000D01*
X83976000Y-66570000D02*
X77360000Y-73186000D01*
%TO.N,/BACKUP{slash}CS*%
X130048000Y-57658000D02*
X130590000Y-58200000D01*
X130590000Y-58200000D02*
X130700000Y-58200000D01*
X133604000Y-54102000D02*
X130048000Y-57658000D01*
X133604000Y-53924000D02*
X133604000Y-54102000D01*
%TO.N,/BACKUP{slash}MISO*%
X128922000Y-62518000D02*
X130700000Y-60740000D01*
X128922000Y-80298000D02*
X128922000Y-62518000D01*
X125620000Y-83600000D02*
X128922000Y-80298000D01*
D34*
%TO.N,+3V3*%
X96139000Y-57175000D02*
X96139000Y-44755000D01*
X95902000Y-74237999D02*
X95902000Y-63788000D01*
X125620000Y-48040000D02*
X133130000Y-48040000D01*
X101473000Y-77661000D02*
X101663000Y-77851000D01*
X97934000Y-75950000D02*
X97614001Y-75950000D01*
X96962636Y-64570000D02*
X96942636Y-64550000D01*
X95876000Y-57438000D02*
X96139000Y-57175000D01*
X95876000Y-57438000D02*
X95876000Y-57286000D01*
X97614001Y-75950000D02*
X95902000Y-74237999D01*
X95902000Y-63788000D02*
X95902000Y-57260000D01*
D33*
X137110000Y-52274000D02*
X137160000Y-52324000D01*
D34*
X99460000Y-75948000D02*
X99458000Y-75950000D01*
X99458000Y-75950000D02*
X97934000Y-75950000D01*
X110380000Y-36102000D02*
X122318000Y-48040000D01*
X133130000Y-48040000D02*
X138320000Y-53230000D01*
X96942636Y-64550000D02*
X96664000Y-64550000D01*
X138320000Y-53230000D02*
X138320000Y-58200000D01*
X100982000Y-76090000D02*
X101473000Y-76581000D01*
X101473000Y-76581000D02*
X101473000Y-77661000D01*
X104792000Y-36102000D02*
X110380000Y-36102000D01*
D33*
X98090500Y-64570000D02*
X96962636Y-64570000D01*
D34*
X100982000Y-75948000D02*
X99460000Y-75948000D01*
D33*
X133604000Y-52274000D02*
X137110000Y-52274000D01*
D34*
X100982000Y-75948000D02*
X100982000Y-76090000D01*
X122318000Y-48040000D02*
X125620000Y-48040000D01*
X96664000Y-64550000D02*
X95902000Y-63788000D01*
X96139000Y-44755000D02*
X104792000Y-36102000D01*
D33*
%TO.N,/BACKUP{slash}MOSI*%
X130700000Y-81060000D02*
X130700000Y-73440000D01*
X138320000Y-65820000D02*
X130700000Y-73440000D01*
X125620000Y-86140000D02*
X130700000Y-81060000D01*
%TO.N,/BUS{slash}A11*%
X79392000Y-75726000D02*
X87048000Y-68070000D01*
X79392000Y-76488000D02*
X79392000Y-75726000D01*
X77360000Y-78520000D02*
X79392000Y-76488000D01*
X87048000Y-68070000D02*
X90665500Y-68070000D01*
%TO.N,/BUS{slash}A9*%
X81678000Y-76488000D02*
X88596000Y-69570000D01*
X88596000Y-69570000D02*
X90665500Y-69570000D01*
X81678000Y-79282000D02*
X81678000Y-76488000D01*
X77360000Y-83600000D02*
X81678000Y-79282000D01*
%TO.N,/PICO{slash}ALE*%
X106570000Y-62010000D02*
X105510000Y-63070000D01*
X111650000Y-62010000D02*
X106570000Y-62010000D01*
X105510000Y-63070000D02*
X98090500Y-63070000D01*
%TO.N,/PICO{slash}WR*%
X104018000Y-66570000D02*
X107078000Y-69630000D01*
X107078000Y-69630000D02*
X117746000Y-69630000D01*
X125112000Y-70900000D02*
X125620000Y-70900000D01*
X117746000Y-69630000D02*
X122826000Y-64550000D01*
X125874000Y-70900000D02*
X125620000Y-70900000D01*
X98090500Y-66570000D02*
X104018000Y-66570000D01*
X126255000Y-64550000D02*
X127889000Y-66184000D01*
X127889000Y-68885000D02*
X125874000Y-70900000D01*
X127889000Y-66184000D02*
X127889000Y-68885000D01*
X122826000Y-64550000D02*
X126255000Y-64550000D01*
%TO.N,/PICO{slash}RD*%
X125620000Y-65820000D02*
X119270000Y-72170000D01*
X98090500Y-67570000D02*
X102478000Y-67570000D01*
X107078000Y-72170000D02*
X119270000Y-72170000D01*
X125620000Y-65820000D02*
X125366000Y-65820000D01*
X102478000Y-67570000D02*
X107078000Y-72170000D01*
%TO.N,/PICO{slash}PSEN*%
X116840000Y-64550000D02*
X106006000Y-64550000D01*
X106006000Y-64550000D02*
X105526000Y-64070000D01*
X105526000Y-64070000D02*
X98090500Y-64070000D01*
D35*
%TO.N,Net-(D1-K)*%
X124680200Y-40420000D02*
X125620000Y-40420000D01*
X91440000Y-35145000D02*
X92769000Y-33816000D01*
X118076200Y-33816000D02*
X124680200Y-40420000D01*
X92769000Y-33816000D02*
X118076200Y-33816000D01*
D33*
%TO.N,/PICO{slash}BUS_EN*%
X94742000Y-79502000D02*
X91694000Y-76454000D01*
X91694000Y-73685400D02*
X90665500Y-72656900D01*
X90665500Y-72656900D02*
X90665500Y-72070000D01*
X99695000Y-77851000D02*
X98806000Y-76962000D01*
X106629200Y-56946800D02*
X121120000Y-56946800D01*
X124946800Y-53120000D02*
X125620000Y-53120000D01*
X99733600Y-77571600D02*
X100013000Y-77851000D01*
X121120000Y-56946800D02*
X124946800Y-53120000D01*
X91694000Y-76454000D02*
X91694000Y-73685400D01*
X106349800Y-57226200D02*
X106629200Y-56946800D01*
X100013000Y-77851000D02*
X99695000Y-77851000D01*
%TO.N,Net-(U3-1A3)*%
X96517000Y-71749900D02*
X96517000Y-73037000D01*
X97934000Y-74454000D02*
X97934000Y-74930000D01*
X98090500Y-71070000D02*
X97196900Y-71070000D01*
X96517000Y-73037000D02*
X97934000Y-74454000D01*
X97196900Y-71070000D02*
X96517000Y-71749900D01*
%TO.N,Net-(U3-1A2)*%
X97264000Y-71570000D02*
X96918000Y-71916000D01*
X98090500Y-71570000D02*
X97264000Y-71570000D01*
X98696000Y-73186000D02*
X99458000Y-73948000D01*
X96918000Y-72678000D02*
X97426000Y-73186000D01*
X99458000Y-73948000D02*
X99458000Y-74930000D01*
X96918000Y-71916000D02*
X96918000Y-72678000D01*
X97426000Y-73186000D02*
X98696000Y-73186000D01*
%TO.N,Net-(U3-1A1)*%
X99104000Y-72070000D02*
X100982000Y-73948000D01*
X98090500Y-72070000D02*
X99104000Y-72070000D01*
X100982000Y-73948000D02*
X100982000Y-74928000D01*
%TD*%
M02*
