%TF.GenerationSoftware,KiCad,Pcbnew,9.0.6-9.0.6~ubuntu24.04.1*%
%TF.CreationDate,2025-12-07T17:22:10+00:00*%
%TF.ProjectId,board_722039m,626f6172-645f-4373-9232-3033396d2e6b,rev?*%
%TF.SameCoordinates,Original*%
%TF.FileFunction,Soldermask,Bot*%
%TF.FilePolarity,Negative*%
%FSLAX46Y46*%
G04 Gerber Fmt 4.6, Leading zero omitted, Abs format (unit mm)*
G04 Created by KiCad (PCBNEW 9.0.6-9.0.6~ubuntu24.04.1) date 2025-12-07 17:22:10*
%MOMM*%
%LPD*%
G01*
G04 APERTURE LIST*
G04 Aperture macros list*
%AMRoundRect*
0 Rectangle with rounded corners*
0 $1 Rounding radius*
0 $2 $3 $4 $5 $6 $7 $8 $9 X,Y pos of 4 corners*
0 Add a 4 corners polygon primitive as box body*
4,1,4,$2,$3,$4,$5,$6,$7,$8,$9,$2,$3,0*
0 Add four circle primitives for the rounded corners*
1,1,$1+$1,$2,$3*
1,1,$1+$1,$4,$5*
1,1,$1+$1,$6,$7*
1,1,$1+$1,$8,$9*
0 Add four rect primitives between the rounded corners*
20,1,$1+$1,$2,$3,$4,$5,0*
20,1,$1+$1,$4,$5,$6,$7,0*
20,1,$1+$1,$6,$7,$8,$9,0*
20,1,$1+$1,$8,$9,$2,$3,0*%
%AMFreePoly0*
4,1,37,0.603843,0.796157,0.639018,0.796157,0.711114,0.766294,0.766294,0.711114,0.796157,0.639018,0.796157,0.603843,0.800000,0.600000,0.800000,-0.600000,0.796157,-0.603843,0.796157,-0.639018,0.766294,-0.711114,0.711114,-0.766294,0.639018,-0.796157,0.603843,-0.796157,0.600000,-0.800000,0.000000,-0.800000,0.000000,-0.796148,-0.078414,-0.796148,-0.232228,-0.765552,-0.377117,-0.705537,
-0.507515,-0.618408,-0.618408,-0.507515,-0.705537,-0.377117,-0.765552,-0.232228,-0.796148,-0.078414,-0.796148,0.078414,-0.765552,0.232228,-0.705537,0.377117,-0.618408,0.507515,-0.507515,0.618408,-0.377117,0.705537,-0.232228,0.765552,-0.078414,0.796148,0.000000,0.796148,0.000000,0.800000,0.600000,0.800000,0.603843,0.796157,0.603843,0.796157,$1*%
%AMFreePoly1*
4,1,37,0.000000,0.796148,0.078414,0.796148,0.232228,0.765552,0.377117,0.705537,0.507515,0.618408,0.618408,0.507515,0.705537,0.377117,0.765552,0.232228,0.796148,0.078414,0.796148,-0.078414,0.765552,-0.232228,0.705537,-0.377117,0.618408,-0.507515,0.507515,-0.618408,0.377117,-0.705537,0.232228,-0.765552,0.078414,-0.796148,0.000000,-0.796148,0.000000,-0.800000,-0.600000,-0.800000,
-0.603843,-0.796157,-0.639018,-0.796157,-0.711114,-0.766294,-0.766294,-0.711114,-0.796157,-0.639018,-0.796157,-0.603843,-0.800000,-0.600000,-0.800000,0.600000,-0.796157,0.603843,-0.796157,0.639018,-0.766294,0.711114,-0.711114,0.766294,-0.639018,0.796157,-0.603843,0.796157,-0.600000,0.800000,0.000000,0.800000,0.000000,0.796148,0.000000,0.796148,$1*%
G04 Aperture macros list end*
%ADD10RoundRect,0.250000X-0.550000X-0.550000X0.550000X-0.550000X0.550000X0.550000X-0.550000X0.550000X0*%
%ADD11C,1.600000*%
%ADD12C,1.300000*%
%ADD13RoundRect,0.200000X-0.600000X-0.600000X0.600000X-0.600000X0.600000X0.600000X-0.600000X0.600000X0*%
%ADD14FreePoly0,0.000000*%
%ADD15FreePoly1,0.000000*%
%ADD16R,1.700000X1.700000*%
%ADD17C,1.700000*%
G04 APERTURE END LIST*
D10*
%TO.C,U1*%
X62120000Y-37880000D03*
D11*
X62120000Y-40420000D03*
X62120000Y-42960000D03*
X62120000Y-45500000D03*
X62120000Y-48040000D03*
X62120000Y-50580000D03*
X62120000Y-53120000D03*
X62120000Y-55660000D03*
X62120000Y-58200000D03*
X62120000Y-60740000D03*
X62120000Y-63280000D03*
X62120000Y-65820000D03*
X62120000Y-68360000D03*
X62120000Y-70900000D03*
X62120000Y-73440000D03*
X62120000Y-75980000D03*
X62120000Y-78520000D03*
X62120000Y-81060000D03*
X62120000Y-83600000D03*
X62120000Y-86140000D03*
X77360000Y-86140000D03*
X77360000Y-83600000D03*
X77360000Y-81060000D03*
X77360000Y-78520000D03*
X77360000Y-75980000D03*
X77360000Y-73440000D03*
X77360000Y-70900000D03*
X77360000Y-68360000D03*
X77360000Y-65820000D03*
X77360000Y-63280000D03*
X77360000Y-60740000D03*
X77360000Y-58200000D03*
X77360000Y-55660000D03*
X77360000Y-53120000D03*
X77360000Y-50580000D03*
X77360000Y-48040000D03*
X77360000Y-45500000D03*
X77360000Y-42960000D03*
X77360000Y-40420000D03*
X77360000Y-37880000D03*
%TD*%
D12*
%TO.C,H2*%
X139510000Y-32940000D03*
%TD*%
%TO.C,H1*%
X48480000Y-32940000D03*
%TD*%
D13*
%TO.C,J2*%
X107840000Y-37880000D03*
D11*
X107840000Y-40420000D03*
D14*
X107840000Y-42960000D03*
D11*
X107840000Y-45500000D03*
X107840000Y-48040000D03*
X107840000Y-50580000D03*
X107840000Y-53120000D03*
D14*
X107840000Y-55660000D03*
D11*
X107840000Y-58200000D03*
X107840000Y-60740000D03*
X107840000Y-63280000D03*
X107840000Y-65820000D03*
D14*
X107840000Y-68360000D03*
D11*
X107840000Y-70900000D03*
X107840000Y-73440000D03*
X107840000Y-75980000D03*
X107840000Y-78520000D03*
D14*
X107840000Y-81060000D03*
D11*
X107840000Y-83600000D03*
X107840000Y-86140000D03*
X125620000Y-86140000D03*
X125620000Y-83600000D03*
D15*
X125620000Y-81060000D03*
D11*
X125620000Y-78520000D03*
X125620000Y-75980000D03*
X125620000Y-73440000D03*
X125620000Y-70900000D03*
D15*
X125620000Y-68360000D03*
D11*
X125620000Y-65820000D03*
X125620000Y-63280000D03*
X125620000Y-60740000D03*
X125620000Y-58200000D03*
D15*
X125620000Y-55660000D03*
D11*
X125620000Y-53120000D03*
X125620000Y-50580000D03*
X125620000Y-48040000D03*
X125620000Y-45500000D03*
D15*
X125620000Y-42960000D03*
D11*
X125620000Y-40420000D03*
X125620000Y-37880000D03*
%TD*%
D16*
%TO.C,J1*%
X128160000Y-96300000D03*
D17*
X125620000Y-96300000D03*
X123080000Y-96300000D03*
X120540000Y-96300000D03*
X118000000Y-96300000D03*
X115460000Y-96300000D03*
X112920000Y-96300000D03*
X110380000Y-96300000D03*
X107840000Y-96300000D03*
X105300000Y-96300000D03*
X102760000Y-96300000D03*
X100220000Y-96300000D03*
X97680000Y-96300000D03*
X95140000Y-96300000D03*
X92600000Y-96300000D03*
X90060000Y-96300000D03*
X87520000Y-96300000D03*
X84980000Y-96300000D03*
X82440000Y-96300000D03*
X79900000Y-96300000D03*
X77360000Y-96300000D03*
X74820000Y-96300000D03*
X72280000Y-96300000D03*
X69740000Y-96300000D03*
X67200000Y-96300000D03*
X64660000Y-96300000D03*
X62120000Y-96300000D03*
X59580000Y-96300000D03*
X57040000Y-96300000D03*
X54500000Y-96300000D03*
X51960000Y-96300000D03*
X49420000Y-96300000D03*
%TD*%
D12*
%TO.C,H3*%
X139510000Y-97640000D03*
%TD*%
D10*
%TO.C,U2*%
X130700000Y-58200000D03*
D11*
X130700000Y-60740000D03*
X130700000Y-63280000D03*
X130700000Y-65820000D03*
X138320000Y-65820000D03*
X138320000Y-63280000D03*
X138320000Y-60740000D03*
X138320000Y-58200000D03*
%TD*%
M02*
