%TF.GenerationSoftware,KiCad,Pcbnew,9.0.6-9.0.6~ubuntu24.04.1*%
%TF.CreationDate,2025-12-07T17:22:10+00:00*%
%TF.ProjectId,board_722039m,626f6172-645f-4373-9232-3033396d2e6b,rev?*%
%TF.SameCoordinates,Original*%
%TF.FileFunction,Soldermask,Top*%
%TF.FilePolarity,Negative*%
%FSLAX46Y46*%
G04 Gerber Fmt 4.6, Leading zero omitted, Abs format (unit mm)*
G04 Created by KiCad (PCBNEW 9.0.6-9.0.6~ubuntu24.04.1) date 2025-12-07 17:22:10*
%MOMM*%
%LPD*%
G01*
G04 APERTURE LIST*
G04 Aperture macros list*
%AMRoundRect*
0 Rectangle with rounded corners*
0 $1 Rounding radius*
0 $2 $3 $4 $5 $6 $7 $8 $9 X,Y pos of 4 corners*
0 Add a 4 corners polygon primitive as box body*
4,1,4,$2,$3,$4,$5,$6,$7,$8,$9,$2,$3,0*
0 Add four circle primitives for the rounded corners*
1,1,$1+$1,$2,$3*
1,1,$1+$1,$4,$5*
1,1,$1+$1,$6,$7*
1,1,$1+$1,$8,$9*
0 Add four rect primitives between the rounded corners*
20,1,$1+$1,$2,$3,$4,$5,0*
20,1,$1+$1,$4,$5,$6,$7,0*
20,1,$1+$1,$6,$7,$8,$9,0*
20,1,$1+$1,$8,$9,$2,$3,0*%
%AMFreePoly0*
4,1,23,0.550000,-0.750000,0.000000,-0.750000,0.000000,-0.745722,-0.065263,-0.745722,-0.191342,-0.711940,-0.304381,-0.646677,-0.396677,-0.554381,-0.461940,-0.441342,-0.495722,-0.315263,-0.495722,-0.250000,-0.500000,-0.250000,-0.500000,0.250000,-0.495722,0.250000,-0.495722,0.315263,-0.461940,0.441342,-0.396677,0.554381,-0.304381,0.646677,-0.191342,0.711940,-0.065263,0.745722,0.000000,0.745722,
0.000000,0.750000,0.550000,0.750000,0.550000,-0.750000,0.550000,-0.750000,$1*%
%AMFreePoly1*
4,1,23,0.000000,0.745722,0.065263,0.745722,0.191342,0.711940,0.304381,0.646677,0.396677,0.554381,0.461940,0.441342,0.495722,0.315263,0.495722,0.250000,0.500000,0.250000,0.500000,-0.250000,0.495722,-0.250000,0.495722,-0.315263,0.461940,-0.441342,0.396677,-0.554381,0.304381,-0.646677,0.191342,-0.711940,0.065263,-0.745722,0.000000,-0.745722,0.000000,-0.750000,-0.550000,-0.750000,
-0.550000,0.750000,0.000000,0.750000,0.000000,0.745722,0.000000,0.745722,$1*%
%AMFreePoly2*
4,1,37,0.603843,0.796157,0.639018,0.796157,0.711114,0.766294,0.766294,0.711114,0.796157,0.639018,0.796157,0.603843,0.800000,0.600000,0.800000,-0.600000,0.796157,-0.603843,0.796157,-0.639018,0.766294,-0.711114,0.711114,-0.766294,0.639018,-0.796157,0.603843,-0.796157,0.600000,-0.800000,0.000000,-0.800000,0.000000,-0.796148,-0.078414,-0.796148,-0.232228,-0.765552,-0.377117,-0.705537,
-0.507515,-0.618408,-0.618408,-0.507515,-0.705537,-0.377117,-0.765552,-0.232228,-0.796148,-0.078414,-0.796148,0.078414,-0.765552,0.232228,-0.705537,0.377117,-0.618408,0.507515,-0.507515,0.618408,-0.377117,0.705537,-0.232228,0.765552,-0.078414,0.796148,0.000000,0.796148,0.000000,0.800000,0.600000,0.800000,0.603843,0.796157,0.603843,0.796157,$1*%
%AMFreePoly3*
4,1,37,0.000000,0.796148,0.078414,0.796148,0.232228,0.765552,0.377117,0.705537,0.507515,0.618408,0.618408,0.507515,0.705537,0.377117,0.765552,0.232228,0.796148,0.078414,0.796148,-0.078414,0.765552,-0.232228,0.705537,-0.377117,0.618408,-0.507515,0.507515,-0.618408,0.377117,-0.705537,0.232228,-0.765552,0.078414,-0.796148,0.000000,-0.796148,0.000000,-0.800000,-0.600000,-0.800000,
-0.603843,-0.796157,-0.639018,-0.796157,-0.711114,-0.766294,-0.766294,-0.711114,-0.796157,-0.639018,-0.796157,-0.603843,-0.800000,-0.600000,-0.800000,0.600000,-0.796157,0.603843,-0.796157,0.639018,-0.766294,0.711114,-0.711114,0.766294,-0.639018,0.796157,-0.603843,0.796157,-0.600000,0.800000,0.000000,0.800000,0.000000,0.796148,0.000000,0.796148,$1*%
G04 Aperture macros list end*
%ADD10RoundRect,0.250000X-0.550000X-0.550000X0.550000X-0.550000X0.550000X0.550000X-0.550000X0.550000X0*%
%ADD11C,1.600000*%
%ADD12RoundRect,0.140000X-0.140000X-0.170000X0.140000X-0.170000X0.140000X0.170000X-0.140000X0.170000X0*%
%ADD13C,1.300000*%
%ADD14RoundRect,0.135000X0.185000X-0.135000X0.185000X0.135000X-0.185000X0.135000X-0.185000X-0.135000X0*%
%ADD15RoundRect,0.075000X0.662500X0.075000X-0.662500X0.075000X-0.662500X-0.075000X0.662500X-0.075000X0*%
%ADD16FreePoly0,270.000000*%
%ADD17R,1.500000X1.000000*%
%ADD18FreePoly1,270.000000*%
%ADD19RoundRect,0.225000X-0.250000X0.225000X-0.250000X-0.225000X0.250000X-0.225000X0.250000X0.225000X0*%
%ADD20RoundRect,0.250000X-0.070711X-0.565685X0.565685X0.070711X0.070711X0.565685X-0.565685X-0.070711X0*%
%ADD21RoundRect,0.225000X-0.225000X-0.250000X0.225000X-0.250000X0.225000X0.250000X-0.225000X0.250000X0*%
%ADD22RoundRect,0.112500X-0.112500X0.187500X-0.112500X-0.187500X0.112500X-0.187500X0.112500X0.187500X0*%
%ADD23RoundRect,0.200000X-0.600000X-0.600000X0.600000X-0.600000X0.600000X0.600000X-0.600000X0.600000X0*%
%ADD24FreePoly2,0.000000*%
%ADD25FreePoly3,0.000000*%
%ADD26RoundRect,0.200000X0.200000X0.275000X-0.200000X0.275000X-0.200000X-0.275000X0.200000X-0.275000X0*%
%ADD27RoundRect,0.200000X-0.200000X-0.275000X0.200000X-0.275000X0.200000X0.275000X-0.200000X0.275000X0*%
%ADD28FreePoly0,90.000000*%
%ADD29FreePoly1,90.000000*%
%ADD30RoundRect,0.200000X-0.275000X0.200000X-0.275000X-0.200000X0.275000X-0.200000X0.275000X0.200000X0*%
%ADD31R,1.700000X1.700000*%
%ADD32C,1.700000*%
G04 APERTURE END LIST*
%TO.C,JP2*%
G36*
X57790000Y-79010000D02*
G01*
X56290000Y-79010000D01*
X56290000Y-80510000D01*
X57790000Y-80510000D01*
X57790000Y-79010000D01*
G37*
%TO.C,JP1*%
G36*
X56290000Y-85590000D02*
G01*
X57790000Y-85590000D01*
X57790000Y-84090000D01*
X56290000Y-84090000D01*
X56290000Y-85590000D01*
G37*
%TD*%
D10*
%TO.C,U1*%
X62120000Y-37880000D03*
D11*
X62120000Y-40420000D03*
X62120000Y-42960000D03*
X62120000Y-45500000D03*
X62120000Y-48040000D03*
X62120000Y-50580000D03*
X62120000Y-53120000D03*
X62120000Y-55660000D03*
X62120000Y-58200000D03*
X62120000Y-60740000D03*
X62120000Y-63280000D03*
X62120000Y-65820000D03*
X62120000Y-68360000D03*
X62120000Y-70900000D03*
X62120000Y-73440000D03*
X62120000Y-75980000D03*
X62120000Y-78520000D03*
X62120000Y-81060000D03*
X62120000Y-83600000D03*
X62120000Y-86140000D03*
X77360000Y-86140000D03*
X77360000Y-83600000D03*
X77360000Y-81060000D03*
X77360000Y-78520000D03*
X77360000Y-75980000D03*
X77360000Y-73440000D03*
X77360000Y-70900000D03*
X77360000Y-68360000D03*
X77360000Y-65820000D03*
X77360000Y-63280000D03*
X77360000Y-60740000D03*
X77360000Y-58200000D03*
X77360000Y-55660000D03*
X77360000Y-53120000D03*
X77360000Y-50580000D03*
X77360000Y-48040000D03*
X77360000Y-45500000D03*
X77360000Y-42960000D03*
X77360000Y-40420000D03*
X77360000Y-37880000D03*
%TD*%
D12*
%TO.C,C5*%
X49784000Y-78994000D03*
X50744000Y-78994000D03*
%TD*%
D13*
%TO.C,H2*%
X139510000Y-32940000D03*
%TD*%
%TO.C,H1*%
X48480000Y-32940000D03*
%TD*%
D14*
%TO.C,R5*%
X100982000Y-75948000D03*
X100982000Y-74928000D03*
%TD*%
D15*
%TO.C,U3*%
X98090500Y-72570000D03*
X98090500Y-72070000D03*
X98090500Y-71570000D03*
X98090500Y-71070000D03*
X98090500Y-70570000D03*
X98090500Y-70070000D03*
X98090500Y-69570000D03*
X98090500Y-69070000D03*
X98090500Y-68570000D03*
X98090500Y-68070000D03*
X98090500Y-67570000D03*
X98090500Y-67070000D03*
X98090500Y-66570000D03*
X98090500Y-66070000D03*
X98090500Y-65570000D03*
X98090500Y-65070000D03*
X98090500Y-64570000D03*
X98090500Y-64070000D03*
X98090500Y-63570000D03*
X98090500Y-63070000D03*
X98090500Y-62570000D03*
X98090500Y-62070000D03*
X98090500Y-61570000D03*
X98090500Y-61070000D03*
X98090500Y-60570000D03*
X98090500Y-60070000D03*
X98090500Y-59570000D03*
X98090500Y-59070000D03*
X90665500Y-59070000D03*
X90665500Y-59570000D03*
X90665500Y-60070000D03*
X90665500Y-60570000D03*
X90665500Y-61070000D03*
X90665500Y-61570000D03*
X90665500Y-62070000D03*
X90665500Y-62570000D03*
X90665500Y-63070000D03*
X90665500Y-63570000D03*
X90665500Y-64070000D03*
X90665500Y-64570000D03*
X90665500Y-65070000D03*
X90665500Y-65570000D03*
X90665500Y-66070000D03*
X90665500Y-66570000D03*
X90665500Y-67070000D03*
X90665500Y-67570000D03*
X90665500Y-68070000D03*
X90665500Y-68570000D03*
X90665500Y-69070000D03*
X90665500Y-69570000D03*
X90665500Y-70070000D03*
X90665500Y-70570000D03*
X90665500Y-71070000D03*
X90665500Y-71570000D03*
X90665500Y-72070000D03*
X90665500Y-72570000D03*
%TD*%
D14*
%TO.C,R4*%
X99458000Y-75950000D03*
X99458000Y-74930000D03*
%TD*%
D16*
%TO.C,JP2*%
X57040000Y-78460000D03*
D17*
X57040000Y-79760000D03*
D18*
X57040000Y-81060000D03*
%TD*%
D19*
%TO.C,C2*%
X83820000Y-38227000D03*
X83820000Y-39777000D03*
%TD*%
D20*
%TO.C,Y1*%
X51021223Y-83708858D03*
X52576858Y-82153223D03*
X51374777Y-80951142D03*
X49819142Y-82506777D03*
%TD*%
D21*
%TO.C,C3*%
X95876000Y-57438000D03*
X97426000Y-57438000D03*
%TD*%
D22*
%TO.C,D1*%
X91440000Y-35145000D03*
X91440000Y-37245000D03*
%TD*%
D23*
%TO.C,J2*%
X107840000Y-37880000D03*
D11*
X107840000Y-40420000D03*
D24*
X107840000Y-42960000D03*
D11*
X107840000Y-45500000D03*
X107840000Y-48040000D03*
X107840000Y-50580000D03*
X107840000Y-53120000D03*
D24*
X107840000Y-55660000D03*
D11*
X107840000Y-58200000D03*
X107840000Y-60740000D03*
X107840000Y-63280000D03*
X107840000Y-65820000D03*
D24*
X107840000Y-68360000D03*
D11*
X107840000Y-70900000D03*
X107840000Y-73440000D03*
X107840000Y-75980000D03*
X107840000Y-78520000D03*
D24*
X107840000Y-81060000D03*
D11*
X107840000Y-83600000D03*
X107840000Y-86140000D03*
X125620000Y-86140000D03*
X125620000Y-83600000D03*
D25*
X125620000Y-81060000D03*
D11*
X125620000Y-78520000D03*
X125620000Y-75980000D03*
X125620000Y-73440000D03*
X125620000Y-70900000D03*
D25*
X125620000Y-68360000D03*
D11*
X125620000Y-65820000D03*
X125620000Y-63280000D03*
X125620000Y-60740000D03*
X125620000Y-58200000D03*
D25*
X125620000Y-55660000D03*
D11*
X125620000Y-53120000D03*
X125620000Y-50580000D03*
X125620000Y-48040000D03*
X125620000Y-45500000D03*
D25*
X125620000Y-42960000D03*
D11*
X125620000Y-40420000D03*
X125620000Y-37880000D03*
%TD*%
D26*
%TO.C,R1*%
X101663000Y-77851000D03*
X100013000Y-77851000D03*
%TD*%
D27*
%TO.C,R2*%
X57278000Y-61214000D03*
X58928000Y-61214000D03*
%TD*%
D12*
%TO.C,C4*%
X49812000Y-85852000D03*
X50772000Y-85852000D03*
%TD*%
D28*
%TO.C,JP1*%
X57040000Y-86140000D03*
D17*
X57040000Y-84840000D03*
D29*
X57040000Y-83540000D03*
%TD*%
D14*
%TO.C,R3*%
X97934000Y-75950000D03*
X97934000Y-74930000D03*
%TD*%
D30*
%TO.C,R6*%
X133604000Y-52274000D03*
X133604000Y-53924000D03*
%TD*%
D19*
%TO.C,C1*%
X82042000Y-38227000D03*
X82042000Y-39777000D03*
%TD*%
%TO.C,C6*%
X137160000Y-52324000D03*
X137160000Y-53874000D03*
%TD*%
D31*
%TO.C,J1*%
X128160000Y-96300000D03*
D32*
X125620000Y-96300000D03*
X123080000Y-96300000D03*
X120540000Y-96300000D03*
X118000000Y-96300000D03*
X115460000Y-96300000D03*
X112920000Y-96300000D03*
X110380000Y-96300000D03*
X107840000Y-96300000D03*
X105300000Y-96300000D03*
X102760000Y-96300000D03*
X100220000Y-96300000D03*
X97680000Y-96300000D03*
X95140000Y-96300000D03*
X92600000Y-96300000D03*
X90060000Y-96300000D03*
X87520000Y-96300000D03*
X84980000Y-96300000D03*
X82440000Y-96300000D03*
X79900000Y-96300000D03*
X77360000Y-96300000D03*
X74820000Y-96300000D03*
X72280000Y-96300000D03*
X69740000Y-96300000D03*
X67200000Y-96300000D03*
X64660000Y-96300000D03*
X62120000Y-96300000D03*
X59580000Y-96300000D03*
X57040000Y-96300000D03*
X54500000Y-96300000D03*
X51960000Y-96300000D03*
X49420000Y-96300000D03*
%TD*%
D13*
%TO.C,H3*%
X139510000Y-97640000D03*
%TD*%
D10*
%TO.C,U2*%
X130700000Y-58200000D03*
D11*
X130700000Y-60740000D03*
X130700000Y-63280000D03*
X130700000Y-65820000D03*
X138320000Y-65820000D03*
X138320000Y-63280000D03*
X138320000Y-60740000D03*
X138320000Y-58200000D03*
%TD*%
M02*
