M48
; DRILL file {KiCad 9.0.6-9.0.6~ubuntu24.04.1} date 2025-12-07T17:22:10+0000
; FORMAT={-:-/ absolute / inch / decimal}
; #@! TF.CreationDate,2025-12-07T17:22:10+00:00
; #@! TF.GenerationSoftware,Kicad,Pcbnew,9.0.6-9.0.6~ubuntu24.04.1
; #@! TF.FileFunction,Plated,1,2,PTH
FMAT,2
INCH
; #@! TA.AperFunction,Plated,PTH,ViaDrill
T1C0.0118
; #@! TA.AperFunction,Plated,PTH,ComponentDrill
T2C0.0315
; #@! TA.AperFunction,Plated,PTH,ComponentDrill
T3C0.0394
%
G90
G05
T1
X1.9457Y-2.5
X2.0057Y-2.54
X2.0657Y-2.8913
X2.1857Y-2.7813
X2.2457Y-2.69
X2.39Y-2.24
X2.62Y-2.5413
X2.6457Y-3.5513
X2.6957Y-3.6613
X2.7657Y-3.5813
X2.8257Y-3.6313
X2.8857Y-3.5363
X3.1157Y-2.7413
X3.1157Y-2.8713
X3.119Y-2.57
X3.1557Y-2.0813
X3.1557Y-3.4013
X3.1957Y-2.0413
X3.1957Y-3.3713
X3.2357Y-2.2413
X3.2357Y-3.3413
X3.266Y-1.604
X3.2757Y-2.3313
X3.2757Y-3.3113
X3.3157Y-2.4213
X3.3157Y-3.2813
X3.3757Y-3.0013
X3.3857Y-2.9513
X3.4057Y-3.0313
X3.4157Y-2.9213
X3.4457Y-2.8913
X3.4657Y-2.3213
X3.5089Y-2.8445
X3.514Y-2.491
X3.5154Y-2.3216
X3.5695Y-2.2913
X3.6136Y-2.7193
X3.6143Y-2.5028
X3.6222Y-2.6013
X3.6222Y-2.6413
X3.73Y-3.13
X3.8171Y-2.5028
X3.8177Y-2.7193
X3.89Y-3.03
X4.1157Y-2.6051
X4.1557Y-2.5913
X4.187Y-2.253
X4.3957Y-2.4413
X4.4957Y-2.6413
X4.6Y-2.5413
T2
X2.4457Y-1.4913
X2.4457Y-1.5913
X2.4457Y-1.6913
X2.4457Y-1.7913
X2.4457Y-1.8913
X2.4457Y-1.9913
X2.4457Y-2.0913
X2.4457Y-2.1913
X2.4457Y-2.2913
X2.4457Y-2.3913
X2.4457Y-2.4913
X2.4457Y-2.5913
X2.4457Y-2.6913
X2.4457Y-2.7913
X2.4457Y-2.8913
X2.4457Y-2.9913
X2.4457Y-3.0913
X2.4457Y-3.1913
X2.4457Y-3.2913
X2.4457Y-3.3913
X3.0457Y-1.4913
X3.0457Y-1.5913
X3.0457Y-1.6913
X3.0457Y-1.7913
X3.0457Y-1.8913
X3.0457Y-1.9913
X3.0457Y-2.0913
X3.0457Y-2.1913
X3.0457Y-2.2913
X3.0457Y-2.3913
X3.0457Y-2.4913
X3.0457Y-2.5913
X3.0457Y-2.6913
X3.0457Y-2.7913
X3.0457Y-2.8913
X3.0457Y-2.9913
X3.0457Y-3.0913
X3.0457Y-3.1913
X3.0457Y-3.2913
X3.0457Y-3.3913
X5.1457Y-2.2913
X5.1457Y-2.3913
X5.1457Y-2.4913
X5.1457Y-2.5913
X5.4457Y-2.2913
X5.4457Y-2.3913
X5.4457Y-2.4913
X5.4457Y-2.5913
T3
X1.9457Y-3.7913
X2.0457Y-3.7913
X2.1457Y-3.7913
X2.2457Y-3.7913
X2.3457Y-3.7913
X2.4457Y-3.7913
X2.5457Y-3.7913
X2.6457Y-3.7913
X2.7457Y-3.7913
X2.8457Y-3.7913
X2.9457Y-3.7913
X3.0457Y-3.7913
X3.1457Y-3.7913
X3.2457Y-3.7913
X3.3457Y-3.7913
X3.4457Y-3.7913
X3.5457Y-3.7913
X3.6457Y-3.7913
X3.7457Y-3.7913
X3.8457Y-3.7913
X3.9457Y-3.7913
X4.0457Y-3.7913
X4.1457Y-3.7913
X4.2457Y-1.4913
X4.2457Y-1.5913
X4.2457Y-1.6913
X4.2457Y-1.7913
X4.2457Y-1.8913
X4.2457Y-1.9913
X4.2457Y-2.0913
X4.2457Y-2.1913
X4.2457Y-2.2913
X4.2457Y-2.3913
X4.2457Y-2.4913
X4.2457Y-2.5913
X4.2457Y-2.6913
X4.2457Y-2.7913
X4.2457Y-2.8913
X4.2457Y-2.9913
X4.2457Y-3.0913
X4.2457Y-3.1913
X4.2457Y-3.2913
X4.2457Y-3.3913
X4.2457Y-3.7913
X4.3457Y-3.7913
X4.4457Y-3.7913
X4.5457Y-3.7913
X4.6457Y-3.7913
X4.7457Y-3.7913
X4.8457Y-3.7913
X4.9457Y-1.4913
X4.9457Y-1.5913
X4.9457Y-1.6913
X4.9457Y-1.7913
X4.9457Y-1.8913
X4.9457Y-1.9913
X4.9457Y-2.0913
X4.9457Y-2.1913
X4.9457Y-2.2913
X4.9457Y-2.3913
X4.9457Y-2.4913
X4.9457Y-2.5913
X4.9457Y-2.6913
X4.9457Y-2.7913
X4.9457Y-2.8913
X4.9457Y-2.9913
X4.9457Y-3.0913
X4.9457Y-3.1913
X4.9457Y-3.2913
X4.9457Y-3.3913
X4.9457Y-3.7913
X5.0457Y-3.7913
M30
