%TF.GenerationSoftware,KiCad,Pcbnew,9.0.6-9.0.6~ubuntu24.04.1*%
%TF.CreationDate,2025-12-07T17:22:10+00:00*%
%TF.ProjectId,board_722039m,626f6172-645f-4373-9232-3033396d2e6b,rev?*%
%TF.SameCoordinates,Original*%
%TF.FileFunction,Legend,Bot*%
%TF.FilePolarity,Positive*%
%FSLAX46Y46*%
G04 Gerber Fmt 4.6, Leading zero omitted, Abs format (unit mm)*
G04 Created by KiCad (PCBNEW 9.0.6-9.0.6~ubuntu24.04.1) date 2025-12-07 17:22:10*
%MOMM*%
%LPD*%
G01*
G04 APERTURE LIST*
G04 Aperture macros list*
%AMRoundRect*
0 Rectangle with rounded corners*
0 $1 Rounding radius*
0 $2 $3 $4 $5 $6 $7 $8 $9 X,Y pos of 4 corners*
0 Add a 4 corners polygon primitive as box body*
4,1,4,$2,$3,$4,$5,$6,$7,$8,$9,$2,$3,0*
0 Add four circle primitives for the rounded corners*
1,1,$1+$1,$2,$3*
1,1,$1+$1,$4,$5*
1,1,$1+$1,$6,$7*
1,1,$1+$1,$8,$9*
0 Add four rect primitives between the rounded corners*
20,1,$1+$1,$2,$3,$4,$5,0*
20,1,$1+$1,$4,$5,$6,$7,0*
20,1,$1+$1,$6,$7,$8,$9,0*
20,1,$1+$1,$8,$9,$2,$3,0*%
%AMFreePoly0*
4,1,37,0.603843,0.796157,0.639018,0.796157,0.711114,0.766294,0.766294,0.711114,0.796157,0.639018,0.796157,0.603843,0.800000,0.600000,0.800000,-0.600000,0.796157,-0.603843,0.796157,-0.639018,0.766294,-0.711114,0.711114,-0.766294,0.639018,-0.796157,0.603843,-0.796157,0.600000,-0.800000,0.000000,-0.800000,0.000000,-0.796148,-0.078414,-0.796148,-0.232228,-0.765552,-0.377117,-0.705537,
-0.507515,-0.618408,-0.618408,-0.507515,-0.705537,-0.377117,-0.765552,-0.232228,-0.796148,-0.078414,-0.796148,0.078414,-0.765552,0.232228,-0.705537,0.377117,-0.618408,0.507515,-0.507515,0.618408,-0.377117,0.705537,-0.232228,0.765552,-0.078414,0.796148,0.000000,0.796148,0.000000,0.800000,0.600000,0.800000,0.603843,0.796157,0.603843,0.796157,$1*%
%AMFreePoly1*
4,1,37,0.000000,0.796148,0.078414,0.796148,0.232228,0.765552,0.377117,0.705537,0.507515,0.618408,0.618408,0.507515,0.705537,0.377117,0.765552,0.232228,0.796148,0.078414,0.796148,-0.078414,0.765552,-0.232228,0.705537,-0.377117,0.618408,-0.507515,0.507515,-0.618408,0.377117,-0.705537,0.232228,-0.765552,0.078414,-0.796148,0.000000,-0.796148,0.000000,-0.800000,-0.600000,-0.800000,
-0.603843,-0.796157,-0.639018,-0.796157,-0.711114,-0.766294,-0.766294,-0.711114,-0.796157,-0.639018,-0.796157,-0.603843,-0.800000,-0.600000,-0.800000,0.600000,-0.796157,0.603843,-0.796157,0.639018,-0.766294,0.711114,-0.711114,0.766294,-0.639018,0.796157,-0.603843,0.796157,-0.600000,0.800000,0.000000,0.800000,0.000000,0.796148,0.000000,0.796148,$1*%
G04 Aperture macros list end*
%ADD10C,0.150000*%
%ADD11RoundRect,0.250000X-0.550000X-0.550000X0.550000X-0.550000X0.550000X0.550000X-0.550000X0.550000X0*%
%ADD12C,1.600000*%
%ADD13C,1.300000*%
%ADD14RoundRect,0.200000X-0.600000X-0.600000X0.600000X-0.600000X0.600000X0.600000X-0.600000X0.600000X0*%
%ADD15FreePoly0,0.000000*%
%ADD16FreePoly1,0.000000*%
%ADD17R,1.700000X1.700000*%
%ADD18C,1.700000*%
G04 APERTURE END LIST*
D10*
X139170895Y-86877731D02*
X139742323Y-86877731D01*
X139742323Y-86877731D02*
X139856609Y-86839636D01*
X139856609Y-86839636D02*
X139932800Y-86763445D01*
X139932800Y-86763445D02*
X139970895Y-86649160D01*
X139970895Y-86649160D02*
X139970895Y-86572969D01*
X139970895Y-87639636D02*
X139970895Y-87258684D01*
X139970895Y-87258684D02*
X139170895Y-87258684D01*
X139894704Y-88363446D02*
X139932800Y-88325350D01*
X139932800Y-88325350D02*
X139970895Y-88211065D01*
X139970895Y-88211065D02*
X139970895Y-88134874D01*
X139970895Y-88134874D02*
X139932800Y-88020588D01*
X139932800Y-88020588D02*
X139856609Y-87944398D01*
X139856609Y-87944398D02*
X139780419Y-87906303D01*
X139780419Y-87906303D02*
X139628038Y-87868207D01*
X139628038Y-87868207D02*
X139513752Y-87868207D01*
X139513752Y-87868207D02*
X139361371Y-87906303D01*
X139361371Y-87906303D02*
X139285180Y-87944398D01*
X139285180Y-87944398D02*
X139208990Y-88020588D01*
X139208990Y-88020588D02*
X139170895Y-88134874D01*
X139170895Y-88134874D02*
X139170895Y-88211065D01*
X139170895Y-88211065D02*
X139208990Y-88325350D01*
X139208990Y-88325350D02*
X139247085Y-88363446D01*
X139170895Y-88934874D02*
X139742323Y-88934874D01*
X139742323Y-88934874D02*
X139856609Y-88896779D01*
X139856609Y-88896779D02*
X139932800Y-88820588D01*
X139932800Y-88820588D02*
X139970895Y-88706303D01*
X139970895Y-88706303D02*
X139970895Y-88630112D01*
X139970895Y-89696779D02*
X139970895Y-89315827D01*
X139970895Y-89315827D02*
X139170895Y-89315827D01*
X139894704Y-90420589D02*
X139932800Y-90382493D01*
X139932800Y-90382493D02*
X139970895Y-90268208D01*
X139970895Y-90268208D02*
X139970895Y-90192017D01*
X139970895Y-90192017D02*
X139932800Y-90077731D01*
X139932800Y-90077731D02*
X139856609Y-90001541D01*
X139856609Y-90001541D02*
X139780419Y-89963446D01*
X139780419Y-89963446D02*
X139628038Y-89925350D01*
X139628038Y-89925350D02*
X139513752Y-89925350D01*
X139513752Y-89925350D02*
X139361371Y-89963446D01*
X139361371Y-89963446D02*
X139285180Y-90001541D01*
X139285180Y-90001541D02*
X139208990Y-90077731D01*
X139208990Y-90077731D02*
X139170895Y-90192017D01*
X139170895Y-90192017D02*
X139170895Y-90268208D01*
X139170895Y-90268208D02*
X139208990Y-90382493D01*
X139208990Y-90382493D02*
X139247085Y-90420589D01*
X139170895Y-90992017D02*
X139742323Y-90992017D01*
X139742323Y-90992017D02*
X139856609Y-90953922D01*
X139856609Y-90953922D02*
X139932800Y-90877731D01*
X139932800Y-90877731D02*
X139970895Y-90763446D01*
X139970895Y-90763446D02*
X139970895Y-90687255D01*
X139970895Y-91753922D02*
X139970895Y-91372970D01*
X139970895Y-91372970D02*
X139170895Y-91372970D01*
X139894704Y-92477732D02*
X139932800Y-92439636D01*
X139932800Y-92439636D02*
X139970895Y-92325351D01*
X139970895Y-92325351D02*
X139970895Y-92249160D01*
X139970895Y-92249160D02*
X139932800Y-92134874D01*
X139932800Y-92134874D02*
X139856609Y-92058684D01*
X139856609Y-92058684D02*
X139780419Y-92020589D01*
X139780419Y-92020589D02*
X139628038Y-91982493D01*
X139628038Y-91982493D02*
X139513752Y-91982493D01*
X139513752Y-91982493D02*
X139361371Y-92020589D01*
X139361371Y-92020589D02*
X139285180Y-92058684D01*
X139285180Y-92058684D02*
X139208990Y-92134874D01*
X139208990Y-92134874D02*
X139170895Y-92249160D01*
X139170895Y-92249160D02*
X139170895Y-92325351D01*
X139170895Y-92325351D02*
X139208990Y-92439636D01*
X139208990Y-92439636D02*
X139247085Y-92477732D01*
X139170895Y-93049160D02*
X139742323Y-93049160D01*
X139742323Y-93049160D02*
X139856609Y-93011065D01*
X139856609Y-93011065D02*
X139932800Y-92934874D01*
X139932800Y-92934874D02*
X139970895Y-92820589D01*
X139970895Y-92820589D02*
X139970895Y-92744398D01*
X139970895Y-93811065D02*
X139970895Y-93430113D01*
X139970895Y-93430113D02*
X139170895Y-93430113D01*
X139894704Y-94534875D02*
X139932800Y-94496779D01*
X139932800Y-94496779D02*
X139970895Y-94382494D01*
X139970895Y-94382494D02*
X139970895Y-94306303D01*
X139970895Y-94306303D02*
X139932800Y-94192017D01*
X139932800Y-94192017D02*
X139856609Y-94115827D01*
X139856609Y-94115827D02*
X139780419Y-94077732D01*
X139780419Y-94077732D02*
X139628038Y-94039636D01*
X139628038Y-94039636D02*
X139513752Y-94039636D01*
X139513752Y-94039636D02*
X139361371Y-94077732D01*
X139361371Y-94077732D02*
X139285180Y-94115827D01*
X139285180Y-94115827D02*
X139208990Y-94192017D01*
X139208990Y-94192017D02*
X139170895Y-94306303D01*
X139170895Y-94306303D02*
X139170895Y-94382494D01*
X139170895Y-94382494D02*
X139208990Y-94496779D01*
X139208990Y-94496779D02*
X139247085Y-94534875D01*
%LPC*%
D11*
%TO.C,U1*%
X62120000Y-37880000D03*
D12*
X62120000Y-40420000D03*
X62120000Y-42960000D03*
X62120000Y-45500000D03*
X62120000Y-48040000D03*
X62120000Y-50580000D03*
X62120000Y-53120000D03*
X62120000Y-55660000D03*
X62120000Y-58200000D03*
X62120000Y-60740000D03*
X62120000Y-63280000D03*
X62120000Y-65820000D03*
X62120000Y-68360000D03*
X62120000Y-70900000D03*
X62120000Y-73440000D03*
X62120000Y-75980000D03*
X62120000Y-78520000D03*
X62120000Y-81060000D03*
X62120000Y-83600000D03*
X62120000Y-86140000D03*
X77360000Y-86140000D03*
X77360000Y-83600000D03*
X77360000Y-81060000D03*
X77360000Y-78520000D03*
X77360000Y-75980000D03*
X77360000Y-73440000D03*
X77360000Y-70900000D03*
X77360000Y-68360000D03*
X77360000Y-65820000D03*
X77360000Y-63280000D03*
X77360000Y-60740000D03*
X77360000Y-58200000D03*
X77360000Y-55660000D03*
X77360000Y-53120000D03*
X77360000Y-50580000D03*
X77360000Y-48040000D03*
X77360000Y-45500000D03*
X77360000Y-42960000D03*
X77360000Y-40420000D03*
X77360000Y-37880000D03*
%TD*%
D13*
%TO.C,H2*%
X139510000Y-32940000D03*
%TD*%
%TO.C,H1*%
X48480000Y-32940000D03*
%TD*%
D14*
%TO.C,J2*%
X107840000Y-37880000D03*
D12*
X107840000Y-40420000D03*
D15*
X107840000Y-42960000D03*
D12*
X107840000Y-45500000D03*
X107840000Y-48040000D03*
X107840000Y-50580000D03*
X107840000Y-53120000D03*
D15*
X107840000Y-55660000D03*
D12*
X107840000Y-58200000D03*
X107840000Y-60740000D03*
X107840000Y-63280000D03*
X107840000Y-65820000D03*
D15*
X107840000Y-68360000D03*
D12*
X107840000Y-70900000D03*
X107840000Y-73440000D03*
X107840000Y-75980000D03*
X107840000Y-78520000D03*
D15*
X107840000Y-81060000D03*
D12*
X107840000Y-83600000D03*
X107840000Y-86140000D03*
X125620000Y-86140000D03*
X125620000Y-83600000D03*
D16*
X125620000Y-81060000D03*
D12*
X125620000Y-78520000D03*
X125620000Y-75980000D03*
X125620000Y-73440000D03*
X125620000Y-70900000D03*
D16*
X125620000Y-68360000D03*
D12*
X125620000Y-65820000D03*
X125620000Y-63280000D03*
X125620000Y-60740000D03*
X125620000Y-58200000D03*
D16*
X125620000Y-55660000D03*
D12*
X125620000Y-53120000D03*
X125620000Y-50580000D03*
X125620000Y-48040000D03*
X125620000Y-45500000D03*
D16*
X125620000Y-42960000D03*
D12*
X125620000Y-40420000D03*
X125620000Y-37880000D03*
%TD*%
D17*
%TO.C,J1*%
X128160000Y-96300000D03*
D18*
X125620000Y-96300000D03*
X123080000Y-96300000D03*
X120540000Y-96300000D03*
X118000000Y-96300000D03*
X115460000Y-96300000D03*
X112920000Y-96300000D03*
X110380000Y-96300000D03*
X107840000Y-96300000D03*
X105300000Y-96300000D03*
X102760000Y-96300000D03*
X100220000Y-96300000D03*
X97680000Y-96300000D03*
X95140000Y-96300000D03*
X92600000Y-96300000D03*
X90060000Y-96300000D03*
X87520000Y-96300000D03*
X84980000Y-96300000D03*
X82440000Y-96300000D03*
X79900000Y-96300000D03*
X77360000Y-96300000D03*
X74820000Y-96300000D03*
X72280000Y-96300000D03*
X69740000Y-96300000D03*
X67200000Y-96300000D03*
X64660000Y-96300000D03*
X62120000Y-96300000D03*
X59580000Y-96300000D03*
X57040000Y-96300000D03*
X54500000Y-96300000D03*
X51960000Y-96300000D03*
X49420000Y-96300000D03*
%TD*%
D13*
%TO.C,H3*%
X139510000Y-97640000D03*
%TD*%
D11*
%TO.C,U2*%
X130700000Y-58200000D03*
D12*
X130700000Y-60740000D03*
X130700000Y-63280000D03*
X130700000Y-65820000D03*
X138320000Y-65820000D03*
X138320000Y-63280000D03*
X138320000Y-60740000D03*
X138320000Y-58200000D03*
%TD*%
%LPD*%
M02*
